<svg xmlns="http://www.w3.org/2000/svg" xmlns:xlink="http://www.w3.org/1999/xlink" width="375" viewBox="0 0 375 375" height="375" version="1.0"><defs><g id="a"><path d="M 41.1875 -41.828125 L 41.5 -41.828125 C 41.613281 -41.828125 41.726562 -41.6875 41.84375 -41.40625 L 41.78125 -41.0625 C 41.675781 -41.0625 41.519531 -40.992188 41.3125 -40.859375 L 40.984375 -40.859375 C 41.035156 -41.140625 40.992188 -41.28125 40.859375 -41.28125 C 41.054688 -41.519531 41.164062 -41.703125 41.1875 -41.828125 Z M 37.171875 -40.3125 L 37.515625 -40.3125 C 38.066406 -40.3125 38.363281 -40.164062 38.40625 -39.875 L 38.328125 -39.546875 C 38.179688 -38.890625 37.816406 -38.5625 37.234375 -38.5625 L 37.015625 -38.5625 C 36.773438 -39.09375 36.675781 -39.457031 36.71875 -39.65625 C 37 -40 37.148438 -40.21875 37.171875 -40.3125 Z M 41.3125 -39.328125 C 41.457031 -39.316406 41.515625 -39.242188 41.484375 -39.109375 L 41.390625 -38.6875 C 40.691406 -37.4375 40.128906 -35.8125 39.703125 -33.8125 L 39.3125 -31.953125 C 39.539062 -31.722656 39.640625 -31.503906 39.609375 -31.296875 C 39.585938 -31.253906 39.347656 -30.828125 38.890625 -30.015625 L 38.765625 -29.46875 C 38.585938 -28.582031 38.035156 -26.835938 37.109375 -24.234375 C 36.984375 -23.234375 36.835938 -22.375 36.671875 -21.65625 C 36.523438 -20.914062 34.90625 -18.382812 31.8125 -14.0625 L 31.625 -13.1875 L 31.59375 -12.53125 C 30.882812 -10.570312 30.285156 -9.59375 29.796875 -9.59375 C 29.222656 -9.332031 28.878906 -8.9375 28.765625 -8.40625 L 29.421875 -8.40625 C 29.703125 -8.40625 29.785156 -8.117188 29.671875 -7.546875 L 30.3125 -7.546875 C 30.363281 -7.066406 30.375 -6.738281 30.34375 -6.5625 L 30.265625 -6.234375 C 29.765625 -6.085938 29.425781 -6.015625 29.25 -6.015625 L 28.703125 -6.015625 C 28.722656 -6.128906 28.675781 -6.273438 28.5625 -6.453125 L 28.640625 -6.78125 L 28.8125 -7 L 28.46875 -7 C 28.28125 -7 27.957031 -6.3125 27.5 -4.9375 C 28.007812 -4.9375 28.445312 -4.613281 28.8125 -3.96875 C 28.78125 -3.820312 28.398438 -3.75 27.671875 -3.75 L 27.640625 -3.625 C 28.234375 -3.625 29.050781 -3.554688 30.09375 -3.421875 L 30.015625 -3.078125 C 29.960938 -2.847656 28.707031 -2.53125 26.25 -2.125 C 25.550781 -1.164062 24.628906 0.425781 23.484375 2.65625 C 21.835938 3.925781 20.941406 4.90625 20.796875 5.59375 C 20.296875 6.925781 19.988281 7.679688 19.875 7.859375 C 19.988281 8.367188 20.03125 8.878906 20 9.390625 L 17.953125 12.84375 C 17.742188 13.832031 17.140625 14.488281 16.140625 14.8125 C 15.804688 15.03125 15.171875 16.117188 14.234375 18.078125 C 13.742188 18.648438 13.429688 18.9375 13.296875 18.9375 C 13.085938 18.9375 13.078125 18.46875 13.265625 17.53125 C 12.765625 17.582031 12.429688 17.976562 12.265625 18.71875 L 8.734375 24.140625 C 8.359375 25.285156 7.90625 25.859375 7.375 25.859375 L 7.3125 25.671875 L 7.328125 25.546875 C 8.117188 23.585938 9.238281 21.238281 10.6875 18.5 C 10.695312 18.101562 10.726562 17.78125 10.78125 17.53125 C 11.289062 16.457031 11.5625 15.875 11.59375 15.78125 L 11.625 15.5625 C 11.664062 15.363281 11.628906 14.863281 11.515625 14.0625 L 11.546875 13.9375 C 12.734375 11.050781 13.359375 9.460938 13.421875 9.171875 L 13.328125 9.171875 L 12.953125 9.390625 L 12.734375 9.390625 C 12.585938 9.390625 12.53125 9.316406 12.5625 9.171875 C 13.25 7.628906 14.785156 4.660156 17.171875 0.265625 C 17.429688 0.0546875 17.632812 -0.410156 17.78125 -1.140625 L 17.828125 -1.359375 C 17.878906 -1.929688 17.648438 -2.21875 17.140625 -2.21875 C 16.429688 -1.851562 15.742188 -1.671875 15.078125 -1.671875 L 14.65625 -1.671875 C 14.539062 -2.253906 14.273438 -2.546875 13.859375 -2.546875 L 11.671875 -2 L 11.25 -2 C 11.070312 -2 10.5 -2.179688 9.53125 -2.546875 C 9.375 -1.867188 8.835938 -0.894531 7.921875 0.375 C 6.359375 3.5 5.234375 5.0625 4.546875 5.0625 C 3.984375 5.4375 3.40625 6.40625 2.8125 7.96875 C 2.664062 8.375 2.550781 8.773438 2.46875 9.171875 C 2.539062 9.878906 2.550781 10.347656 2.5 10.578125 C 1.28125 12.566406 0.628906 13.757812 0.546875 14.15625 C 0.0351562 15.320312 -0.519531 15.90625 -1.125 15.90625 C -1.457031 16.164062 -2.019531 17.25 -2.8125 19.15625 C -3.351562 19.65625 -3.65625 19.90625 -3.71875 19.90625 L -3.84375 19.90625 L -3.765625 19.15625 L -3.671875 18.609375 L -4.09375 18.609375 C -4.300781 19.546875 -5.65625 21.316406 -8.15625 23.921875 C -8.726562 25.003906 -9.238281 25.546875 -9.6875 25.546875 L -9.6875 25.453125 C -9.488281 24.554688 -8.410156 22.925781 -6.453125 20.5625 C -6.316406 20.21875 -5.863281 18.769531 -5.09375 16.21875 C -5.363281 15.726562 -5.472656 15.367188 -5.421875 15.140625 C -4.796875 13.921875 -4.390625 12.867188 -4.203125 11.984375 C -3.941406 11.078125 -3.804688 10.609375 -3.796875 10.578125 L -3.921875 10.578125 C -4.128906 10.722656 -4.25 10.796875 -4.28125 10.796875 L -4.390625 10.796875 L -4.578125 10.671875 C -2.503906 6.066406 -0.78125 2.707031 0.59375 0.59375 L 0.75 -0.046875 C 0.789062 -0.296875 0.734375 -0.550781 0.578125 -0.8125 C 1.484375 -2.664062 1.941406 -3.644531 1.953125 -3.75 C 0.304688 -4.15625 -0.476562 -4.515625 -0.40625 -4.828125 L -0.390625 -4.9375 C 0.222656 -5.113281 0.5625 -5.332031 0.625 -5.59375 L -3.625 -7.640625 C -4.601562 -7.640625 -5.078125 -7.925781 -5.046875 -8.5 L -4.828125 -8.625 C -3.265625 -8.269531 -2.394531 -8.09375 -2.21875 -8.09375 C -2.03125 -8.445312 -1.738281 -8.625 -1.34375 -8.625 L -1.234375 -8.625 C -0.648438 -8.625 -0.410156 -8.40625 -0.515625 -7.96875 C -0.597656 -7.539062 -0.273438 -7.328125 0.453125 -7.328125 L 0.765625 -7.328125 C 0.929688 -7.328125 1.171875 -7.796875 1.484375 -8.734375 C 0.804688 -8.941406 0.519531 -9.269531 0.625 -9.71875 C 1.144531 -9.84375 1.425781 -9.984375 1.46875 -10.140625 C 1.425781 -10.265625 0.679688 -10.664062 -0.765625 -11.34375 L -0.90625 -11.65625 C -0.644531 -11.8125 -0.414062 -11.890625 -0.21875 -11.890625 C 1.332031 -11.671875 2.46875 -11.5625 3.1875 -11.5625 L 4.15625 -11.5625 C 5.082031 -11.925781 5.695312 -12.109375 6 -12.109375 L 6 -11.984375 C 6.195312 -12.015625 6.398438 -12.160156 6.609375 -12.421875 L 6.640625 -12.96875 C 6.703125 -13.300781 7.175781 -14.207031 8.0625 -15.6875 C 8.1875 -16.226562 8.535156 -16.84375 9.109375 -17.53125 C 9.628906 -19.96875 10.796875 -21.703125 12.609375 -22.734375 C 13.359375 -23.328125 14.570312 -24.625 16.25 -26.625 C 16.320312 -26.625 16.554688 -26.703125 16.953125 -26.859375 C 17.535156 -26.640625 17.984375 -26.53125 18.296875 -26.53125 C 18.722656 -27.46875 19.21875 -27.9375 19.78125 -27.9375 C 19.78125 -27.25 19.765625 -26.8125 19.734375 -26.625 L 19.828125 -26.625 C 21.078125 -28.644531 21.953125 -29.65625 22.453125 -29.65625 L 22.5 -29.46875 L 22.453125 -29.125 C 21.359375 -26.757812 20.492188 -24.585938 19.859375 -22.609375 C 19.773438 -21.585938 19.691406 -20.863281 19.609375 -20.4375 L 19.484375 -19.90625 C 19.335938 -19.207031 18.113281 -17.332031 15.8125 -14.28125 C 14.851562 -12.914062 14.238281 -11.578125 13.96875 -10.265625 C 15.101562 -10.265625 16.003906 -10.582031 16.671875 -11.21875 C 19.253906 -11.082031 20.503906 -10.835938 20.421875 -10.484375 L 20.515625 -10.484375 C 20.671875 -11.117188 21.066406 -11.4375 21.703125 -11.4375 C 22.429688 -11.4375 22.859375 -11.722656 22.984375 -12.296875 C 23.003906 -12.429688 23.117188 -12.65625 23.328125 -12.96875 C 23.359375 -13.457031 23.410156 -13.851562 23.484375 -14.15625 L 23.609375 -14.703125 C 23.617188 -14.773438 23.851562 -15.242188 24.3125 -16.109375 L 24.171875 -16.453125 L 24.25 -16.765625 C 25.363281 -18.972656 25.992188 -20.421875 26.140625 -21.109375 L 25.5 -21.109375 C 25.53125 -21.304688 25.503906 -21.519531 25.421875 -21.75 C 25.734375 -23.28125 26.253906 -24.046875 26.984375 -24.046875 C 27.921875 -24.679688 28.5625 -25.796875 28.90625 -27.390625 C 28.8125 -27.617188 28.785156 -27.832031 28.828125 -28.03125 L 28.828125 -28.15625 L 30.046875 -30.75 L 30.40625 -32.5 C 30.539062 -33.125 31.550781 -33.953125 33.4375 -34.984375 C 33.96875 -35.773438 34.757812 -36.425781 35.8125 -36.9375 L 35.90625 -36.9375 C 36.414062 -36.9375 36.941406 -36.832031 37.484375 -36.625 C 37.898438 -37.28125 38.328125 -37.609375 38.765625 -37.609375 C 38.765625 -37.191406 38.847656 -36.894531 39.015625 -36.71875 C 39.242188 -36.71875 39.601562 -37.226562 40.09375 -38.25 C 40.757812 -38.957031 41.164062 -39.316406 41.3125 -39.328125 Z M 22.328125 -32.171875 L 22.765625 -32.171875 C 22.734375 -32.023438 22.78125 -31.953125 22.90625 -31.953125 C 22.84375 -31.578125 22.648438 -31.320312 22.328125 -31.1875 L 22 -31.1875 C 22.019531 -31.300781 21.976562 -31.453125 21.875 -31.640625 L 21.921875 -31.828125 C 21.941406 -31.941406 22.078125 -32.054688 22.328125 -32.171875 Z M 18.546875 -30.75 C 19.203125 -30.75 19.46875 -30.460938 19.34375 -29.890625 C 19.144531 -29.242188 18.75 -28.921875 18.15625 -28.921875 C 17.8125 -29.316406 17.6875 -29.742188 17.78125 -30.203125 C 18.175781 -30.566406 18.429688 -30.75 18.546875 -30.75 Z M 34.625 -18.609375 L 34.578125 -18.390625 C 34.722656 -18.390625 34.8125 -18.460938 34.84375 -18.609375 Z M -2.90625 -11.5625 L -2.453125 -11.5625 L -2.453125 -11.015625 L -2.484375 -10.90625 C -2.515625 -10.75 -2.601562 -10.671875 -2.75 -10.671875 L -3.296875 -10.671875 C -3.265625 -10.835938 -3.273438 -10.988281 -3.328125 -11.125 C -3.140625 -11.414062 -3 -11.5625 -2.90625 -11.5625 Z M 30.703125 -5.25 L 31.25 -5.25 L 31.25 -4.703125 L 31.203125 -4.515625 L 30.625 -4.390625 L 30.40625 -4.390625 L 30.40625 -4.9375 L 30.4375 -5.0625 C 30.488281 -5.1875 30.578125 -5.25 30.703125 -5.25 Z M 31.890625 -4.703125 L 32.203125 -4.703125 C 32.421875 -4.703125 32.503906 -4.566406 32.453125 -4.296875 C 32.421875 -4.179688 32.234375 -4 31.890625 -3.75 C 31.609375 -3.894531 31.460938 -4.035156 31.453125 -4.171875 L 31.5 -4.390625 C 31.507812 -4.503906 31.640625 -4.609375 31.890625 -4.703125 Z M 13.09375 8.625 L 13.046875 8.859375 L 13.171875 8.859375 L 13.21875 8.625 Z M -4.015625 10.03125 L -4.0625 10.265625 L -3.9375 10.265625 L -3.921875 10.03125 Z M 13.46875 18.171875 L 13.421875 18.390625 L 13.640625 18.390625 L 13.6875 18.171875 Z M -3.46875 19.265625 L -3.515625 19.484375 L -3.421875 19.484375 L -3.375 19.265625 Z M -3.46875 19.265625"/></g><g id="b"><path d="M 20.34375 -28.96875 L 20.734375 -28.96875 C 21.148438 -28.507812 21.5625 -28.28125 21.96875 -28.28125 L 22.953125 -28.28125 C 23.460938 -28.28125 24.253906 -27.6875 25.328125 -26.5 L 25.421875 -26.5 C 25.878906 -26.632812 26.191406 -26.703125 26.359375 -26.703125 C 26.703125 -26.703125 26.929688 -26.539062 27.046875 -26.21875 C 27.015625 -26.0625 26.726562 -25.628906 26.1875 -24.921875 C 26.832031 -23.609375 27.085938 -22.65625 26.953125 -22.0625 L 26.921875 -21.875 L 26.40625 -21.765625 L 26.21875 -21.765625 C 25.9375 -21.765625 25.679688 -21.832031 25.453125 -21.96875 C 25.097656 -21.875 24.890625 -21.675781 24.828125 -21.375 C 25.421875 -20.71875 25.914062 -20.390625 26.3125 -20.390625 C 26.394531 -20.648438 26.519531 -20.78125 26.6875 -20.78125 L 27.265625 -20.78125 C 27.847656 -20.6875 28.085938 -20.425781 27.984375 -20 C 27.972656 -19.882812 27.71875 -19.585938 27.21875 -19.109375 C 28.382812 -18.109375 28.632812 -16.035156 27.96875 -12.890625 C 28.289062 -12.253906 28.410156 -11.765625 28.328125 -11.421875 C 27.609375 -9.828125 27.019531 -8.28125 26.5625 -6.78125 C 26.195312 -6.269531 25.816406 -5.414062 25.421875 -4.21875 L 26.140625 -4.703125 L 26.234375 -4.703125 L 26.21875 -4.609375 C 25.851562 -2.898438 23.8125 -0.140625 20.09375 3.671875 C 17.101562 6.234375 14.835938 7.78125 13.296875 8.3125 C 10.515625 9.65625 8.84375 10.410156 8.28125 10.578125 C 7.738281 10.578125 7.4375 10.609375 7.375 10.671875 C 5.726562 10.671875 3.90625 9.984375 1.90625 8.609375 C -0.78125 6.078125 -1.601562 2.359375 -0.5625 -2.546875 L -0.46875 -3.03125 C -0.382812 -3.394531 -0.253906 -3.851562 -0.078125 -4.40625 L -0.046875 -4.515625 L -0.140625 -4.515625 C -0.835938 -3.128906 -1.25 -2.4375 -1.375 -2.4375 L -1.5 -2.734375 L -1.359375 -3.53125 L 0.296875 -7.5625 C 0.753906 -9.144531 1.054688 -9.9375 1.203125 -9.9375 L 1.3125 -10.4375 C 1.082031 -10.9375 0.941406 -11.195312 0.890625 -11.21875 C 1.910156 -13.238281 2.4375 -14.320312 2.46875 -14.46875 L 1.96875 -14.46875 C 1.84375 -14.46875 1.785156 -14.535156 1.796875 -14.671875 L 1.828125 -14.765625 C 2.960938 -16.546875 4.34375 -18.222656 5.96875 -19.796875 C 6.957031 -20.410156 7.488281 -20.9375 7.5625 -21.375 L 7.5625 -21.765625 C 8.207031 -22.585938 9.46875 -23.578125 11.34375 -24.734375 C 11.914062 -25.328125 13.367188 -25.984375 15.703125 -26.703125 C 16.585938 -27.554688 17.992188 -27.984375 19.921875 -27.984375 L 20.046875 -28.484375 C 20.066406 -28.609375 20.175781 -28.671875 20.375 -28.671875 L 20.390625 -28.78125 Z M 23.75 -20.390625 L 23.59375 -20.1875 L 24.390625 -19.203125 L 24.28125 -18.8125 C 24.039062 -18.75 23.90625 -18.71875 23.875 -18.71875 L 23.84375 -18.609375 C 24.0625 -18.335938 24.128906 -18.007812 24.046875 -17.625 L 23.9375 -17.140625 L 23.546875 -17.140625 C 23.054688 -18.085938 22.546875 -18.941406 22.015625 -19.703125 C 21.160156 -19.566406 20.585938 -19.5 20.296875 -19.5 C 20.128906 -19.5 19.6875 -19.726562 18.96875 -20.1875 C 18.851562 -19.71875 17.707031 -18.375 15.53125 -16.15625 C 14.8125 -15.03125 13.53125 -13.78125 11.6875 -12.40625 C 9.875 -10.394531 8.789062 -8.550781 8.4375 -6.875 C 7.789062 -4.3125 7.253906 -3.03125 6.828125 -3.03125 L 6.1875 -2.34375 C 6.238281 -2.09375 6.191406 -1.398438 6.046875 -0.265625 C 6.398438 1.566406 7.03125 2.484375 7.9375 2.484375 C 8.53125 2.816406 9.148438 2.984375 9.796875 2.984375 C 10.003906 2.984375 11.171875 2.625 13.296875 1.90625 C 14.304688 1.90625 15.101562 1.539062 15.6875 0.8125 C 16.519531 0.269531 17.414062 -0.710938 18.375 -2.140625 C 18.914062 -3.929688 19.425781 -5.082031 19.90625 -5.59375 C 21.394531 -7.664062 22.25 -9.210938 22.46875 -10.234375 C 22.707031 -10.691406 23.164062 -11.148438 23.84375 -11.609375 C 24.21875 -12.148438 24.472656 -12.742188 24.609375 -13.390625 C 24.753906 -14.023438 24.882812 -15.109375 25 -16.640625 C 25.101562 -16.753906 25.171875 -16.882812 25.203125 -17.03125 L 25.5 -17.03125 C 25.5625 -17.03125 25.765625 -16.769531 26.109375 -16.25 L 26.21875 -16.25 C 26.34375 -16.25 26.421875 -16.316406 26.453125 -16.453125 C 26.253906 -17.859375 25.566406 -19.101562 24.390625 -20.1875 C 24.191406 -20.1875 23.976562 -20.253906 23.75 -20.390625 Z M 13.53125 -14.578125 L 13.484375 -14.375 C 13.617188 -14.375 13.703125 -14.441406 13.734375 -14.578125 Z M 25.28125 -3.53125 L 25.25 -3.328125 L 25.34375 -3.328125 L 25.375 -3.53125 Z M 25.28125 -3.53125"/></g><g id="c"><path d="M 20.375 -30.890625 L 20.65625 -30.890625 C 21.613281 -30.890625 22.59375 -30.828125 23.59375 -30.703125 L 23.796875 -30.796875 C 26.503906 -30.472656 28.363281 -30.210938 29.375 -30.015625 C 32.019531 -29.285156 33.882812 -28.332031 34.96875 -27.15625 C 36.019531 -26.875 36.519531 -26.609375 36.46875 -26.359375 C 37.625 -24.304688 37.992188 -22.332031 37.578125 -20.4375 L 37.484375 -19.953125 C 36.972656 -17.535156 35.109375 -14.9375 31.890625 -12.15625 C 31.066406 -11.476562 29.625 -10.425781 27.5625 -9 C 26.25 -7.550781 24.96875 -6.628906 23.71875 -6.234375 C 22.113281 -4.984375 21.09375 -4.359375 20.65625 -4.359375 C 20.394531 -4.359375 19.3125 -3.769531 17.40625 -2.59375 L 17.3125 -2.59375 L 17.28125 -2.390625 C 19.71875 -1.847656 22.375 -0.269531 25.25 2.34375 C 25.582031 2.945312 25.726562 3.304688 25.6875 3.421875 C 25.539062 4.179688 26.585938 5.003906 28.828125 5.890625 C 29.546875 5.890625 30.046875 6.15625 30.328125 6.6875 C 31.660156 8.175781 32.296875 9.0625 32.234375 9.34375 C 32.066406 10.113281 32.507812 10.835938 33.5625 11.515625 C 33.96875 12.023438 34.128906 12.484375 34.046875 12.890625 L 33.953125 12.890625 C 33.890625 12.890625 33.519531 12.757812 32.84375 12.5 L 32.8125 12.703125 C 33.601562 13.679688 34.460938 15.222656 35.390625 17.328125 C 35.828125 17.710938 36.003906 18.078125 35.921875 18.421875 L 35.90625 18.515625 L 35.609375 18.515625 C 34.898438 17.835938 33.832031 16.554688 32.40625 14.671875 C 31.5625 13.554688 30.492188 13 29.203125 13 C 27.835938 11.613281 26.929688 10.921875 26.484375 10.921875 L 26.4375 11.125 C 26.414062 11.1875 26.4375 11.21875 26.5 11.21875 C 26.40625 11.414062 26.328125 11.515625 26.265625 11.515625 C 25.785156 11.316406 25.28125 10.890625 24.75 10.234375 C 22.300781 8.023438 20.628906 6.773438 19.734375 6.484375 L 18.984375 6.6875 C 18.660156 6.6875 17.335938 5.796875 15.015625 4.015625 C 14.191406 3.617188 12.9375 2.894531 11.25 1.84375 C 10.46875 1.84375 9.773438 1.550781 9.171875 0.96875 L 9.078125 0.96875 C 8.972656 0.96875 8.617188 1.6875 8.015625 3.125 C 7.421875 3.601562 6.671875 4.820312 5.765625 6.78125 L 3.03125 9.84375 C 2.40625 10.976562 1.988281 12.03125 1.78125 13 L 1.84375 13.984375 L 1.828125 14.171875 C 1.773438 14.367188 1.175781 15.488281 0.03125 17.53125 C -0.15625 18.382812 -0.789062 19.207031 -1.875 20 L -3.71875 23.546875 L -4.015625 23.546875 C -4.003906 22.890625 -3.984375 22.460938 -3.953125 22.265625 L -4.140625 22.265625 C -5.441406 24.703125 -6.660156 26.578125 -7.796875 27.890625 C -7.910156 28.410156 -8.242188 28.90625 -8.796875 29.375 L -9 29.375 C -8.75 28.21875 -7.765625 26.207031 -6.046875 23.34375 C -5.703125 22.289062 -5.410156 21.238281 -5.171875 20.1875 L -5.15625 20.09375 C -5.125 19.945312 -5.207031 19.550781 -5.40625 18.90625 C -4.894531 18.050781 -4.347656 16.570312 -3.765625 14.46875 L -3.875 14.46875 C -3.96875 14.46875 -4.082031 14.566406 -4.21875 14.765625 C -4.332031 14.703125 -4.421875 14.671875 -4.484375 14.671875 L -4.4375 14.375 L -2.390625 9.84375 L 0.796875 3.71875 C 0.671875 3.195312 0.59375 2.9375 0.5625 2.9375 C 1.726562 0.488281 2.78125 -1.382812 3.71875 -2.6875 C 3.75 -2.832031 3.816406 -2.960938 3.921875 -3.078125 C 3.066406 -3.472656 2.597656 -3.898438 2.515625 -4.359375 L 2.609375 -4.859375 C 2.804688 -4.859375 3.003906 -5.019531 3.203125 -5.34375 C 3.304688 -5.769531 2.921875 -6.265625 2.046875 -6.828125 C 1.898438 -6.828125 1.789062 -6.957031 1.71875 -7.21875 L 1.796875 -7.515625 L 2.484375 -7.515625 L 2.515625 -7.625 C 2.492188 -8.175781 2.195312 -8.664062 1.625 -9.09375 C 1.3125 -9.144531 1.207031 -9.410156 1.3125 -9.890625 L 1.40625 -9.890625 C 1.6875 -9.890625 2.125 -9.757812 2.71875 -9.5 L 3.59375 -9.984375 C 3.25 -10.835938 3.101562 -11.363281 3.15625 -11.5625 C 3.1875 -11.695312 3.257812 -11.765625 3.375 -11.765625 C 3.800781 -11.566406 4.113281 -11.46875 4.3125 -11.46875 L 4.34375 -11.5625 C 4.382812 -11.789062 4.085938 -12.414062 3.453125 -13.4375 C 3.367188 -13.65625 3.34375 -13.851562 3.375 -14.03125 L 3.40625 -14.125 C 3.4375 -14.257812 3.507812 -14.328125 3.625 -14.328125 L 5.671875 -12.25 C 6.585938 -11.394531 7.253906 -10.96875 7.671875 -10.96875 L 7.671875 -11.078125 C 7.796875 -11.660156 8.226562 -12.445312 8.96875 -13.4375 L 9.09375 -14.03125 C 9.507812 -15.9375 10.273438 -17.21875 11.390625 -17.875 C 11.609375 -18.0625 12.007812 -18.554688 12.59375 -19.359375 C 13.039062 -19.359375 13.691406 -20.082031 14.546875 -21.53125 L 16.328125 -23 C 17.046875 -22.800781 17.488281 -22.703125 17.65625 -22.703125 C 18.195312 -23.753906 18.664062 -24.28125 19.0625 -24.28125 L 19.140625 -24.09375 L 18.859375 -22.90625 C 19.222656 -22.90625 19.726562 -23.53125 20.375 -24.78125 C 18.269531 -24.914062 17.035156 -25.015625 16.671875 -25.078125 C 16.023438 -25.015625 15.390625 -24.984375 14.765625 -24.984375 L 14.46875 -24.984375 C 12.726562 -25.566406 11.773438 -25.859375 11.609375 -25.859375 L 11.21875 -25.859375 L 6.984375 -25.375 C 6.847656 -25.375 6.789062 -25.441406 6.8125 -25.578125 C 6.84375 -25.671875 7.359375 -25.929688 8.359375 -26.359375 L 8.40625 -26.5625 C 8.195312 -26.5625 8.039062 -26.59375 7.9375 -26.65625 C 7.21875 -26.394531 5.804688 -26.097656 3.703125 -25.765625 C 1.085938 -24.648438 -0.671875 -24.09375 -1.578125 -24.09375 L -1.65625 -24.28125 C -1.601562 -24.46875 0.265625 -25.359375 3.953125 -26.953125 C 6.347656 -27.753906 8.269531 -28.28125 9.71875 -28.53125 C 10.269531 -28.53125 11.265625 -28.890625 12.703125 -29.609375 C 12.828125 -29.679688 13 -29.71875 13.21875 -29.71875 L 13.421875 -29.71875 C 14.828125 -29.71875 16.832031 -29.878906 19.4375 -30.203125 L 19.453125 -30.3125 C 19.191406 -30.3125 19.0625 -30.441406 19.0625 -30.703125 C 19.375 -30.828125 19.8125 -30.890625 20.375 -30.890625 Z M 20.015625 -30.59375 L 20 -30.5 C 20.0625 -30.5 20.148438 -30.46875 20.265625 -30.40625 L 20.296875 -30.5 L 20.125 -30.59375 Z M 7.546875 -25.765625 L 7.515625 -25.671875 L 7.8125 -25.671875 L 7.84375 -25.765625 Z M 18.8125 -18.46875 C 18.78125 -18.300781 18.625 -17.414062 18.34375 -15.8125 C 17.800781 -14.28125 16.859375 -12.765625 15.515625 -11.265625 C 15.171875 -10.835938 14.859375 -10.28125 14.578125 -9.59375 C 14.867188 -9.769531 15.894531 -9.96875 17.65625 -10.1875 C 19.738281 -11.007812 21.554688 -11.992188 23.109375 -13.140625 C 24.421875 -14.585938 25.59375 -15.3125 26.625 -15.3125 C 27.21875 -15.3125 28.148438 -15.96875 29.421875 -17.28125 C 30.203125 -18.238281 30.703125 -19.191406 30.921875 -20.140625 L 30.953125 -20.25 C 31.265625 -21.738281 30.445312 -22.890625 28.5 -23.703125 C 27.550781 -24.816406 26.457031 -25.375 25.21875 -25.375 L 22.65625 -25.375 C 21.601562 -25.375 20.921875 -24.648438 20.609375 -23.203125 C 20.253906 -22.398438 19.65625 -20.820312 18.8125 -18.46875 Z M 1.65625 -15.21875 L 2.25 -15.21875 L 2.25 -14.71875 C 2.132812 -14.519531 1.910156 -14.421875 1.578125 -14.421875 C 1.441406 -14.421875 1.398438 -14.519531 1.453125 -14.71875 Z M 16.921875 -13.640625 C 16.898438 -13.566406 16.84375 -13.46875 16.75 -13.34375 L 16.84375 -13.34375 L 16.984375 -13.53125 L 17.015625 -13.640625 Z M 0.6875 -12.0625 L 1.375 -12.0625 C 1.6875 -11.71875 1.8125 -11.390625 1.75 -11.078125 L 1.71875 -10.875 C 1.257812 -10.738281 0.953125 -10.671875 0.796875 -10.671875 L 0.296875 -10.671875 C 0.191406 -11.148438 0.160156 -11.445312 0.203125 -11.5625 C 0.472656 -11.695312 0.632812 -11.863281 0.6875 -12.0625 Z M -0.671875 -10.375 L -0.265625 -10.375 C -0.171875 -10.375 -0.09375 -10.273438 -0.03125 -10.078125 L -0.125 -9.59375 L -0.640625 -9.5 C -0.609375 -9.625 -0.691406 -9.6875 -0.890625 -9.6875 L -0.859375 -9.890625 Z M 15.046875 -9.5 L 15.015625 -9.390625 L 15.3125 -9.390625 C 15.5625 -9.523438 15.773438 -9.59375 15.953125 -9.59375 L 15.984375 -9.6875 L 15.78125 -9.6875 C 15.550781 -9.5625 15.304688 -9.5 15.046875 -9.5 Z M -0.328125 -7.328125 C 0.222656 -7.097656 0.457031 -6.769531 0.375 -6.34375 L 0.34375 -6.234375 C 0.3125 -6.066406 0.015625 -5.9375 -0.546875 -5.84375 L -0.9375 -5.84375 C -1.03125 -5.84375 -1.128906 -5.972656 -1.234375 -6.234375 L -1.140625 -6.734375 C -0.785156 -7.128906 -0.515625 -7.328125 -0.328125 -7.328125 Z M 33.578125 12.296875 L 33.53125 12.5 L 33.734375 12.5 L 33.78125 12.296875 Z M 33.578125 12.296875"/></g><g id="e"><path d="M 34.125 -30.421875 L 34.296875 -30.421875 L 34.28125 -30.328125 C 34.175781 -29.835938 33.398438 -28.273438 31.953125 -25.640625 C 31.910156 -25.378906 31.710938 -24.753906 31.359375 -23.765625 C 31.441406 -23.765625 31.523438 -23.578125 31.609375 -23.203125 C 31.179688 -22.347656 30.867188 -21.566406 30.671875 -20.859375 L 30.75 -20.859375 L 30.96875 -20.953125 C 31.070312 -20.890625 31.144531 -20.859375 31.1875 -20.859375 L 31.125 -20.59375 C 29.53125 -17.75 28.65625 -16 28.5 -15.34375 C 28.582031 -15.34375 28.675781 -15.21875 28.78125 -14.96875 L 28.734375 -14.765625 C 27.921875 -13.203125 27.425781 -11.988281 27.25 -11.125 C 27.21875 -10.425781 27.1875 -9.988281 27.15625 -9.8125 C 26.789062 -8.894531 26.554688 -8.363281 26.453125 -8.21875 C 26.367188 -7.570312 26.296875 -7.066406 26.234375 -6.703125 L 26.109375 -6.140625 C 26.046875 -5.847656 25.429688 -5.222656 24.265625 -4.265625 C 23.953125 -2.847656 22.59375 0.304688 20.1875 5.203125 C 19.570312 6.234375 18.601562 7.453125 17.28125 8.859375 C 16.65625 9.328125 15.832031 10.359375 14.8125 11.953125 C 13.601562 13.140625 11.625 14.015625 8.875 14.578125 L 7.890625 14.578125 C 3.878906 14.578125 1.296875 13.140625 0.140625 10.265625 C -0.972656 8.035156 -1.445312 5.78125 -1.28125 3.5 C -1.070312 2.46875 -0.867188 1.65625 -0.671875 1.0625 C -0.566406 0.289062 -0.515625 -0.109375 -0.515625 -0.140625 C -0.00390625 -2.210938 0.410156 -4.023438 0.734375 -5.578125 C 1.242188 -7.953125 2.84375 -10.703125 5.53125 -13.828125 C 6.144531 -14.734375 6.832031 -16.019531 7.59375 -17.6875 C 7.625 -18.113281 7.664062 -18.457031 7.71875 -18.71875 L 7.796875 -18.984375 C 8.203125 -19.804688 8.445312 -20.398438 8.53125 -20.765625 C 8.726562 -20.828125 8.859375 -21.015625 8.921875 -21.328125 L 9.140625 -22.359375 C 9.304688 -23.117188 9.742188 -23.625 10.453125 -23.875 C 10.992188 -24.414062 11.671875 -24.816406 12.484375 -25.078125 C 13.253906 -25.898438 13.941406 -26.3125 14.546875 -26.3125 C 14.722656 -26.113281 15.046875 -25.957031 15.515625 -25.84375 C 15.742188 -26.164062 16.03125 -26.410156 16.375 -26.578125 C 16.539062 -26.515625 16.585938 -26.328125 16.515625 -26.015625 L 16.46875 -25.75 L 16.75 -25.75 C 17.8125 -27.0625 18.515625 -27.71875 18.859375 -27.71875 L 18.84375 -27.625 C 18.726562 -27.070312 18.175781 -26.035156 17.1875 -24.515625 C 16.9375 -23.835938 16.789062 -23.398438 16.75 -23.203125 C 16.675781 -22.859375 16.648438 -22.488281 16.671875 -22.09375 C 16.535156 -21.613281 15.679688 -20.363281 14.109375 -18.34375 C 13.953125 -18.175781 13.695312 -17.390625 13.34375 -15.984375 C 12.945312 -15.984375 12.296875 -15.046875 11.390625 -13.171875 C 11.191406 -12.265625 9.851562 -9.363281 7.375 -4.46875 C 7.34375 -4.269531 7.035156 -3.765625 6.453125 -2.953125 C 5.984375 -1.890625 5.484375 -0.390625 4.953125 1.546875 C 4.898438 1.742188 4.925781 2.894531 5.03125 5 L 5 5.46875 C 4.96875 5.582031 4.851562 5.835938 4.65625 6.234375 L 5.125 6.140625 C 5.34375 6.390625 5.46875 6.515625 5.5 6.515625 C 5.875 6.203125 6.175781 6.046875 6.40625 6.046875 L 6.515625 6.046875 C 6.628906 6.054688 6.671875 6.117188 6.640625 6.234375 C 6.640625 6.285156 6.554688 6.535156 6.390625 6.984375 C 6.242188 7.671875 6.882812 8.015625 8.3125 8.015625 L 8.40625 8.015625 C 8.738281 7.835938 9.082031 7.335938 9.4375 6.515625 C 10.082031 5.523438 10.832031 4.832031 11.6875 4.4375 C 12.59375 3.238281 13.070312 2.523438 13.125 2.296875 L 13.34375 1.25 C 13.78125 0.0078125 14.238281 -0.609375 14.71875 -0.609375 C 15 -0.609375 15.410156 -1.546875 15.953125 -3.421875 C 16.265625 -3.898438 16.648438 -4.90625 17.109375 -6.4375 C 17.648438 -7 18.289062 -8.179688 19.03125 -9.984375 C 19.257812 -10.265625 19.78125 -10.734375 20.59375 -11.390625 C 21.1875 -12.492188 21.578125 -13.5 21.765625 -14.40625 L 21.84375 -14.765625 C 21.875 -14.921875 21.847656 -15.203125 21.765625 -15.609375 C 22.816406 -17.253906 23.59375 -18.535156 24.09375 -19.453125 C 25.125 -19.984375 25.835938 -20.707031 26.234375 -21.625 C 26.347656 -22.132812 26.734375 -22.660156 27.390625 -23.203125 C 27.503906 -23.734375 27.796875 -24.078125 28.265625 -24.234375 C 28.753906 -24.234375 29.742188 -25.550781 31.234375 -28.1875 L 31.515625 -28.1875 L 31.484375 -27.71875 C 31.335938 -27.269531 31.039062 -26.578125 30.59375 -25.640625 L 30.578125 -25.546875 L 30.671875 -25.546875 C 31.234375 -26.316406 31.941406 -27.382812 32.796875 -28.75 C 33.023438 -28.75 33.328125 -29.21875 33.703125 -30.15625 Z M 18.96875 -29.765625 L 19.40625 -29.765625 L 19.40625 -29.296875 L 19.359375 -29.125 L 18.859375 -29.015625 L 18.6875 -29.015625 L 18.6875 -29.484375 L 18.71875 -29.59375 C 18.78125 -29.707031 18.863281 -29.765625 18.96875 -29.765625 Z M 15.734375 -29.015625 C 16.335938 -29.015625 16.59375 -28.769531 16.5 -28.28125 C 16.382812 -27.769531 16.054688 -27.515625 15.515625 -27.515625 L 15.34375 -27.515625 C 15.257812 -27.992188 15.25 -28.375 15.3125 -28.65625 C 15.375 -28.832031 15.515625 -28.953125 15.734375 -29.015625 Z M 15.34375 -20.390625 L 15.28125 -20.21875 L 15.390625 -20.21875 L 15.4375 -20.390625 Z M 7.34375 -5.109375 C 7.3125 -4.972656 7.253906 -4.847656 7.171875 -4.734375 L 7.375 -4.734375 L 7.453125 -5.109375 Z M 7.34375 -5.109375"/></g><g id="f"><path d="M 20.765625 -29.421875 L 21.53125 -29.421875 C 23.78125 -29.203125 24.875 -28.945312 24.8125 -28.65625 C 25.15625 -28.34375 25.71875 -28.03125 26.5 -27.71875 C 26.769531 -27.175781 27.453125 -26.476562 28.546875 -25.625 C 28.859375 -25.039062 28.957031 -24.472656 28.84375 -23.921875 C 28.75 -23.472656 28.632812 -22.773438 28.5 -21.828125 L 27.5 -18.96875 C 27.164062 -18.34375 26.753906 -18.03125 26.265625 -18.03125 L 25.59375 -18.03125 C 25.53125 -18.03125 25.269531 -17.707031 24.8125 -17.0625 L 24.734375 -17.0625 C 24.554688 -17.0625 24.472656 -17.285156 24.484375 -17.734375 L 24.390625 -17.734375 C 24.171875 -17.734375 23.804688 -17.097656 23.296875 -15.828125 C 22.972656 -15.515625 22.785156 -15.359375 22.734375 -15.359375 L 22.640625 -15.359375 L 22.640625 -15.828125 C 22.722656 -16.160156 22.863281 -16.640625 23.0625 -17.265625 L 22.6875 -17.359375 C 22.738281 -17.609375 22.953125 -17.863281 23.328125 -18.125 C 23.410156 -19.320312 23.285156 -19.921875 22.953125 -19.921875 C 22.972656 -20.035156 22.742188 -20.789062 22.265625 -22.1875 C 22.367188 -22.601562 22.28125 -22.894531 22 -23.0625 C 20.207031 -22.925781 18.898438 -22.671875 18.078125 -22.296875 C 16.453125 -21.453125 15.375 -20.726562 14.84375 -20.125 C 14.039062 -19.039062 13.597656 -18.273438 13.515625 -17.828125 L 13.484375 -17.734375 C 13.515625 -17.285156 13.523438 -17.035156 13.515625 -16.984375 C 13.253906 -16.316406 13.097656 -15.875 13.046875 -15.65625 C 13.296875 -15.65625 13.328125 -15.242188 13.140625 -14.421875 C 13.617188 -13.816406 13.882812 -13.085938 13.9375 -12.234375 C 14.394531 -11.953125 14.613281 -11.757812 14.59375 -11.65625 L 14.578125 -11.5625 L 14.328125 -10.90625 C 14.722656 -10.394531 15.390625 -9.789062 16.328125 -9.09375 C 18.578125 -4.988281 19.660156 -2.710938 19.578125 -2.265625 C 20.035156 -0.265625 20.066406 1.664062 19.671875 3.53125 C 19.265625 5.445312 18.28125 6.773438 16.71875 7.515625 C 16.382812 7.765625 15.71875 8.65625 14.71875 10.1875 C 13.34375 11.5625 11.859375 12.25 10.265625 12.25 C 9.640625 12.644531 9.085938 12.84375 8.609375 12.84375 C 8.078125 12.78125 7.640625 12.75 7.296875 12.75 L 6.4375 12.75 L 4.515625 13.21875 L 4.40625 13.21875 C 4.0625 12.84375 3.691406 12.65625 3.296875 12.65625 L 1.90625 12.921875 C -0.238281 12.753906 -1.226562 12.285156 -1.0625 11.515625 C -1.007812 11.253906 -1.597656 10.898438 -2.828125 10.453125 L -3.125 10.453125 C -3.257812 10.453125 -3.394531 10.484375 -3.53125 10.546875 C -4.21875 10.234375 -4.789062 9.515625 -5.25 8.390625 L -5.0625 7.71875 L -5 7.515625 C -4.988281 7.429688 -5.023438 6.863281 -5.109375 5.8125 L -5.0625 5.53125 L -4.65625 5.53125 C -4.6875 5.769531 -4.625 5.890625 -4.46875 5.890625 L -4.234375 5.8125 C -4.023438 4.832031 -3.929688 3.3125 -3.953125 1.25 C -3.847656 1.125 -3.785156 1.03125 -3.765625 0.96875 L -3.59375 0.96875 C -3.519531 0.96875 -3.429688 1.441406 -3.328125 2.390625 L -3.234375 2.390625 L -3.234375 1.921875 L -3.0625 1.15625 L -2.890625 1.15625 C -2.585938 2.289062 -2.390625 2.859375 -2.296875 2.859375 L -2.265625 2.765625 C -2.171875 1.117188 -2.082031 0.109375 -2 -0.265625 C -1.664062 -1.816406 -0.71875 -4.003906 0.84375 -6.828125 L 1.140625 -6.828125 L 1.28125 -6.734375 C 1.226562 -6.472656 0.585938 -4.921875 -0.640625 -2.078125 C -0.773438 -1.796875 -0.90625 -1.316406 -1.03125 -0.640625 C -1.25 0.347656 -0.921875 1.925781 -0.046875 4.09375 C 0.0664062 4.238281 0.539062 4.523438 1.375 4.953125 C 1.539062 5.460938 1.8125 5.71875 2.1875 5.71875 L 2.65625 5.71875 L 2.5625 6.1875 L 2.421875 6.390625 C 3.003906 6.828125 3.660156 7.046875 4.390625 7.046875 L 4.484375 7.046875 L 4.515625 6.953125 C 4.140625 6.890625 3.875 6.632812 3.71875 6.1875 L 3.71875 6.09375 C 3.769531 5.957031 3.851562 5.890625 3.96875 5.890625 C 4.738281 6.285156 5.207031 6.484375 5.375 6.484375 C 5.75 6.597656 6.429688 6.6875 7.421875 6.75 L 7.640625 6.65625 C 7.710938 6.65625 7.738281 6.6875 7.71875 6.75 C 9.601562 6.75 10.742188 6.4375 11.140625 5.8125 C 11.796875 5.425781 12.222656 4.765625 12.421875 3.828125 L 12.59375 3.0625 C 12.644531 2.757812 12.703125 2.0625 12.765625 0.96875 C 12.984375 0.488281 13.160156 0.234375 13.296875 0.203125 C 13.242188 -0.753906 12.421875 -2.242188 10.828125 -4.265625 C 10.628906 -4.265625 10.53125 -4.289062 10.53125 -4.34375 C 10.25 -4.34375 9.867188 -3.898438 9.390625 -3.015625 L 9.296875 -3.015625 C 9.160156 -3.398438 9.046875 -3.59375 8.953125 -3.59375 L 8.859375 -3.59375 C 8.660156 -3.164062 8.351562 -2.367188 7.9375 -1.203125 L 7.5625 -1.203125 C 7.5 -1.484375 7.582031 -2.472656 7.8125 -4.171875 C 7.238281 -4.710938 6.984375 -5.15625 7.046875 -5.5 L 7.71875 -5.96875 C 7.78125 -6.25 7.425781 -6.816406 6.65625 -7.671875 C 6.457031 -9.953125 6.097656 -11.09375 5.578125 -11.09375 C 5.359375 -11.550781 5.289062 -11.992188 5.375 -12.421875 C 5.488281 -12.421875 5.5625 -12.476562 5.59375 -12.59375 L 5.59375 -12.703125 C 5.582031 -13.179688 5.40625 -13.78125 5.0625 -14.5 C 5.007812 -15.519531 5.03125 -16.25 5.125 -16.6875 C 5.914062 -19.21875 6.507812 -20.484375 6.90625 -20.484375 C 7.101562 -20.671875 7.363281 -21.207031 7.6875 -22.09375 C 8.050781 -22.519531 8.300781 -23.03125 8.4375 -23.625 L 8.5625 -24.28125 C 10.3125 -26.0625 11.550781 -26.953125 12.28125 -26.953125 C 12.425781 -26.953125 13.125 -27.265625 14.375 -27.890625 C 14.707031 -27.890625 14.875 -27.863281 14.875 -27.8125 L 14.796875 -27.515625 C 14.691406 -27.515625 14.578125 -27.414062 14.453125 -27.21875 C 14.429688 -27.101562 14.476562 -27.046875 14.59375 -27.046875 L 14.890625 -27.046875 C 17.179688 -28.628906 19.140625 -29.421875 20.765625 -29.421875 Z M 16.515625 -21.71875 L 16.28125 -21.453125 L 16.375 -21.453125 L 16.625 -21.71875 Z M 25.640625 -16.5 C 26.117188 -16.3125 26.316406 -16.03125 26.234375 -15.65625 C 26.054688 -15.363281 25.898438 -15.203125 25.765625 -15.171875 L 25.109375 -15.171875 L 25.109375 -15.65625 L 25.203125 -16.125 C 25.210938 -16.1875 25.359375 -16.3125 25.640625 -16.5 Z M 22.890625 -14.328125 L 23.078125 -14.328125 C 23.160156 -14.328125 23.234375 -14.226562 23.296875 -14.03125 C 23.285156 -13.925781 23.140625 -13.800781 22.859375 -13.65625 L 22.765625 -13.65625 C 22.660156 -13.65625 22.578125 -13.75 22.515625 -13.9375 L 22.53125 -14.03125 C 22.550781 -14.125 22.671875 -14.222656 22.890625 -14.328125 Z M 7.03125 -7.671875 L 7 -7.5625 L 7.203125 -7.5625 L 7.21875 -7.671875 Z M 10.609375 -2.828125 C 11.128906 -2.828125 11.332031 -2.476562 11.21875 -1.78125 C 10.957031 -1.59375 10.71875 -1.5 10.5 -1.5 L 10.328125 -1.5 C 10.148438 -1.5 10.078125 -1.789062 10.109375 -2.375 C 10.128906 -2.445312 10.296875 -2.597656 10.609375 -2.828125 Z M 8.265625 -0.375 C 8.492188 -0.269531 8.597656 -0.171875 8.578125 -0.078125 L 8.484375 0.296875 L 7.8125 0.296875 L 7.9375 -0.265625 C 8 -0.265625 8.109375 -0.300781 8.265625 -0.375 Z M -2.984375 2.09375 L -3.03125 2.296875 L -2.9375 2.296875 L -2.890625 2.09375 Z M -3.203125 3.15625 L -3.28125 3.421875 C -3.175781 5.066406 -2.835938 5.890625 -2.265625 5.890625 L -2.25 5.8125 C -2.800781 5.039062 -3.085938 4.15625 -3.109375 3.15625 Z M -3.203125 3.15625"/></g><g id="g"><path d="M 19.40625 -31.046875 L 20.09375 -31.046875 L 20.09375 -30.65625 C 19.976562 -30.382812 19.722656 -30.25 19.328125 -30.25 L 19.234375 -30.75 C 19.328125 -30.882812 19.382812 -30.984375 19.40625 -31.046875 Z M 12.953125 -29.953125 C 13.453125 -29.953125 14.113281 -29.691406 14.9375 -29.171875 C 15.757812 -29.109375 16.253906 -29.078125 16.421875 -29.078125 L 18.859375 -29.46875 L 19.15625 -29.46875 C 19.09375 -29.164062 19.242188 -28.9375 19.609375 -28.78125 C 20.347656 -29.101562 21.628906 -29.265625 23.453125 -29.265625 L 23.9375 -29.265625 C 24.925781 -29.265625 25.5625 -28.96875 25.84375 -28.375 C 26.070312 -28.25 26.285156 -28.1875 26.484375 -28.1875 C 27.648438 -28.1875 28.503906 -28.484375 29.046875 -29.078125 C 29.179688 -29.078125 29.25 -29.109375 29.25 -29.171875 C 31.101562 -29.171875 32.242188 -28.804688 32.671875 -28.078125 C 32.648438 -27.960938 33.414062 -27.832031 34.96875 -27.6875 L 35.015625 -27.5 L 34.984375 -27.390625 C 34.953125 -27.234375 34.660156 -27.070312 34.109375 -26.90625 L 34.078125 -26.796875 C 34.046875 -26.648438 35.039062 -26.390625 37.0625 -26.015625 C 37.570312 -25.765625 38.457031 -25.597656 39.71875 -25.515625 L 39.84375 -25.21875 C 39.332031 -25.019531 38.757812 -24.921875 38.125 -24.921875 L 34.921875 -25.21875 C 33.441406 -25.21875 32.492188 -24.925781 32.078125 -24.34375 C 32.066406 -24.269531 32.023438 -24.234375 31.953125 -24.234375 L 30.578125 -24.234375 C 29.671875 -23.972656 29.1875 -23.84375 29.125 -23.84375 L 29.09375 -23.34375 L 29.078125 -23.25 C 29.023438 -23.25 28.757812 -23.21875 28.28125 -23.15625 C 25.457031 -23.21875 23.71875 -23.25 23.0625 -23.25 C 22.582031 -23.132812 22.304688 -22.9375 22.234375 -22.65625 L 21.953125 -22.65625 C 21.390625 -22.65625 20.507812 -22.691406 19.3125 -22.765625 L 19.0625 -22.0625 C 19.15625 -21.601562 19.195312 -21.34375 19.1875 -21.28125 C 18.164062 -18.582031 17.3125 -17.003906 16.625 -16.546875 C 15.664062 -15.523438 15.0625 -14.40625 14.8125 -13.1875 L 14.234375 -11.3125 C 14.691406 -10.59375 15.53125 -10.234375 16.75 -10.234375 C 17.351562 -10.234375 17.898438 -10.492188 18.390625 -11.015625 L 18.6875 -11.015625 C 19.101562 -11.015625 19.601562 -10.914062 20.1875 -10.71875 L 20.8125 -10.828125 L 21.109375 -10.828125 C 21.484375 -10.035156 22.382812 -9.640625 23.8125 -9.640625 L 23.875 -9.4375 L 23.8125 -9.140625 C 23.539062 -9.140625 23.3125 -8.976562 23.125 -8.65625 C 24.882812 -8.195312 26.753906 -7.867188 28.734375 -7.671875 L 28.78125 -7.46875 C 28.75 -7.289062 28.394531 -7.160156 27.71875 -7.078125 C 27.125 -7.078125 25.863281 -7.175781 23.9375 -7.375 C 23.726562 -7.375 23.441406 -7.273438 23.078125 -7.078125 L 22.1875 -7.078125 C 21.90625 -7.078125 21.53125 -6.847656 21.0625 -6.390625 L 20.078125 -6.390625 C 19.765625 -6.390625 19.1875 -6.289062 18.34375 -6.09375 L 18.328125 -5.984375 L 18.4375 -5.703125 L 18.421875 -5.59375 C 18.398438 -5.46875 18.328125 -5.40625 18.203125 -5.40625 C 15.734375 -5.46875 14.21875 -5.5 13.65625 -5.5 C 13.445312 -5.039062 12.90625 -4.8125 12.03125 -4.8125 C 12.019531 -4.726562 11.296875 -4.398438 9.859375 -3.828125 L 8.0625 -0.96875 C 7.613281 -0.519531 7.078125 -0.15625 6.453125 0.125 C 5.847656 1.144531 5.488281 1.898438 5.375 2.390625 L 5.328125 2.6875 L 5.796875 2.78125 L 6.28125 2.78125 C 7.269531 2.195312 8.390625 1.90625 9.640625 1.90625 C 10.085938 2.28125 10.300781 2.507812 10.28125 2.59375 C 13.75 1.800781 15.640625 1.40625 15.953125 1.40625 L 16.15625 1.40625 C 16.863281 1.40625 17.410156 1.4375 17.796875 1.5 C 18.296875 1.4375 18.898438 1.40625 19.609375 1.40625 L 20.09375 1.40625 C 20.40625 1.40625 21.03125 1.703125 21.96875 2.296875 L 22.265625 2.296875 C 23.847656 2.296875 25.113281 1.929688 26.0625 1.203125 L 26.265625 1.203125 C 29.003906 1.203125 30.484375 1.5 30.703125 2.09375 C 30.648438 2.351562 31.660156 2.550781 33.734375 2.6875 L 33.78125 2.890625 L 33.75 2.984375 L 32.875 3.484375 L 32.71875 3.671875 L 32.890625 3.765625 C 33.710938 3.765625 35.40625 4.03125 37.96875 4.5625 C 38.894531 4.5625 39.332031 4.660156 39.28125 4.859375 L 39.25 4.953125 C 39.21875 5.148438 38.773438 5.25 37.921875 5.25 L 35.265625 5.25 C 34.734375 5.25 34.050781 5.21875 33.21875 5.15625 C 32.96875 5.28125 32.753906 5.34375 32.578125 5.34375 L 31.6875 5.34375 C 31.144531 5.34375 30.664062 5.578125 30.25 6.046875 C 30.007812 6.171875 29.796875 6.234375 29.609375 6.234375 C 28.804688 6.171875 28.390625 6.140625 28.359375 6.140625 C 27.367188 6.335938 26.710938 6.503906 26.390625 6.640625 C 26.460938 6.847656 26.484375 7.039062 26.453125 7.21875 L 25.515625 7.421875 C 25.085938 7.421875 24.539062 7.390625 23.875 7.328125 C 19.613281 7.554688 17.46875 7.753906 17.4375 7.921875 C 17.363281 8.179688 17.265625 8.3125 17.140625 8.3125 L 10.234375 8.796875 C 8.335938 9.046875 7.359375 9.3125 7.296875 9.59375 C 7.171875 9.6875 6.5 9.785156 5.28125 9.890625 C 5.082031 10.085938 4.828125 10.1875 4.515625 10.1875 L 4.40625 10.1875 C 4.175781 10.1875 3.890625 10.148438 3.546875 10.078125 C 2.015625 10.804688 0.628906 11.171875 -0.609375 11.171875 C -0.535156 10.773438 -0.726562 10.578125 -1.1875 10.578125 C -1.28125 11.023438 -2.332031 12.40625 -4.34375 14.71875 C -4.894531 15.707031 -5.265625 16.203125 -5.453125 16.203125 L -5.640625 16.203125 L -5.625 16.109375 C -5.4375 15.234375 -4.582031 13.6875 -3.0625 11.46875 C -2.675781 10.613281 -2.453125 10.054688 -2.390625 9.796875 C -4.628906 9.171875 -5.695312 8.609375 -5.59375 8.109375 L -5.421875 7.328125 L -5.234375 6.828125 C -6.285156 6.566406 -6.785156 6.304688 -6.734375 6.046875 C -6.054688 5.679688 -5.710938 5.445312 -5.703125 5.34375 L -5.671875 5.25 C -6.179688 5.070312 -7.09375 4.875 -8.40625 4.65625 L -8.5625 4.359375 L -8.5 4.171875 C -7.875 4.035156 -7.289062 3.9375 -6.75 3.875 C -6.425781 3.9375 -6.238281 3.96875 -6.1875 3.96875 C -4.8125 3.96875 -2.875 3.507812 -0.375 2.59375 C -0.34375 2.394531 0.234375 1.375 1.359375 -0.46875 C 1.648438 -1.1875 2.335938 -2.4375 3.421875 -4.21875 L 3.453125 -4.3125 C 3.484375 -4.425781 3.453125 -4.722656 3.359375 -5.203125 C 3.390625 -5.335938 3.550781 -5.664062 3.84375 -6.1875 C 3.5625 -6.1875 3.34375 -6.84375 3.1875 -8.15625 L 2.6875 -8.15625 C 2.59375 -8.15625 2.519531 -8.253906 2.46875 -8.453125 L 2.515625 -8.75 C 2.773438 -8.75 2.957031 -8.945312 3.0625 -9.34375 C 2.363281 -9.476562 1.613281 -9.546875 0.8125 -9.546875 L 0.609375 -9.546875 C 0.484375 -9.546875 0.4375 -9.609375 0.46875 -9.734375 L 0.5 -9.84375 C 0.539062 -10.070312 1.257812 -10.234375 2.65625 -10.328125 C 4.125 -10.742188 4.875 -11.007812 4.90625 -11.125 C 4.65625 -11.1875 4.566406 -11.382812 4.640625 -11.71875 L 5.34375 -11.8125 C 5.90625 -11.675781 6.316406 -11.609375 6.578125 -11.609375 C 7.109375 -11.609375 7.660156 -12.957031 8.234375 -15.65625 C 9.117188 -17.082031 9.628906 -18.101562 9.765625 -18.71875 L 10.0625 -20.09375 C 10.175781 -20.625 10.628906 -21.179688 11.421875 -21.765625 C 10.410156 -22.441406 9.769531 -23.003906 9.5 -23.453125 C 9.5 -23.546875 8.945312 -23.90625 7.84375 -24.53125 C 7.707031 -24.78125 7.65625 -25.007812 7.6875 -25.21875 L 7.8125 -25.71875 L 8.0625 -26.40625 C 7.664062 -26.40625 7.351562 -26.632812 7.125 -27.09375 L 7.15625 -27.296875 C 7.707031 -27.410156 8 -27.539062 8.03125 -27.6875 C 7.789062 -27.945312 6.960938 -28.210938 5.546875 -28.484375 L 5.53125 -28.875 C 5.800781 -29.007812 6.078125 -29.078125 6.359375 -29.078125 L 9.21875 -29.078125 C 11.457031 -29.660156 12.703125 -29.953125 12.953125 -29.953125 Z M 3.578125 -28.484375 L 3.96875 -28.484375 C 4.144531 -28.410156 4.195312 -28.210938 4.125 -27.890625 L 4.125 -27.796875 L 3.578125 -27.59375 C 3.328125 -27.65625 3.234375 -27.851562 3.296875 -28.1875 C 3.429688 -28.1875 3.523438 -28.285156 3.578125 -28.484375 Z M 5.328125 -26.109375 C 6.046875 -26.109375 6.347656 -25.847656 6.234375 -25.328125 C 5.835938 -24.867188 5.425781 -24.640625 5 -24.640625 C 4.707031 -24.734375 4.59375 -24.960938 4.65625 -25.328125 L 4.765625 -25.71875 C 4.773438 -25.8125 4.960938 -25.941406 5.328125 -26.109375 Z M 17.3125 -18.03125 L 17.28125 -17.828125 C 17.414062 -17.828125 17.488281 -17.894531 17.5 -18.03125 Z M 2.609375 -11.515625 L 3.109375 -11.515625 L 3.203125 -11.015625 C 3.085938 -10.753906 2.867188 -10.625 2.546875 -10.625 L 2.3125 -11.015625 L 2.34375 -11.125 C 2.507812 -11.289062 2.597656 -11.421875 2.609375 -11.515625 Z M -1.109375 -9.25 C -0.878906 -9.144531 -0.773438 -9.046875 -0.796875 -8.953125 L -0.890625 -8.453125 C -1.128906 -8.390625 -1.269531 -8.359375 -1.3125 -8.359375 C -1.550781 -8.453125 -1.65625 -8.550781 -1.625 -8.65625 L -1.578125 -8.953125 C -1.546875 -9.117188 -1.390625 -9.21875 -1.109375 -9.25 Z M 1.234375 -7.28125 C 1.691406 -7.28125 1.878906 -7.082031 1.796875 -6.6875 L 1.75 -6.484375 C 1.5 -6.085938 1.195312 -5.890625 0.84375 -5.890625 L 0.4375 -5.890625 C 0.320312 -5.890625 0.234375 -6.085938 0.171875 -6.484375 C 0.398438 -7.015625 0.753906 -7.28125 1.234375 -7.28125 Z M -10.609375 4.765625 L -10.203125 4.765625 C -10.023438 4.828125 -9.96875 5.019531 -10.03125 5.34375 L -10.078125 5.546875 L -10.609375 5.640625 L -10.703125 5.640625 C -10.796875 5.640625 -10.863281 5.507812 -10.90625 5.25 C -10.738281 5.039062 -10.640625 4.878906 -10.609375 4.765625 Z M -8.65625 7.21875 L -8.359375 7.21875 C -7.703125 7.21875 -7.414062 7.414062 -7.5 7.8125 C -7.925781 8.46875 -8.359375 8.796875 -8.796875 8.796875 C -9.148438 8.796875 -9.316406 8.503906 -9.296875 7.921875 C -9.117188 7.523438 -8.90625 7.289062 -8.65625 7.21875 Z M -8.65625 7.21875"/></g><g id="h"><path d="M 14.6875 -14.90625 L 14.796875 -14.90625 C 14.835938 -14.90625 14.878906 -14.851562 14.921875 -14.75 L 14.890625 -14.640625 C 14.859375 -14.640625 14.800781 -14.613281 14.71875 -14.5625 L 14.609375 -14.5625 C 14.628906 -14.664062 14.613281 -14.71875 14.5625 -14.71875 C 14.632812 -14.800781 14.675781 -14.863281 14.6875 -14.90625 Z M 13.25 -14.375 L 13.375 -14.375 C 13.570312 -14.375 13.675781 -14.320312 13.6875 -14.21875 L 13.65625 -14.09375 C 13.601562 -13.863281 13.476562 -13.75 13.28125 -13.75 L 13.1875 -13.75 C 13.101562 -13.9375 13.070312 -14.066406 13.09375 -14.140625 C 13.1875 -14.253906 13.238281 -14.332031 13.25 -14.375 Z M 14.71875 -14.015625 C 14.769531 -14.015625 14.789062 -13.988281 14.78125 -13.9375 L 14.75 -13.796875 C 14.5 -13.347656 14.300781 -12.765625 14.15625 -12.046875 L 14.015625 -11.390625 C 14.097656 -11.304688 14.132812 -11.226562 14.125 -11.15625 C 14.113281 -11.144531 14.023438 -10.992188 13.859375 -10.703125 L 13.8125 -10.5 C 13.75 -10.1875 13.554688 -9.566406 13.234375 -8.640625 C 13.179688 -8.285156 13.128906 -7.976562 13.078125 -7.71875 C 13.023438 -7.457031 12.445312 -6.554688 11.34375 -5.015625 L 11.265625 -4.703125 L 11.265625 -4.46875 C 11.015625 -3.769531 10.800781 -3.421875 10.625 -3.421875 C 10.414062 -3.328125 10.289062 -3.1875 10.25 -3 L 10.484375 -3 C 10.585938 -3 10.617188 -2.894531 10.578125 -2.6875 L 10.796875 -2.6875 C 10.816406 -2.519531 10.820312 -2.40625 10.8125 -2.34375 L 10.78125 -2.21875 C 10.601562 -2.164062 10.484375 -2.140625 10.421875 -2.140625 L 10.234375 -2.140625 C 10.234375 -2.179688 10.21875 -2.234375 10.1875 -2.296875 L 10.203125 -2.421875 L 10.265625 -2.5 L 10.140625 -2.5 C 10.078125 -2.5 9.960938 -2.253906 9.796875 -1.765625 C 9.984375 -1.765625 10.140625 -1.648438 10.265625 -1.421875 C 10.253906 -1.367188 10.117188 -1.34375 9.859375 -1.34375 L 9.859375 -1.296875 C 10.066406 -1.296875 10.351562 -1.269531 10.71875 -1.21875 L 10.703125 -1.09375 C 10.679688 -1.007812 10.234375 -0.894531 9.359375 -0.75 C 9.109375 -0.414062 8.78125 0.148438 8.375 0.953125 C 7.78125 1.398438 7.457031 1.75 7.40625 2 C 7.226562 2.46875 7.125 2.734375 7.09375 2.796875 C 7.125 2.984375 7.132812 3.164062 7.125 3.34375 L 6.40625 4.578125 C 6.320312 4.929688 6.101562 5.164062 5.75 5.28125 C 5.632812 5.351562 5.410156 5.738281 5.078125 6.4375 C 4.898438 6.644531 4.785156 6.75 4.734375 6.75 C 4.660156 6.75 4.660156 6.582031 4.734375 6.25 C 4.546875 6.269531 4.425781 6.410156 4.375 6.671875 L 3.109375 8.609375 C 2.972656 9.015625 2.8125 9.21875 2.625 9.21875 L 2.609375 9.15625 L 2.609375 9.109375 C 2.890625 8.410156 3.289062 7.570312 3.8125 6.59375 C 3.8125 6.445312 3.820312 6.332031 3.84375 6.25 C 4.019531 5.863281 4.117188 5.65625 4.140625 5.625 L 4.140625 5.546875 C 4.160156 5.472656 4.148438 5.296875 4.109375 5.015625 L 4.109375 4.96875 C 4.535156 3.9375 4.757812 3.367188 4.78125 3.265625 L 4.75 3.265625 L 4.609375 3.34375 L 4.53125 3.34375 C 4.476562 3.34375 4.457031 3.316406 4.46875 3.265625 C 4.71875 2.710938 5.269531 1.65625 6.125 0.09375 C 6.21875 0.0195312 6.289062 -0.144531 6.34375 -0.40625 L 6.359375 -0.484375 C 6.378906 -0.691406 6.296875 -0.796875 6.109375 -0.796875 C 5.859375 -0.660156 5.613281 -0.59375 5.375 -0.59375 L 5.21875 -0.59375 C 5.175781 -0.800781 5.082031 -0.90625 4.9375 -0.90625 L 4.15625 -0.71875 L 4.015625 -0.71875 C 3.941406 -0.71875 3.734375 -0.78125 3.390625 -0.90625 C 3.335938 -0.664062 3.148438 -0.320312 2.828125 0.125 C 2.265625 1.238281 1.863281 1.796875 1.625 1.796875 C 1.425781 1.929688 1.21875 2.28125 1 2.84375 C 0.945312 2.988281 0.90625 3.128906 0.875 3.265625 C 0.90625 3.515625 0.910156 3.679688 0.890625 3.765625 C 0.453125 4.472656 0.222656 4.898438 0.203125 5.046875 C 0.015625 5.460938 -0.1875 5.671875 -0.40625 5.671875 C -0.519531 5.765625 -0.71875 6.148438 -1 6.828125 C -1.195312 7.003906 -1.304688 7.09375 -1.328125 7.09375 L -1.375 7.09375 L -1.34375 6.828125 L -1.3125 6.640625 L -1.453125 6.640625 C -1.535156 6.972656 -2.019531 7.601562 -2.90625 8.53125 C -3.113281 8.914062 -3.296875 9.109375 -3.453125 9.109375 L -3.453125 9.078125 C -3.378906 8.753906 -2.992188 8.171875 -2.296875 7.328125 C -2.253906 7.203125 -2.09375 6.6875 -1.8125 5.78125 C -1.90625 5.601562 -1.945312 5.472656 -1.9375 5.390625 C -1.707031 4.960938 -1.5625 4.585938 -1.5 4.265625 C -1.40625 3.941406 -1.359375 3.773438 -1.359375 3.765625 L -1.390625 3.765625 C -1.472656 3.816406 -1.519531 3.84375 -1.53125 3.84375 L -1.5625 3.84375 L -1.640625 3.8125 C -0.898438 2.164062 -0.28125 0.96875 0.21875 0.21875 L 0.265625 -0.015625 C 0.285156 -0.109375 0.265625 -0.203125 0.203125 -0.296875 C 0.523438 -0.953125 0.691406 -1.300781 0.703125 -1.34375 C 0.109375 -1.488281 -0.171875 -1.613281 -0.140625 -1.71875 L -0.140625 -1.765625 C 0.078125 -1.828125 0.195312 -1.90625 0.21875 -2 L -1.296875 -2.71875 C -1.640625 -2.71875 -1.804688 -2.820312 -1.796875 -3.03125 L -1.71875 -3.078125 C -1.164062 -2.953125 -0.859375 -2.890625 -0.796875 -2.890625 C -0.722656 -3.015625 -0.617188 -3.078125 -0.484375 -3.078125 L -0.4375 -3.078125 C -0.226562 -3.078125 -0.144531 -3 -0.1875 -2.84375 C -0.21875 -2.6875 -0.101562 -2.609375 0.15625 -2.609375 L 0.28125 -2.609375 C 0.332031 -2.609375 0.414062 -2.773438 0.53125 -3.109375 C 0.289062 -3.179688 0.1875 -3.300781 0.21875 -3.46875 C 0.40625 -3.507812 0.503906 -3.554688 0.515625 -3.609375 C 0.503906 -3.660156 0.242188 -3.804688 -0.265625 -4.046875 L -0.328125 -4.15625 C -0.234375 -4.207031 -0.148438 -4.234375 -0.078125 -4.234375 C 0.472656 -4.160156 0.878906 -4.125 1.140625 -4.125 L 1.484375 -4.125 C 1.816406 -4.25 2.035156 -4.3125 2.140625 -4.3125 L 2.140625 -4.265625 C 2.210938 -4.285156 2.285156 -4.34375 2.359375 -4.4375 L 2.359375 -4.625 C 2.390625 -4.738281 2.5625 -5.0625 2.875 -5.59375 C 2.914062 -5.78125 3.039062 -6 3.25 -6.25 C 3.4375 -7.113281 3.851562 -7.734375 4.5 -8.109375 C 4.757812 -8.316406 5.191406 -8.78125 5.796875 -9.5 C 5.816406 -9.5 5.898438 -9.523438 6.046875 -9.578125 C 6.253906 -9.492188 6.414062 -9.453125 6.53125 -9.453125 C 6.675781 -9.785156 6.847656 -9.953125 7.046875 -9.953125 C 7.046875 -9.710938 7.039062 -9.5625 7.03125 -9.5 L 7.0625 -9.5 C 7.507812 -10.21875 7.820312 -10.578125 8 -10.578125 L 8.015625 -10.5 L 8 -10.375 C 7.613281 -9.53125 7.304688 -8.757812 7.078125 -8.0625 C 7.046875 -7.695312 7.015625 -7.4375 6.984375 -7.28125 L 6.953125 -7.09375 C 6.890625 -6.84375 6.453125 -6.175781 5.640625 -5.09375 C 5.296875 -4.601562 5.078125 -4.125 4.984375 -3.65625 C 5.378906 -3.65625 5.695312 -3.769531 5.9375 -4 C 6.863281 -3.945312 7.3125 -3.859375 7.28125 -3.734375 L 7.3125 -3.734375 C 7.363281 -3.960938 7.503906 -4.078125 7.734375 -4.078125 C 7.992188 -4.078125 8.144531 -4.179688 8.1875 -4.390625 C 8.195312 -4.429688 8.238281 -4.507812 8.3125 -4.625 C 8.320312 -4.800781 8.34375 -4.941406 8.375 -5.046875 L 8.40625 -5.234375 C 8.414062 -5.265625 8.503906 -5.429688 8.671875 -5.734375 L 8.609375 -5.859375 L 8.640625 -5.984375 C 9.035156 -6.765625 9.257812 -7.28125 9.3125 -7.53125 L 9.09375 -7.53125 C 9.101562 -7.59375 9.09375 -7.664062 9.0625 -7.75 C 9.175781 -8.289062 9.363281 -8.5625 9.625 -8.5625 C 9.957031 -8.789062 10.179688 -9.191406 10.296875 -9.765625 C 10.265625 -9.847656 10.257812 -9.925781 10.28125 -10 L 10.28125 -10.03125 L 10.703125 -10.953125 L 10.84375 -11.578125 C 10.882812 -11.804688 11.242188 -12.101562 11.921875 -12.46875 C 12.109375 -12.75 12.390625 -12.984375 12.765625 -13.171875 L 12.796875 -13.171875 C 12.984375 -13.171875 13.171875 -13.128906 13.359375 -13.046875 C 13.503906 -13.285156 13.65625 -13.40625 13.8125 -13.40625 C 13.8125 -13.257812 13.84375 -13.15625 13.90625 -13.09375 C 13.988281 -13.09375 14.117188 -13.269531 14.296875 -13.625 C 14.523438 -13.882812 14.664062 -14.015625 14.71875 -14.015625 Z M 7.953125 -11.46875 L 8.109375 -11.46875 C 8.097656 -11.414062 8.117188 -11.390625 8.171875 -11.390625 C 8.140625 -11.253906 8.066406 -11.164062 7.953125 -11.125 L 7.84375 -11.125 C 7.84375 -11.164062 7.828125 -11.21875 7.796875 -11.28125 L 7.8125 -11.34375 C 7.820312 -11.382812 7.867188 -11.425781 7.953125 -11.46875 Z M 6.609375 -10.953125 C 6.847656 -10.953125 6.941406 -10.851562 6.890625 -10.65625 C 6.816406 -10.425781 6.675781 -10.3125 6.46875 -10.3125 C 6.34375 -10.445312 6.300781 -10.597656 6.34375 -10.765625 C 6.476562 -10.890625 6.566406 -10.953125 6.609375 -10.953125 Z M 12.34375 -6.640625 L 12.328125 -6.5625 C 12.378906 -6.5625 12.410156 -6.585938 12.421875 -6.640625 Z M -1.03125 -4.125 L -0.875 -4.125 L -0.875 -3.921875 L -0.890625 -3.890625 C -0.898438 -3.835938 -0.929688 -3.8125 -0.984375 -3.8125 L -1.171875 -3.8125 C -1.160156 -3.863281 -1.164062 -3.914062 -1.1875 -3.96875 C -1.125 -4.070312 -1.070312 -4.125 -1.03125 -4.125 Z M 10.9375 -1.875 L 11.140625 -1.875 L 11.140625 -1.671875 L 11.125 -1.609375 L 10.921875 -1.5625 L 10.84375 -1.5625 L 10.84375 -1.796875 C 10.863281 -1.847656 10.894531 -1.875 10.9375 -1.875 Z M 11.359375 -1.671875 L 11.484375 -1.671875 C 11.554688 -1.671875 11.582031 -1.625 11.5625 -1.53125 C 11.550781 -1.488281 11.484375 -1.425781 11.359375 -1.34375 C 11.265625 -1.394531 11.210938 -1.441406 11.203125 -1.484375 L 11.21875 -1.5625 C 11.226562 -1.601562 11.273438 -1.640625 11.359375 -1.671875 Z M 4.671875 3.078125 L 4.65625 3.15625 L 4.703125 3.15625 L 4.71875 3.078125 Z M -1.4375 3.578125 L -1.453125 3.65625 L -1.40625 3.65625 L -1.390625 3.578125 Z M 4.796875 6.484375 L 4.78125 6.5625 L 4.859375 6.5625 L 4.875 6.484375 Z M -1.234375 6.859375 L -1.25 6.9375 L -1.21875 6.9375 L -1.203125 6.859375 Z M -1.234375 6.859375"/></g><g id="i"><path d="M 7.25 -10.328125 L 7.390625 -10.328125 C 7.535156 -10.160156 7.679688 -10.078125 7.828125 -10.078125 L 8.1875 -10.078125 C 8.363281 -10.078125 8.644531 -9.867188 9.03125 -9.453125 L 9.0625 -9.453125 C 9.226562 -9.492188 9.335938 -9.515625 9.390625 -9.515625 C 9.515625 -9.515625 9.597656 -9.457031 9.640625 -9.34375 C 9.628906 -9.289062 9.523438 -9.140625 9.328125 -8.890625 C 9.554688 -8.421875 9.648438 -8.078125 9.609375 -7.859375 L 9.59375 -7.796875 L 9.40625 -7.765625 L 9.34375 -7.765625 C 9.238281 -7.765625 9.148438 -7.785156 9.078125 -7.828125 C 8.953125 -7.796875 8.875 -7.726562 8.84375 -7.625 C 9.0625 -7.382812 9.238281 -7.265625 9.375 -7.265625 C 9.40625 -7.359375 9.453125 -7.40625 9.515625 -7.40625 L 9.71875 -7.40625 C 9.925781 -7.375 10.007812 -7.28125 9.96875 -7.125 C 9.96875 -7.082031 9.878906 -6.976562 9.703125 -6.8125 C 10.117188 -6.457031 10.207031 -5.71875 9.96875 -4.59375 C 10.082031 -4.363281 10.125 -4.1875 10.09375 -4.0625 C 9.84375 -3.5 9.632812 -2.953125 9.46875 -2.421875 C 9.332031 -2.234375 9.195312 -1.925781 9.0625 -1.5 L 9.3125 -1.671875 L 9.359375 -1.671875 L 9.34375 -1.640625 C 9.21875 -1.035156 8.488281 -0.0507812 7.15625 1.3125 C 6.09375 2.226562 5.285156 2.78125 4.734375 2.96875 C 3.742188 3.445312 3.148438 3.710938 2.953125 3.765625 C 2.753906 3.765625 2.644531 3.78125 2.625 3.8125 C 2.039062 3.8125 1.390625 3.5625 0.671875 3.0625 C -0.273438 2.164062 -0.566406 0.84375 -0.203125 -0.90625 L -0.171875 -1.078125 C -0.140625 -1.210938 -0.09375 -1.378906 -0.03125 -1.578125 L -0.015625 -1.609375 L -0.046875 -1.609375 C -0.296875 -1.117188 -0.445312 -0.875 -0.5 -0.875 L -0.53125 -0.96875 L -0.484375 -1.25 L 0.109375 -2.703125 C 0.273438 -3.265625 0.382812 -3.546875 0.4375 -3.546875 L 0.46875 -3.71875 C 0.382812 -3.894531 0.332031 -3.988281 0.3125 -4 C 0.675781 -4.71875 0.863281 -5.101562 0.875 -5.15625 L 0.703125 -5.15625 C 0.660156 -5.15625 0.640625 -5.179688 0.640625 -5.234375 L 0.65625 -5.265625 C 1.050781 -5.898438 1.539062 -6.5 2.125 -7.0625 C 2.476562 -7.28125 2.671875 -7.46875 2.703125 -7.625 L 2.703125 -7.765625 C 2.929688 -8.054688 3.378906 -8.40625 4.046875 -8.8125 C 4.242188 -9.019531 4.757812 -9.253906 5.59375 -9.515625 C 5.914062 -9.816406 6.421875 -9.96875 7.109375 -9.96875 L 7.140625 -10.15625 C 7.148438 -10.195312 7.191406 -10.21875 7.265625 -10.21875 L 7.265625 -10.25 Z M 8.46875 -7.265625 L 8.40625 -7.203125 L 8.6875 -6.84375 L 8.65625 -6.703125 C 8.570312 -6.679688 8.523438 -6.671875 8.515625 -6.671875 L 8.5 -6.640625 C 8.570312 -6.535156 8.59375 -6.414062 8.5625 -6.28125 L 8.53125 -6.109375 L 8.390625 -6.109375 C 8.210938 -6.453125 8.03125 -6.753906 7.84375 -7.015625 C 7.539062 -6.972656 7.335938 -6.953125 7.234375 -6.953125 C 7.171875 -6.953125 7.015625 -7.035156 6.765625 -7.203125 C 6.722656 -7.023438 6.3125 -6.539062 5.53125 -5.75 C 5.28125 -5.351562 4.828125 -4.910156 4.171875 -4.421875 C 3.523438 -3.703125 3.132812 -3.046875 3 -2.453125 C 2.769531 -1.535156 2.582031 -1.078125 2.4375 -1.078125 L 2.203125 -0.828125 C 2.222656 -0.742188 2.207031 -0.5 2.15625 -0.09375 C 2.28125 0.5625 2.503906 0.890625 2.828125 0.890625 C 3.035156 1.003906 3.253906 1.0625 3.484375 1.0625 C 3.566406 1.0625 3.984375 0.929688 4.734375 0.671875 C 5.097656 0.671875 5.382812 0.546875 5.59375 0.296875 C 5.882812 0.0976562 6.203125 -0.253906 6.546875 -0.765625 C 6.742188 -1.398438 6.925781 -1.8125 7.09375 -2 C 7.625 -2.738281 7.925781 -3.285156 8 -3.640625 C 8.09375 -3.804688 8.257812 -3.972656 8.5 -4.140625 C 8.632812 -4.335938 8.722656 -4.546875 8.765625 -4.765625 C 8.816406 -4.992188 8.863281 -5.382812 8.90625 -5.9375 C 8.945312 -5.976562 8.972656 -6.023438 8.984375 -6.078125 L 9.09375 -6.078125 C 9.113281 -6.078125 9.1875 -5.984375 9.3125 -5.796875 L 9.34375 -5.796875 C 9.382812 -5.796875 9.414062 -5.816406 9.4375 -5.859375 C 9.363281 -6.367188 9.113281 -6.816406 8.6875 -7.203125 C 8.625 -7.203125 8.550781 -7.222656 8.46875 -7.265625 Z M 4.828125 -5.1875 L 4.8125 -5.125 C 4.851562 -5.125 4.878906 -5.144531 4.890625 -5.1875 Z M 9.015625 -1.25 L 9 -1.1875 L 9.03125 -1.1875 L 9.046875 -1.25 Z M 9.015625 -1.25"/></g><g id="j"><path d="M 7.265625 -11.015625 L 7.359375 -11.015625 C 7.703125 -11.015625 8.050781 -10.988281 8.40625 -10.9375 L 8.484375 -10.984375 C 9.453125 -10.859375 10.113281 -10.765625 10.46875 -10.703125 C 11.414062 -10.441406 12.082031 -10.097656 12.46875 -9.671875 C 12.84375 -9.578125 13.019531 -9.484375 13 -9.390625 C 13.40625 -8.660156 13.535156 -7.957031 13.390625 -7.28125 L 13.359375 -7.109375 C 13.179688 -6.242188 12.515625 -5.316406 11.359375 -4.328125 C 11.066406 -4.085938 10.554688 -3.710938 9.828125 -3.203125 C 9.359375 -2.691406 8.898438 -2.363281 8.453125 -2.21875 C 7.878906 -1.78125 7.515625 -1.5625 7.359375 -1.5625 C 7.265625 -1.5625 6.878906 -1.347656 6.203125 -0.921875 L 6.171875 -0.921875 L 6.15625 -0.859375 C 7.03125 -0.660156 7.976562 -0.0976562 9 0.828125 C 9.113281 1.046875 9.164062 1.175781 9.15625 1.21875 C 9.101562 1.488281 9.476562 1.78125 10.28125 2.09375 C 10.53125 2.09375 10.707031 2.1875 10.8125 2.375 C 11.28125 2.914062 11.503906 3.234375 11.484375 3.328125 C 11.429688 3.609375 11.59375 3.867188 11.96875 4.109375 C 12.113281 4.285156 12.171875 4.445312 12.140625 4.59375 L 12.109375 4.59375 C 12.078125 4.59375 11.941406 4.546875 11.703125 4.453125 L 11.703125 4.53125 C 11.984375 4.875 12.285156 5.421875 12.609375 6.171875 C 12.765625 6.304688 12.832031 6.4375 12.8125 6.5625 L 12.796875 6.59375 L 12.6875 6.59375 C 12.4375 6.351562 12.054688 5.898438 11.546875 5.234375 C 11.242188 4.828125 10.863281 4.625 10.40625 4.625 C 9.914062 4.132812 9.59375 3.890625 9.4375 3.890625 L 9.421875 3.96875 C 9.410156 3.988281 9.421875 4 9.453125 4 C 9.410156 4.070312 9.378906 4.109375 9.359375 4.109375 C 9.191406 4.035156 9.015625 3.878906 8.828125 3.640625 C 7.953125 2.859375 7.351562 2.414062 7.03125 2.3125 L 6.765625 2.375 C 6.648438 2.375 6.179688 2.0625 5.359375 1.4375 C 5.054688 1.289062 4.609375 1.03125 4.015625 0.65625 C 3.734375 0.65625 3.484375 0.550781 3.265625 0.34375 L 3.234375 0.34375 C 3.203125 0.34375 3.078125 0.597656 2.859375 1.109375 C 2.648438 1.285156 2.382812 1.722656 2.0625 2.421875 L 1.078125 3.5 C 0.859375 3.90625 0.710938 4.28125 0.640625 4.625 L 0.65625 4.984375 L 0.65625 5.046875 C 0.632812 5.117188 0.421875 5.519531 0.015625 6.25 C -0.0546875 6.550781 -0.285156 6.84375 -0.671875 7.125 L -1.328125 8.390625 L -1.4375 8.390625 C -1.425781 8.160156 -1.414062 8.007812 -1.40625 7.9375 L -1.484375 7.9375 C -1.941406 8.800781 -2.375 9.46875 -2.78125 9.9375 C -2.820312 10.125 -2.941406 10.300781 -3.140625 10.46875 L -3.203125 10.46875 C -3.117188 10.0625 -2.769531 9.347656 -2.15625 8.328125 C -2.03125 7.953125 -1.925781 7.578125 -1.84375 7.203125 L -1.84375 7.15625 C -1.820312 7.101562 -1.847656 6.960938 -1.921875 6.734375 C -1.742188 6.429688 -1.550781 5.90625 -1.34375 5.15625 L -1.375 5.15625 C -1.414062 5.15625 -1.457031 5.191406 -1.5 5.265625 C -1.539062 5.242188 -1.570312 5.234375 -1.59375 5.234375 L -1.578125 5.125 L -0.859375 3.5 L 0.28125 1.328125 C 0.238281 1.140625 0.210938 1.046875 0.203125 1.046875 C 0.617188 0.171875 0.992188 -0.492188 1.328125 -0.953125 C 1.335938 -1.003906 1.359375 -1.050781 1.390625 -1.09375 C 1.085938 -1.238281 0.921875 -1.394531 0.890625 -1.5625 L 0.9375 -1.734375 C 1 -1.734375 1.066406 -1.789062 1.140625 -1.90625 C 1.179688 -2.0625 1.046875 -2.238281 0.734375 -2.4375 C 0.679688 -2.4375 0.640625 -2.484375 0.609375 -2.578125 L 0.640625 -2.6875 L 0.890625 -2.6875 L 0.890625 -2.71875 C 0.890625 -2.914062 0.785156 -3.09375 0.578125 -3.25 C 0.460938 -3.257812 0.425781 -3.351562 0.46875 -3.53125 L 0.5 -3.53125 C 0.601562 -3.53125 0.757812 -3.484375 0.96875 -3.390625 L 1.28125 -3.5625 C 1.15625 -3.863281 1.101562 -4.050781 1.125 -4.125 C 1.132812 -4.164062 1.160156 -4.1875 1.203125 -4.1875 C 1.359375 -4.125 1.46875 -4.09375 1.53125 -4.09375 L 1.546875 -4.125 C 1.566406 -4.207031 1.460938 -4.429688 1.234375 -4.796875 C 1.203125 -4.867188 1.191406 -4.9375 1.203125 -5 L 1.21875 -5.03125 C 1.226562 -5.082031 1.253906 -5.109375 1.296875 -5.109375 L 2.015625 -4.375 C 2.347656 -4.0625 2.585938 -3.90625 2.734375 -3.90625 L 2.734375 -3.953125 C 2.773438 -4.160156 2.929688 -4.441406 3.203125 -4.796875 L 3.25 -5 C 3.394531 -5.675781 3.664062 -6.132812 4.0625 -6.375 C 4.132812 -6.4375 4.273438 -6.613281 4.484375 -6.90625 C 4.648438 -6.90625 4.882812 -7.160156 5.1875 -7.671875 L 5.8125 -8.203125 C 6.070312 -8.128906 6.234375 -8.09375 6.296875 -8.09375 C 6.484375 -8.46875 6.648438 -8.65625 6.796875 -8.65625 L 6.828125 -8.59375 L 6.71875 -8.171875 C 6.851562 -8.171875 7.035156 -8.390625 7.265625 -8.828125 C 6.515625 -8.878906 6.070312 -8.914062 5.9375 -8.9375 C 5.707031 -8.914062 5.484375 -8.90625 5.265625 -8.90625 L 5.15625 -8.90625 C 4.539062 -9.113281 4.203125 -9.21875 4.140625 -9.21875 L 4 -9.21875 L 2.484375 -9.046875 C 2.441406 -9.046875 2.421875 -9.066406 2.421875 -9.109375 C 2.429688 -9.148438 2.617188 -9.242188 2.984375 -9.390625 L 3 -9.46875 C 2.925781 -9.46875 2.867188 -9.476562 2.828125 -9.5 C 2.566406 -9.40625 2.0625 -9.300781 1.3125 -9.1875 C 0.382812 -8.789062 -0.238281 -8.59375 -0.5625 -8.59375 L -0.59375 -8.65625 C -0.570312 -8.71875 0.09375 -9.035156 1.40625 -9.609375 C 2.257812 -9.890625 2.945312 -10.078125 3.46875 -10.171875 C 3.664062 -10.171875 4.019531 -10.300781 4.53125 -10.5625 C 4.570312 -10.582031 4.632812 -10.59375 4.71875 -10.59375 L 4.78125 -10.59375 C 5.28125 -10.59375 5.992188 -10.648438 6.921875 -10.765625 L 6.9375 -10.796875 C 6.84375 -10.796875 6.796875 -10.84375 6.796875 -10.9375 C 6.910156 -10.988281 7.066406 -11.015625 7.265625 -11.015625 Z M 7.140625 -10.90625 L 7.125 -10.875 C 7.144531 -10.875 7.175781 -10.863281 7.21875 -10.84375 L 7.234375 -10.875 L 7.171875 -10.90625 Z M 2.6875 -9.1875 L 2.6875 -9.15625 L 2.78125 -9.15625 L 2.796875 -9.1875 Z M 6.703125 -6.578125 C 6.691406 -6.523438 6.640625 -6.210938 6.546875 -5.640625 C 6.347656 -5.085938 6.007812 -4.546875 5.53125 -4.015625 C 5.40625 -3.859375 5.289062 -3.660156 5.1875 -3.421875 C 5.300781 -3.484375 5.671875 -3.550781 6.296875 -3.625 C 7.035156 -3.914062 7.679688 -4.269531 8.234375 -4.6875 C 8.703125 -5.195312 9.125 -5.453125 9.5 -5.453125 C 9.707031 -5.453125 10.035156 -5.6875 10.484375 -6.15625 C 10.765625 -6.5 10.941406 -6.84375 11.015625 -7.1875 L 11.03125 -7.21875 C 11.144531 -7.75 10.851562 -8.160156 10.15625 -8.453125 C 9.820312 -8.847656 9.429688 -9.046875 8.984375 -9.046875 L 8.078125 -9.046875 C 7.703125 -9.046875 7.457031 -8.785156 7.34375 -8.265625 C 7.21875 -7.984375 7.003906 -7.421875 6.703125 -6.578125 Z M 0.59375 -5.421875 L 0.796875 -5.421875 L 0.796875 -5.25 C 0.753906 -5.175781 0.675781 -5.140625 0.5625 -5.140625 C 0.519531 -5.140625 0.503906 -5.175781 0.515625 -5.25 Z M 6.03125 -4.859375 C 6.019531 -4.835938 6 -4.800781 5.96875 -4.75 L 6 -4.75 L 6.0625 -4.828125 L 6.0625 -4.859375 Z M 0.25 -4.296875 L 0.5 -4.296875 C 0.601562 -4.171875 0.644531 -4.054688 0.625 -3.953125 L 0.609375 -3.875 C 0.453125 -3.832031 0.34375 -3.8125 0.28125 -3.8125 L 0.109375 -3.8125 C 0.0664062 -3.976562 0.0546875 -4.082031 0.078125 -4.125 C 0.171875 -4.164062 0.226562 -4.222656 0.25 -4.296875 Z M -0.234375 -3.703125 L -0.09375 -3.703125 C -0.0625 -3.703125 -0.0351562 -3.664062 -0.015625 -3.59375 L -0.046875 -3.421875 L -0.234375 -3.390625 C -0.222656 -3.429688 -0.25 -3.453125 -0.3125 -3.453125 L -0.3125 -3.53125 Z M 5.359375 -3.390625 L 5.359375 -3.34375 L 5.453125 -3.34375 C 5.546875 -3.394531 5.625 -3.421875 5.6875 -3.421875 L 5.703125 -3.453125 L 5.625 -3.453125 C 5.539062 -3.410156 5.453125 -3.390625 5.359375 -3.390625 Z M -0.109375 -2.609375 C 0.078125 -2.523438 0.15625 -2.410156 0.125 -2.265625 L 0.125 -2.21875 C 0.113281 -2.164062 0.0078125 -2.117188 -0.1875 -2.078125 L -0.328125 -2.078125 C -0.367188 -2.078125 -0.40625 -2.125 -0.4375 -2.21875 L -0.40625 -2.40625 C -0.28125 -2.539062 -0.179688 -2.609375 -0.109375 -2.609375 Z M 11.96875 4.390625 L 11.953125 4.453125 L 12.03125 4.453125 L 12.046875 4.390625 Z M 11.96875 4.390625"/></g><g id="l"><path d="M 12.171875 -10.84375 L 12.21875 -10.84375 L 12.21875 -10.8125 C 12.1875 -10.632812 11.910156 -10.078125 11.390625 -9.140625 C 11.367188 -9.046875 11.300781 -8.820312 11.1875 -8.46875 C 11.207031 -8.46875 11.234375 -8.398438 11.265625 -8.265625 C 11.117188 -7.960938 11.007812 -7.6875 10.9375 -7.4375 L 10.953125 -7.4375 L 11.046875 -7.46875 C 11.078125 -7.445312 11.101562 -7.4375 11.125 -7.4375 L 11.09375 -7.34375 C 10.519531 -6.320312 10.207031 -5.695312 10.15625 -5.46875 C 10.1875 -5.46875 10.21875 -5.421875 10.25 -5.328125 L 10.234375 -5.265625 C 9.953125 -4.710938 9.78125 -4.28125 9.71875 -3.96875 C 9.695312 -3.71875 9.679688 -3.5625 9.671875 -3.5 C 9.546875 -3.164062 9.46875 -2.972656 9.4375 -2.921875 C 9.40625 -2.691406 9.378906 -2.515625 9.359375 -2.390625 L 9.3125 -2.1875 C 9.28125 -2.082031 9.0625 -1.859375 8.65625 -1.515625 C 8.539062 -1.015625 8.054688 0.109375 7.203125 1.859375 C 6.972656 2.222656 6.625 2.65625 6.15625 3.15625 C 5.9375 3.320312 5.644531 3.691406 5.28125 4.265625 C 4.84375 4.679688 4.140625 4.988281 3.171875 5.1875 L 2.8125 5.1875 C 1.382812 5.1875 0.460938 4.675781 0.046875 3.65625 C -0.347656 2.863281 -0.515625 2.0625 -0.453125 1.25 C -0.378906 0.875 -0.304688 0.582031 -0.234375 0.375 C -0.203125 0.101562 -0.1875 -0.0351562 -0.1875 -0.046875 C 0 -0.785156 0.148438 -1.429688 0.265625 -1.984375 C 0.441406 -2.835938 1.007812 -3.820312 1.96875 -4.9375 C 2.1875 -5.257812 2.429688 -5.710938 2.703125 -6.296875 C 2.710938 -6.453125 2.726562 -6.578125 2.75 -6.671875 L 2.78125 -6.765625 C 2.925781 -7.054688 3.015625 -7.269531 3.046875 -7.40625 C 3.109375 -7.425781 3.15625 -7.492188 3.1875 -7.609375 L 3.265625 -7.96875 C 3.316406 -8.238281 3.472656 -8.421875 3.734375 -8.515625 C 3.921875 -8.703125 4.160156 -8.84375 4.453125 -8.9375 C 4.722656 -9.226562 4.96875 -9.375 5.1875 -9.375 C 5.25 -9.300781 5.363281 -9.25 5.53125 -9.21875 C 5.613281 -9.332031 5.71875 -9.414062 5.84375 -9.46875 C 5.894531 -9.445312 5.910156 -9.378906 5.890625 -9.265625 L 5.875 -9.171875 L 5.96875 -9.171875 C 6.351562 -9.640625 6.601562 -9.875 6.71875 -9.875 L 6.71875 -9.84375 C 6.675781 -9.644531 6.476562 -9.273438 6.125 -8.734375 C 6.039062 -8.492188 5.988281 -8.335938 5.96875 -8.265625 C 5.945312 -8.148438 5.9375 -8.019531 5.9375 -7.875 C 5.894531 -7.707031 5.59375 -7.265625 5.03125 -6.546875 C 4.976562 -6.484375 4.882812 -6.203125 4.75 -5.703125 C 4.613281 -5.703125 4.382812 -5.363281 4.0625 -4.6875 C 3.988281 -4.363281 3.507812 -3.332031 2.625 -1.59375 C 2.613281 -1.519531 2.503906 -1.34375 2.296875 -1.0625 C 2.128906 -0.675781 1.953125 -0.140625 1.765625 0.546875 C 1.742188 0.617188 1.753906 1.03125 1.796875 1.78125 L 1.78125 1.953125 C 1.769531 1.992188 1.726562 2.082031 1.65625 2.21875 L 1.828125 2.1875 C 1.898438 2.28125 1.941406 2.328125 1.953125 2.328125 C 2.085938 2.210938 2.195312 2.15625 2.28125 2.15625 L 2.328125 2.15625 C 2.359375 2.15625 2.367188 2.175781 2.359375 2.21875 C 2.359375 2.238281 2.332031 2.328125 2.28125 2.484375 C 2.226562 2.734375 2.457031 2.859375 2.96875 2.859375 L 3 2.859375 C 3.113281 2.796875 3.234375 2.617188 3.359375 2.328125 C 3.585938 1.972656 3.859375 1.722656 4.171875 1.578125 C 4.492188 1.148438 4.660156 0.894531 4.671875 0.8125 L 4.75 0.453125 C 4.914062 0.00390625 5.082031 -0.21875 5.25 -0.21875 C 5.34375 -0.21875 5.488281 -0.550781 5.6875 -1.21875 C 5.800781 -1.394531 5.9375 -1.753906 6.09375 -2.296875 C 6.289062 -2.492188 6.519531 -2.914062 6.78125 -3.5625 C 6.863281 -3.65625 7.050781 -3.820312 7.34375 -4.0625 C 7.550781 -4.457031 7.691406 -4.816406 7.765625 -5.140625 L 7.78125 -5.265625 C 7.800781 -5.316406 7.796875 -5.414062 7.765625 -5.5625 C 8.140625 -6.144531 8.414062 -6.601562 8.59375 -6.9375 C 8.957031 -7.125 9.210938 -7.378906 9.359375 -7.703125 C 9.390625 -7.890625 9.523438 -8.078125 9.765625 -8.265625 C 9.804688 -8.453125 9.910156 -8.578125 10.078125 -8.640625 C 10.253906 -8.640625 10.609375 -9.109375 11.140625 -10.046875 L 11.234375 -10.046875 L 11.21875 -9.875 C 11.164062 -9.71875 11.0625 -9.472656 10.90625 -9.140625 L 10.90625 -9.109375 L 10.9375 -9.109375 C 11.132812 -9.378906 11.382812 -9.757812 11.6875 -10.25 C 11.769531 -10.25 11.878906 -10.414062 12.015625 -10.75 Z M 6.765625 -10.609375 L 6.921875 -10.609375 L 6.921875 -10.4375 L 6.90625 -10.375 L 6.71875 -10.34375 L 6.65625 -10.34375 L 6.65625 -10.515625 L 6.671875 -10.546875 C 6.691406 -10.585938 6.722656 -10.609375 6.765625 -10.609375 Z M 5.609375 -10.34375 C 5.828125 -10.34375 5.914062 -10.253906 5.875 -10.078125 C 5.832031 -9.898438 5.71875 -9.8125 5.53125 -9.8125 L 5.46875 -9.8125 C 5.4375 -9.976562 5.429688 -10.113281 5.453125 -10.21875 C 5.484375 -10.28125 5.535156 -10.320312 5.609375 -10.34375 Z M 5.46875 -7.265625 L 5.453125 -7.203125 L 5.484375 -7.203125 L 5.5 -7.265625 Z M 2.625 -1.8125 C 2.613281 -1.769531 2.59375 -1.726562 2.5625 -1.6875 L 2.625 -1.6875 L 2.65625 -1.8125 Z M 2.625 -1.8125"/></g><g id="m"><path d="M 7.40625 -10.484375 L 7.671875 -10.484375 C 8.472656 -10.410156 8.863281 -10.320312 8.84375 -10.21875 C 8.96875 -10.101562 9.171875 -9.988281 9.453125 -9.875 C 9.546875 -9.6875 9.785156 -9.4375 10.171875 -9.125 C 10.285156 -8.925781 10.320312 -8.726562 10.28125 -8.53125 C 10.25 -8.363281 10.207031 -8.113281 10.15625 -7.78125 L 9.796875 -6.765625 C 9.679688 -6.535156 9.535156 -6.421875 9.359375 -6.421875 L 9.125 -6.421875 C 9.101562 -6.421875 9.007812 -6.304688 8.84375 -6.078125 L 8.8125 -6.078125 C 8.75 -6.078125 8.722656 -6.15625 8.734375 -6.3125 L 8.6875 -6.3125 C 8.613281 -6.3125 8.488281 -6.085938 8.3125 -5.640625 C 8.1875 -5.523438 8.117188 -5.46875 8.109375 -5.46875 L 8.0625 -5.46875 L 8.0625 -5.640625 C 8.09375 -5.753906 8.144531 -5.925781 8.21875 -6.15625 L 8.09375 -6.1875 C 8.101562 -6.269531 8.175781 -6.359375 8.3125 -6.453125 C 8.34375 -6.890625 8.300781 -7.109375 8.1875 -7.109375 C 8.1875 -7.140625 8.101562 -7.40625 7.9375 -7.90625 C 7.96875 -8.050781 7.9375 -8.15625 7.84375 -8.21875 C 7.195312 -8.164062 6.726562 -8.078125 6.4375 -7.953125 C 5.863281 -7.648438 5.484375 -7.390625 5.296875 -7.171875 C 5.003906 -6.785156 4.84375 -6.515625 4.8125 -6.359375 L 4.8125 -6.3125 C 4.820312 -6.15625 4.820312 -6.070312 4.8125 -6.0625 C 4.71875 -5.820312 4.664062 -5.660156 4.65625 -5.578125 C 4.738281 -5.578125 4.75 -5.429688 4.6875 -5.140625 C 4.851562 -4.921875 4.945312 -4.660156 4.96875 -4.359375 C 5.132812 -4.253906 5.210938 -4.1875 5.203125 -4.15625 L 5.1875 -4.125 L 5.109375 -3.890625 C 5.242188 -3.703125 5.476562 -3.488281 5.8125 -3.25 C 6.613281 -1.78125 7.003906 -0.96875 6.984375 -0.8125 C 7.140625 -0.09375 7.148438 0.59375 7.015625 1.25 C 6.867188 1.9375 6.515625 2.414062 5.953125 2.6875 C 5.835938 2.769531 5.601562 3.082031 5.25 3.625 C 4.757812 4.125 4.226562 4.375 3.65625 4.375 C 3.4375 4.507812 3.238281 4.578125 3.0625 4.578125 C 2.875 4.554688 2.722656 4.546875 2.609375 4.546875 L 2.296875 4.546875 L 1.609375 4.71875 L 1.578125 4.71875 C 1.453125 4.582031 1.316406 4.515625 1.171875 4.515625 L 0.671875 4.609375 C -0.0859375 4.546875 -0.4375 4.378906 -0.375 4.109375 C -0.363281 4.015625 -0.578125 3.890625 -1.015625 3.734375 L -1.109375 3.734375 C -1.160156 3.734375 -1.207031 3.742188 -1.25 3.765625 C -1.5 3.648438 -1.707031 3.390625 -1.875 2.984375 L -1.796875 2.75 L -1.78125 2.6875 C -1.78125 2.65625 -1.789062 2.453125 -1.8125 2.078125 L -1.796875 1.96875 L -1.65625 1.96875 C -1.664062 2.050781 -1.644531 2.09375 -1.59375 2.09375 L -1.515625 2.078125 C -1.429688 1.722656 -1.394531 1.179688 -1.40625 0.453125 C -1.375 0.398438 -1.351562 0.363281 -1.34375 0.34375 L -1.28125 0.34375 C -1.25 0.34375 -1.21875 0.515625 -1.1875 0.859375 L -1.15625 0.859375 L -1.15625 0.6875 L -1.09375 0.40625 L -1.03125 0.40625 C -0.925781 0.8125 -0.851562 1.015625 -0.8125 1.015625 L -0.8125 0.984375 C -0.769531 0.398438 -0.738281 0.0390625 -0.71875 -0.09375 C -0.59375 -0.644531 -0.253906 -1.425781 0.296875 -2.4375 L 0.40625 -2.4375 L 0.453125 -2.40625 C 0.441406 -2.3125 0.210938 -1.753906 -0.234375 -0.734375 C -0.273438 -0.640625 -0.320312 -0.472656 -0.375 -0.234375 C -0.445312 0.117188 -0.328125 0.679688 -0.015625 1.453125 C 0.0234375 1.503906 0.195312 1.609375 0.5 1.765625 C 0.550781 1.953125 0.644531 2.046875 0.78125 2.046875 L 0.953125 2.046875 L 0.921875 2.203125 L 0.859375 2.28125 C 1.066406 2.4375 1.300781 2.515625 1.5625 2.515625 L 1.59375 2.515625 L 1.609375 2.484375 C 1.472656 2.453125 1.378906 2.359375 1.328125 2.203125 L 1.328125 2.171875 C 1.347656 2.117188 1.378906 2.09375 1.421875 2.09375 C 1.691406 2.238281 1.859375 2.3125 1.921875 2.3125 C 2.054688 2.351562 2.296875 2.382812 2.640625 2.40625 L 2.71875 2.375 C 2.75 2.375 2.757812 2.382812 2.75 2.40625 C 3.425781 2.40625 3.832031 2.296875 3.96875 2.078125 C 4.207031 1.929688 4.363281 1.691406 4.4375 1.359375 L 4.484375 1.09375 C 4.503906 0.988281 4.523438 0.738281 4.546875 0.34375 C 4.628906 0.175781 4.691406 0.0859375 4.734375 0.078125 C 4.722656 -0.265625 4.429688 -0.796875 3.859375 -1.515625 C 3.785156 -1.515625 3.75 -1.523438 3.75 -1.546875 C 3.65625 -1.546875 3.519531 -1.390625 3.34375 -1.078125 L 3.3125 -1.078125 C 3.269531 -1.210938 3.226562 -1.28125 3.1875 -1.28125 L 3.15625 -1.28125 C 3.082031 -1.132812 2.972656 -0.851562 2.828125 -0.4375 L 2.703125 -0.4375 C 2.671875 -0.53125 2.695312 -0.878906 2.78125 -1.484375 C 2.582031 -1.679688 2.492188 -1.835938 2.515625 -1.953125 L 2.75 -2.125 C 2.769531 -2.226562 2.644531 -2.429688 2.375 -2.734375 C 2.300781 -3.546875 2.171875 -3.953125 1.984375 -3.953125 C 1.910156 -4.117188 1.890625 -4.28125 1.921875 -4.4375 C 1.960938 -4.4375 1.988281 -4.453125 2 -4.484375 L 2 -4.53125 C 1.988281 -4.695312 1.921875 -4.910156 1.796875 -5.171875 C 1.785156 -5.535156 1.796875 -5.796875 1.828125 -5.953125 C 2.109375 -6.847656 2.320312 -7.296875 2.46875 -7.296875 C 2.53125 -7.367188 2.625 -7.5625 2.75 -7.875 C 2.875 -8.03125 2.957031 -8.210938 3 -8.421875 L 3.046875 -8.65625 C 3.671875 -9.289062 4.113281 -9.609375 4.375 -9.609375 C 4.425781 -9.609375 4.675781 -9.71875 5.125 -9.9375 C 5.238281 -9.9375 5.296875 -9.929688 5.296875 -9.921875 L 5.28125 -9.8125 C 5.238281 -9.8125 5.195312 -9.773438 5.15625 -9.703125 C 5.144531 -9.660156 5.160156 -9.640625 5.203125 -9.640625 L 5.3125 -9.640625 C 6.125 -10.203125 6.820312 -10.484375 7.40625 -10.484375 Z M 5.890625 -7.75 L 5.796875 -7.640625 L 5.84375 -7.640625 L 5.921875 -7.75 Z M 9.140625 -5.875 C 9.304688 -5.8125 9.378906 -5.710938 9.359375 -5.578125 C 9.285156 -5.472656 9.226562 -5.414062 9.1875 -5.40625 L 8.953125 -5.40625 L 8.953125 -5.578125 L 8.984375 -5.75 C 8.984375 -5.769531 9.035156 -5.8125 9.140625 -5.875 Z M 8.15625 -5.109375 L 8.234375 -5.109375 C 8.253906 -5.109375 8.28125 -5.070312 8.3125 -5 C 8.300781 -4.96875 8.242188 -4.925781 8.140625 -4.875 L 8.109375 -4.875 C 8.078125 -4.875 8.050781 -4.90625 8.03125 -4.96875 L 8.03125 -5 C 8.039062 -5.03125 8.082031 -5.066406 8.15625 -5.109375 Z M 2.5 -2.734375 L 2.5 -2.703125 L 2.5625 -2.703125 L 2.578125 -2.734375 Z M 3.78125 -1.015625 C 3.96875 -1.015625 4.039062 -0.890625 4 -0.640625 C 3.90625 -0.566406 3.820312 -0.53125 3.75 -0.53125 L 3.6875 -0.53125 C 3.625 -0.53125 3.597656 -0.632812 3.609375 -0.84375 C 3.609375 -0.875 3.664062 -0.929688 3.78125 -1.015625 Z M 2.9375 -0.125 C 3.019531 -0.09375 3.0625 -0.0625 3.0625 -0.03125 L 3.03125 0.109375 L 2.78125 0.109375 L 2.828125 -0.09375 C 2.847656 -0.09375 2.882812 -0.101562 2.9375 -0.125 Z M -1.0625 0.75 L -1.078125 0.8125 L -1.046875 0.8125 L -1.03125 0.75 Z M -1.140625 1.125 L -1.171875 1.21875 C -1.128906 1.800781 -1.007812 2.09375 -0.8125 2.09375 L -0.796875 2.078125 C -0.992188 1.796875 -1.097656 1.476562 -1.109375 1.125 Z M -1.140625 1.125"/></g><g id="n"><path d="M 6.921875 -11.0625 L 7.15625 -11.0625 L 7.15625 -10.921875 C 7.125 -10.828125 7.035156 -10.78125 6.890625 -10.78125 L 6.859375 -10.953125 C 6.890625 -11.003906 6.910156 -11.039062 6.921875 -11.0625 Z M 4.609375 -10.671875 C 4.796875 -10.671875 5.035156 -10.578125 5.328125 -10.390625 C 5.617188 -10.367188 5.796875 -10.359375 5.859375 -10.359375 L 6.71875 -10.5 L 6.828125 -10.5 C 6.804688 -10.394531 6.859375 -10.3125 6.984375 -10.25 C 7.253906 -10.375 7.710938 -10.4375 8.359375 -10.4375 L 8.53125 -10.4375 C 8.882812 -10.4375 9.113281 -10.328125 9.21875 -10.109375 C 9.289062 -10.066406 9.363281 -10.046875 9.4375 -10.046875 C 9.851562 -10.046875 10.160156 -10.148438 10.359375 -10.359375 C 10.398438 -10.359375 10.421875 -10.367188 10.421875 -10.390625 C 11.085938 -10.390625 11.492188 -10.265625 11.640625 -10.015625 C 11.640625 -9.972656 11.914062 -9.925781 12.46875 -9.875 L 12.484375 -9.796875 L 12.46875 -9.765625 C 12.457031 -9.703125 12.351562 -9.644531 12.15625 -9.59375 L 12.140625 -9.546875 C 12.128906 -9.492188 12.484375 -9.398438 13.203125 -9.265625 C 13.390625 -9.179688 13.707031 -9.125 14.15625 -9.09375 L 14.203125 -8.984375 C 14.023438 -8.921875 13.820312 -8.890625 13.59375 -8.890625 L 12.453125 -8.984375 C 11.921875 -8.984375 11.582031 -8.878906 11.4375 -8.671875 C 11.425781 -8.648438 11.410156 -8.640625 11.390625 -8.640625 L 10.90625 -8.640625 C 10.582031 -8.546875 10.40625 -8.5 10.375 -8.5 L 10.375 -8.328125 L 10.359375 -8.28125 C 10.347656 -8.28125 10.253906 -8.269531 10.078125 -8.25 C 9.066406 -8.269531 8.445312 -8.28125 8.21875 -8.28125 C 8.050781 -8.25 7.953125 -8.179688 7.921875 -8.078125 L 7.828125 -8.078125 C 7.628906 -8.078125 7.3125 -8.085938 6.875 -8.109375 L 6.796875 -7.859375 C 6.828125 -7.703125 6.84375 -7.609375 6.84375 -7.578125 C 6.476562 -6.617188 6.171875 -6.054688 5.921875 -5.890625 C 5.585938 -5.535156 5.375 -5.140625 5.28125 -4.703125 L 5.078125 -4.03125 C 5.234375 -3.769531 5.53125 -3.640625 5.96875 -3.640625 C 6.1875 -3.640625 6.382812 -3.734375 6.5625 -3.921875 L 6.65625 -3.921875 C 6.800781 -3.921875 6.984375 -3.890625 7.203125 -3.828125 L 7.421875 -3.859375 L 7.53125 -3.859375 C 7.65625 -3.578125 7.972656 -3.4375 8.484375 -3.4375 L 8.515625 -3.359375 L 8.484375 -3.265625 C 8.390625 -3.265625 8.3125 -3.203125 8.25 -3.078125 C 8.875 -2.921875 9.535156 -2.804688 10.234375 -2.734375 L 10.25 -2.65625 C 10.238281 -2.59375 10.113281 -2.546875 9.875 -2.515625 C 9.664062 -2.515625 9.21875 -2.550781 8.53125 -2.625 C 8.457031 -2.625 8.359375 -2.585938 8.234375 -2.515625 L 7.90625 -2.515625 C 7.8125 -2.515625 7.675781 -2.4375 7.5 -2.28125 L 7.15625 -2.28125 C 7.039062 -2.28125 6.835938 -2.242188 6.546875 -2.171875 L 6.53125 -2.140625 L 6.578125 -2.03125 L 6.5625 -2 C 6.5625 -1.945312 6.535156 -1.921875 6.484375 -1.921875 C 5.609375 -1.941406 5.070312 -1.953125 4.875 -1.953125 C 4.789062 -1.796875 4.597656 -1.71875 4.296875 -1.71875 C 4.285156 -1.6875 4.023438 -1.566406 3.515625 -1.359375 L 2.875 -0.34375 C 2.71875 -0.1875 2.523438 -0.0546875 2.296875 0.046875 C 2.085938 0.410156 1.960938 0.679688 1.921875 0.859375 L 1.90625 0.953125 L 2.0625 1 L 2.234375 1 C 2.585938 0.78125 2.988281 0.671875 3.4375 0.671875 C 3.59375 0.804688 3.671875 0.890625 3.671875 0.921875 C 4.898438 0.640625 5.570312 0.5 5.6875 0.5 L 5.75 0.5 C 6.007812 0.5 6.207031 0.507812 6.34375 0.53125 C 6.519531 0.507812 6.734375 0.5 6.984375 0.5 L 7.15625 0.5 C 7.269531 0.5 7.492188 0.601562 7.828125 0.8125 L 7.9375 0.8125 C 8.5 0.8125 8.953125 0.6875 9.296875 0.4375 L 9.359375 0.4375 C 10.335938 0.4375 10.863281 0.539062 10.9375 0.75 C 10.925781 0.84375 11.289062 0.910156 12.03125 0.953125 L 12.046875 1.03125 L 12.03125 1.0625 L 11.71875 1.234375 L 11.65625 1.3125 L 11.71875 1.34375 C 12.019531 1.34375 12.625 1.4375 13.53125 1.625 C 13.863281 1.625 14.019531 1.660156 14 1.734375 L 14 1.765625 C 13.976562 1.835938 13.816406 1.875 13.515625 1.875 L 12.5625 1.875 C 12.375 1.875 12.132812 1.863281 11.84375 1.84375 C 11.75 1.882812 11.671875 1.90625 11.609375 1.90625 L 11.296875 1.90625 C 11.097656 1.90625 10.925781 1.988281 10.78125 2.15625 C 10.695312 2.195312 10.625 2.21875 10.5625 2.21875 C 10.269531 2.195312 10.117188 2.1875 10.109375 2.1875 C 9.753906 2.257812 9.519531 2.316406 9.40625 2.359375 C 9.4375 2.441406 9.445312 2.515625 9.4375 2.578125 L 9.09375 2.640625 C 8.945312 2.640625 8.753906 2.628906 8.515625 2.609375 C 6.992188 2.691406 6.226562 2.765625 6.21875 2.828125 C 6.1875 2.921875 6.148438 2.96875 6.109375 2.96875 L 3.640625 3.140625 C 2.972656 3.222656 2.628906 3.316406 2.609375 3.421875 C 2.554688 3.453125 2.3125 3.488281 1.875 3.53125 C 1.8125 3.59375 1.722656 3.625 1.609375 3.625 L 1.578125 3.625 C 1.492188 3.625 1.390625 3.613281 1.265625 3.59375 C 0.722656 3.851562 0.226562 3.984375 -0.21875 3.984375 C -0.1875 3.835938 -0.253906 3.765625 -0.421875 3.765625 C -0.453125 3.929688 -0.828125 4.425781 -1.546875 5.25 C -1.742188 5.601562 -1.875 5.78125 -1.9375 5.78125 L -2.015625 5.78125 L -2 5.734375 C -1.9375 5.429688 -1.632812 4.882812 -1.09375 4.09375 C -0.957031 3.78125 -0.878906 3.578125 -0.859375 3.484375 C -1.648438 3.265625 -2.03125 3.066406 -2 2.890625 L -1.9375 2.609375 L -1.859375 2.4375 C -2.234375 2.34375 -2.414062 2.25 -2.40625 2.15625 C -2.164062 2.019531 -2.039062 1.9375 -2.03125 1.90625 L -2.015625 1.875 C -2.203125 1.8125 -2.53125 1.738281 -3 1.65625 L -3.046875 1.5625 L -3.03125 1.484375 C -2.8125 1.441406 -2.601562 1.40625 -2.40625 1.375 C -2.289062 1.40625 -2.222656 1.421875 -2.203125 1.421875 C -1.710938 1.421875 -1.019531 1.253906 -0.125 0.921875 C -0.113281 0.847656 0.0859375 0.484375 0.484375 -0.171875 C 0.585938 -0.421875 0.832031 -0.863281 1.21875 -1.5 L 1.234375 -1.53125 C 1.242188 -1.570312 1.234375 -1.679688 1.203125 -1.859375 C 1.210938 -1.898438 1.269531 -2.015625 1.375 -2.203125 C 1.269531 -2.203125 1.191406 -2.4375 1.140625 -2.90625 L 0.953125 -2.90625 C 0.921875 -2.90625 0.894531 -2.941406 0.875 -3.015625 L 0.890625 -3.125 C 0.984375 -3.125 1.050781 -3.191406 1.09375 -3.328125 C 0.84375 -3.378906 0.578125 -3.40625 0.296875 -3.40625 L 0.21875 -3.40625 C 0.175781 -3.40625 0.160156 -3.425781 0.171875 -3.46875 L 0.171875 -3.5 C 0.191406 -3.582031 0.453125 -3.644531 0.953125 -3.6875 C 1.472656 -3.832031 1.738281 -3.925781 1.75 -3.96875 C 1.664062 -3.988281 1.632812 -4.054688 1.65625 -4.171875 L 1.90625 -4.203125 C 2.101562 -4.160156 2.25 -4.140625 2.34375 -4.140625 C 2.53125 -4.140625 2.726562 -4.617188 2.9375 -5.578125 C 3.25 -6.085938 3.429688 -6.453125 3.484375 -6.671875 L 3.59375 -7.15625 C 3.625 -7.34375 3.78125 -7.546875 4.0625 -7.765625 C 3.707031 -8.003906 3.484375 -8.203125 3.390625 -8.359375 C 3.390625 -8.390625 3.191406 -8.519531 2.796875 -8.75 C 2.742188 -8.832031 2.726562 -8.910156 2.75 -8.984375 L 2.78125 -9.171875 L 2.875 -9.40625 C 2.726562 -9.40625 2.617188 -9.488281 2.546875 -9.65625 L 2.546875 -9.734375 C 2.742188 -9.773438 2.847656 -9.820312 2.859375 -9.875 C 2.773438 -9.96875 2.484375 -10.0625 1.984375 -10.15625 L 1.96875 -10.296875 C 2.070312 -10.335938 2.171875 -10.359375 2.265625 -10.359375 L 3.28125 -10.359375 C 4.082031 -10.566406 4.523438 -10.671875 4.609375 -10.671875 Z M 1.28125 -10.15625 L 1.421875 -10.15625 C 1.484375 -10.125 1.5 -10.050781 1.46875 -9.9375 L 1.46875 -9.90625 L 1.28125 -9.828125 C 1.1875 -9.859375 1.148438 -9.929688 1.171875 -10.046875 C 1.222656 -10.046875 1.257812 -10.082031 1.28125 -10.15625 Z M 1.90625 -9.3125 C 2.15625 -9.3125 2.257812 -9.21875 2.21875 -9.03125 C 2.082031 -8.863281 1.9375 -8.78125 1.78125 -8.78125 C 1.675781 -8.8125 1.632812 -8.894531 1.65625 -9.03125 L 1.703125 -9.171875 C 1.703125 -9.203125 1.769531 -9.25 1.90625 -9.3125 Z M 6.171875 -6.421875 L 6.15625 -6.359375 C 6.207031 -6.359375 6.234375 -6.378906 6.234375 -6.421875 Z M 0.9375 -4.109375 L 1.109375 -4.109375 L 1.140625 -3.921875 C 1.097656 -3.828125 1.019531 -3.78125 0.90625 -3.78125 L 0.828125 -3.921875 L 0.828125 -3.96875 C 0.890625 -4.019531 0.925781 -4.066406 0.9375 -4.109375 Z M -0.390625 -3.296875 C -0.304688 -3.265625 -0.269531 -3.226562 -0.28125 -3.1875 L -0.3125 -3.015625 C -0.40625 -2.992188 -0.457031 -2.984375 -0.46875 -2.984375 C -0.550781 -3.015625 -0.585938 -3.046875 -0.578125 -3.078125 L -0.5625 -3.1875 C -0.550781 -3.25 -0.492188 -3.285156 -0.390625 -3.296875 Z M 0.4375 -2.59375 C 0.601562 -2.59375 0.671875 -2.519531 0.640625 -2.375 L 0.625 -2.3125 C 0.539062 -2.164062 0.429688 -2.09375 0.296875 -2.09375 L 0.15625 -2.09375 C 0.113281 -2.09375 0.0820312 -2.164062 0.0625 -2.3125 C 0.144531 -2.5 0.269531 -2.59375 0.4375 -2.59375 Z M -3.78125 1.703125 L -3.640625 1.703125 C -3.578125 1.722656 -3.554688 1.789062 -3.578125 1.90625 L -3.59375 1.984375 L -3.78125 2.015625 L -3.8125 2.015625 C -3.851562 2.015625 -3.878906 1.96875 -3.890625 1.875 C -3.828125 1.800781 -3.789062 1.742188 -3.78125 1.703125 Z M -3.078125 2.578125 L -2.984375 2.578125 C -2.742188 2.578125 -2.640625 2.644531 -2.671875 2.78125 C -2.828125 3.019531 -2.984375 3.140625 -3.140625 3.140625 C -3.265625 3.140625 -3.320312 3.035156 -3.3125 2.828125 C -3.25 2.679688 -3.171875 2.597656 -3.078125 2.578125 Z M -3.078125 2.578125"/></g></defs><g fill="#FFF"><use x="32.666" y="207.051" xmlns:xlink="http://www.w3.org/1999/xlink" xlink:href="#a" xlink:type="simple" xlink:actuate="onLoad" xlink:show="embed"/></g><g fill="#FFF"><use x="62.623" y="207.051" xmlns:xlink="http://www.w3.org/1999/xlink" xlink:href="#b" xlink:type="simple" xlink:actuate="onLoad" xlink:show="embed"/></g><g fill="#FFF"><use x="85.998" y="207.051" xmlns:xlink="http://www.w3.org/1999/xlink" xlink:href="#c" xlink:type="simple" xlink:actuate="onLoad" xlink:show="embed"/></g><g fill="#FFF"><use x="116.621" y="207.051" xmlns:xlink="http://www.w3.org/1999/xlink" xlink:href="#c" xlink:type="simple" xlink:actuate="onLoad" xlink:show="embed"/></g><g fill="#FFF"><use x="147.244" y="207.051" xmlns:xlink="http://www.w3.org/1999/xlink" xlink:href="#b" xlink:type="simple" xlink:actuate="onLoad" xlink:show="embed"/></g><g fill="#FFF"><use x="170.618" y="207.051" xmlns:xlink="http://www.w3.org/1999/xlink" xlink:href="#c" xlink:type="simple" xlink:actuate="onLoad" xlink:show="embed"/></g><g fill="#FFF"><use x="201.241" y="207.051" xmlns:xlink="http://www.w3.org/1999/xlink" xlink:href="#d" xlink:type="simple" xlink:actuate="onLoad" xlink:show="embed"/></g><g fill="#FFF"><use x="215.838" y="207.051" xmlns:xlink="http://www.w3.org/1999/xlink" xlink:href="#a" xlink:type="simple" xlink:actuate="onLoad" xlink:show="embed"/></g><g fill="#FFF"><use x="245.795" y="207.051" xmlns:xlink="http://www.w3.org/1999/xlink" xlink:href="#b" xlink:type="simple" xlink:actuate="onLoad" xlink:show="embed"/></g><g fill="#FFF"><use x="269.169" y="207.051" xmlns:xlink="http://www.w3.org/1999/xlink" xlink:href="#e" xlink:type="simple" xlink:actuate="onLoad" xlink:show="embed"/></g><g fill="#FFF"><use x="295.034" y="207.051" xmlns:xlink="http://www.w3.org/1999/xlink" xlink:href="#f" xlink:type="simple" xlink:actuate="onLoad" xlink:show="embed"/></g><g fill="#FFF"><use x="315.498" y="207.051" xmlns:xlink="http://www.w3.org/1999/xlink" xlink:href="#g" xlink:type="simple" xlink:actuate="onLoad" xlink:show="embed"/></g><g fill="#FF1616"><use x="132.305" y="189.902" xmlns:xlink="http://www.w3.org/1999/xlink" xlink:href="#h" xlink:type="simple" xlink:actuate="onLoad" xlink:show="embed"/><use x="142.983" y="189.902" xmlns:xlink="http://www.w3.org/1999/xlink" xlink:href="#i" xlink:type="simple" xlink:actuate="onLoad" xlink:show="embed"/><use x="151.315" y="189.902" xmlns:xlink="http://www.w3.org/1999/xlink" xlink:href="#j" xlink:type="simple" xlink:actuate="onLoad" xlink:show="embed"/><use x="162.231" y="189.902" xmlns:xlink="http://www.w3.org/1999/xlink" xlink:href="#j" xlink:type="simple" xlink:actuate="onLoad" xlink:show="embed"/><use x="173.147" y="189.902" xmlns:xlink="http://www.w3.org/1999/xlink" xlink:href="#i" xlink:type="simple" xlink:actuate="onLoad" xlink:show="embed"/><use x="181.479" y="189.902" xmlns:xlink="http://www.w3.org/1999/xlink" xlink:href="#j" xlink:type="simple" xlink:actuate="onLoad" xlink:show="embed"/><use x="192.395" y="189.902" xmlns:xlink="http://www.w3.org/1999/xlink" xlink:href="#k" xlink:type="simple" xlink:actuate="onLoad" xlink:show="embed"/><use x="197.599" y="189.902" xmlns:xlink="http://www.w3.org/1999/xlink" xlink:href="#h" xlink:type="simple" xlink:actuate="onLoad" xlink:show="embed"/><use x="208.277" y="189.902" xmlns:xlink="http://www.w3.org/1999/xlink" xlink:href="#i" xlink:type="simple" xlink:actuate="onLoad" xlink:show="embed"/><use x="216.609" y="189.902" xmlns:xlink="http://www.w3.org/1999/xlink" xlink:href="#l" xlink:type="simple" xlink:actuate="onLoad" xlink:show="embed"/><use x="225.829" y="189.902" xmlns:xlink="http://www.w3.org/1999/xlink" xlink:href="#m" xlink:type="simple" xlink:actuate="onLoad" xlink:show="embed"/><use x="233.124" y="189.902" xmlns:xlink="http://www.w3.org/1999/xlink" xlink:href="#n" xlink:type="simple" xlink:actuate="onLoad" xlink:show="embed"/></g></svg>