<svg xmlns="http://www.w3.org/2000/svg" xmlns:xlink="http://www.w3.org/1999/xlink" width="375" viewBox="0 0 375 375" height="375" version="1.0"><defs><g id="a"><path d="M 16.3125 -16.5625 L 16.4375 -16.5625 C 16.488281 -16.5625 16.535156 -16.503906 16.578125 -16.390625 L 16.546875 -16.265625 C 16.503906 -16.265625 16.441406 -16.238281 16.359375 -16.1875 L 16.234375 -16.1875 C 16.253906 -16.289062 16.238281 -16.34375 16.1875 -16.34375 C 16.257812 -16.445312 16.300781 -16.519531 16.3125 -16.5625 Z M 14.71875 -15.96875 L 14.859375 -15.96875 C 15.078125 -15.96875 15.191406 -15.910156 15.203125 -15.796875 L 15.1875 -15.671875 C 15.125 -15.410156 14.976562 -15.28125 14.75 -15.28125 L 14.65625 -15.28125 C 14.5625 -15.488281 14.523438 -15.628906 14.546875 -15.703125 C 14.660156 -15.835938 14.71875 -15.925781 14.71875 -15.96875 Z M 16.359375 -15.578125 C 16.421875 -15.566406 16.445312 -15.535156 16.4375 -15.484375 L 16.390625 -15.328125 C 16.117188 -14.828125 15.898438 -14.179688 15.734375 -13.390625 L 15.578125 -12.65625 C 15.660156 -12.5625 15.695312 -12.472656 15.6875 -12.390625 C 15.675781 -12.378906 15.582031 -12.210938 15.40625 -11.890625 L 15.359375 -11.671875 C 15.285156 -11.316406 15.066406 -10.625 14.703125 -9.59375 C 14.648438 -9.195312 14.59375 -8.859375 14.53125 -8.578125 C 14.46875 -8.285156 13.828125 -7.28125 12.609375 -5.5625 L 12.53125 -5.21875 L 12.515625 -4.96875 C 12.234375 -4.1875 11.992188 -3.796875 11.796875 -3.796875 C 11.566406 -3.691406 11.429688 -3.535156 11.390625 -3.328125 L 11.65625 -3.328125 C 11.769531 -3.328125 11.800781 -3.210938 11.75 -2.984375 L 12 -2.984375 C 12.019531 -2.796875 12.023438 -2.664062 12.015625 -2.59375 L 11.984375 -2.46875 C 11.785156 -2.414062 11.65625 -2.390625 11.59375 -2.390625 L 11.375 -2.390625 C 11.375 -2.429688 11.351562 -2.488281 11.3125 -2.5625 L 11.34375 -2.6875 L 11.40625 -2.78125 L 11.28125 -2.78125 C 11.207031 -2.78125 11.078125 -2.503906 10.890625 -1.953125 C 11.097656 -1.953125 11.269531 -1.828125 11.40625 -1.578125 C 11.394531 -1.515625 11.25 -1.484375 10.96875 -1.484375 L 10.953125 -1.4375 C 11.179688 -1.4375 11.503906 -1.410156 11.921875 -1.359375 L 11.890625 -1.21875 C 11.867188 -1.125 11.367188 -1 10.390625 -0.84375 C 10.117188 -0.46875 9.753906 0.164062 9.296875 1.0625 C 8.648438 1.5625 8.296875 1.945312 8.234375 2.21875 C 8.035156 2.75 7.914062 3.046875 7.875 3.109375 C 7.914062 3.316406 7.929688 3.519531 7.921875 3.71875 L 7.109375 5.09375 C 7.023438 5.476562 6.785156 5.738281 6.390625 5.875 C 6.265625 5.957031 6.015625 6.382812 5.640625 7.15625 C 5.441406 7.382812 5.316406 7.5 5.265625 7.5 C 5.179688 7.5 5.179688 7.3125 5.265625 6.9375 C 5.054688 6.957031 4.921875 7.113281 4.859375 7.40625 L 3.46875 9.5625 C 3.3125 10.019531 3.128906 10.25 2.921875 10.25 L 2.890625 10.171875 L 2.90625 10.125 C 3.21875 9.34375 3.660156 8.410156 4.234375 7.328125 C 4.242188 7.171875 4.253906 7.039062 4.265625 6.9375 C 4.472656 6.519531 4.582031 6.289062 4.59375 6.25 L 4.609375 6.15625 C 4.628906 6.082031 4.613281 5.882812 4.5625 5.5625 L 4.578125 5.515625 C 5.046875 4.378906 5.289062 3.753906 5.3125 3.640625 L 5.28125 3.640625 L 5.125 3.71875 L 5.046875 3.71875 C 4.984375 3.71875 4.957031 3.691406 4.96875 3.640625 C 5.25 3.023438 5.859375 1.847656 6.796875 0.109375 C 6.898438 0.0234375 6.984375 -0.160156 7.046875 -0.453125 L 7.0625 -0.53125 C 7.082031 -0.757812 6.992188 -0.875 6.796875 -0.875 C 6.515625 -0.738281 6.238281 -0.671875 5.96875 -0.671875 L 5.8125 -0.671875 C 5.757812 -0.890625 5.65625 -1 5.5 -1 L 4.625 -0.796875 L 4.453125 -0.796875 C 4.378906 -0.796875 4.15625 -0.863281 3.78125 -1 C 3.71875 -0.738281 3.503906 -0.359375 3.140625 0.140625 C 2.523438 1.378906 2.078125 2 1.796875 2 C 1.578125 2.15625 1.351562 2.539062 1.125 3.15625 C 1.0625 3.320312 1.015625 3.484375 0.984375 3.640625 C 1.003906 3.910156 1.003906 4.09375 0.984375 4.1875 C 0.503906 4.976562 0.25 5.453125 0.21875 5.609375 C 0.0195312 6.066406 -0.203125 6.296875 -0.453125 6.296875 C -0.578125 6.398438 -0.796875 6.832031 -1.109375 7.59375 C -1.328125 7.78125 -1.445312 7.875 -1.46875 7.875 L -1.515625 7.875 L -1.484375 7.59375 L -1.453125 7.375 L -1.625 7.375 C -1.707031 7.75 -2.242188 8.445312 -3.234375 9.46875 C -3.460938 9.90625 -3.660156 10.125 -3.828125 10.125 L -3.828125 10.078125 C -3.753906 9.722656 -3.332031 9.078125 -2.5625 8.140625 C -2.507812 8.003906 -2.328125 7.429688 -2.015625 6.421875 C -2.117188 6.234375 -2.160156 6.09375 -2.140625 6 C -1.898438 5.519531 -1.742188 5.101562 -1.671875 4.75 C -1.566406 4.382812 -1.507812 4.195312 -1.5 4.1875 L -1.546875 4.1875 C -1.628906 4.25 -1.679688 4.28125 -1.703125 4.28125 L -1.734375 4.28125 L -1.8125 4.234375 C -0.988281 2.410156 -0.304688 1.078125 0.234375 0.234375 L 0.296875 -0.015625 C 0.316406 -0.117188 0.296875 -0.222656 0.234375 -0.328125 C 0.585938 -1.054688 0.769531 -1.441406 0.78125 -1.484375 C 0.125 -1.648438 -0.1875 -1.796875 -0.15625 -1.921875 L -0.15625 -1.953125 C 0.0820312 -2.023438 0.21875 -2.113281 0.25 -2.21875 L -1.4375 -3.03125 C -1.820312 -3.03125 -2.007812 -3.144531 -2 -3.375 L -1.90625 -3.421875 C -1.289062 -3.273438 -0.945312 -3.203125 -0.875 -3.203125 C -0.800781 -3.347656 -0.6875 -3.421875 -0.53125 -3.421875 L -0.484375 -3.421875 C -0.253906 -3.421875 -0.160156 -3.332031 -0.203125 -3.15625 C -0.234375 -2.988281 -0.101562 -2.90625 0.1875 -2.90625 L 0.3125 -2.90625 C 0.375 -2.90625 0.46875 -3.085938 0.59375 -3.453125 C 0.320312 -3.535156 0.207031 -3.664062 0.25 -3.84375 C 0.457031 -3.894531 0.566406 -3.953125 0.578125 -4.015625 C 0.566406 -4.066406 0.273438 -4.226562 -0.296875 -4.5 L -0.359375 -4.625 C -0.253906 -4.675781 -0.160156 -4.703125 -0.078125 -4.703125 C 0.523438 -4.617188 0.972656 -4.578125 1.265625 -4.578125 L 1.640625 -4.578125 C 2.015625 -4.722656 2.257812 -4.796875 2.375 -4.796875 L 2.375 -4.75 C 2.457031 -4.757812 2.539062 -4.816406 2.625 -4.921875 L 2.625 -5.140625 C 2.65625 -5.265625 2.847656 -5.625 3.203125 -6.21875 C 3.242188 -6.425781 3.378906 -6.664062 3.609375 -6.9375 C 3.816406 -7.90625 4.28125 -8.59375 5 -9 C 5.289062 -9.238281 5.769531 -9.753906 6.4375 -10.546875 C 6.46875 -10.546875 6.5625 -10.578125 6.71875 -10.640625 C 6.945312 -10.554688 7.125 -10.515625 7.25 -10.515625 C 7.414062 -10.878906 7.613281 -11.0625 7.84375 -11.0625 C 7.84375 -10.789062 7.832031 -10.617188 7.8125 -10.546875 L 7.859375 -10.546875 C 8.347656 -11.347656 8.691406 -11.75 8.890625 -11.75 L 8.90625 -11.671875 L 8.890625 -11.53125 C 8.460938 -10.59375 8.117188 -9.734375 7.859375 -8.953125 C 7.828125 -8.546875 7.796875 -8.257812 7.765625 -8.09375 L 7.71875 -7.875 C 7.65625 -7.601562 7.171875 -6.863281 6.265625 -5.65625 C 5.890625 -5.113281 5.644531 -4.582031 5.53125 -4.0625 C 5.976562 -4.0625 6.335938 -4.1875 6.609375 -4.4375 C 7.628906 -4.382812 8.125 -4.289062 8.09375 -4.15625 L 8.125 -4.15625 C 8.1875 -4.40625 8.34375 -4.53125 8.59375 -4.53125 C 8.882812 -4.53125 9.054688 -4.644531 9.109375 -4.875 C 9.109375 -4.925781 9.15625 -5.015625 9.25 -5.140625 C 9.257812 -5.335938 9.273438 -5.492188 9.296875 -5.609375 L 9.34375 -5.828125 C 9.351562 -5.859375 9.453125 -6.039062 9.640625 -6.375 L 9.578125 -6.515625 L 9.609375 -6.640625 C 10.046875 -7.515625 10.296875 -8.085938 10.359375 -8.359375 L 10.109375 -8.359375 C 10.117188 -8.441406 10.109375 -8.523438 10.078125 -8.609375 C 10.203125 -9.210938 10.40625 -9.515625 10.6875 -9.515625 C 11.0625 -9.773438 11.316406 -10.21875 11.453125 -10.84375 C 11.410156 -10.9375 11.398438 -11.023438 11.421875 -11.109375 L 11.421875 -11.15625 L 11.90625 -12.171875 L 12.046875 -12.875 C 12.097656 -13.125 12.5 -13.453125 13.25 -13.859375 C 13.457031 -14.171875 13.769531 -14.425781 14.1875 -14.625 L 14.21875 -14.625 C 14.425781 -14.625 14.632812 -14.582031 14.84375 -14.5 C 15.007812 -14.757812 15.179688 -14.890625 15.359375 -14.890625 C 15.359375 -14.734375 15.390625 -14.617188 15.453125 -14.546875 C 15.546875 -14.546875 15.691406 -14.742188 15.890625 -15.140625 C 16.148438 -15.421875 16.304688 -15.566406 16.359375 -15.578125 Z M 8.84375 -12.75 L 9.015625 -12.75 C 9.003906 -12.6875 9.023438 -12.65625 9.078125 -12.65625 C 9.046875 -12.507812 8.96875 -12.410156 8.84375 -12.359375 L 8.71875 -12.359375 C 8.71875 -12.398438 8.703125 -12.457031 8.671875 -12.53125 L 8.6875 -12.609375 C 8.695312 -12.648438 8.75 -12.695312 8.84375 -12.75 Z M 7.34375 -12.171875 C 7.601562 -12.171875 7.707031 -12.0625 7.65625 -11.84375 C 7.582031 -11.582031 7.425781 -11.453125 7.1875 -11.453125 C 7.050781 -11.609375 7.003906 -11.78125 7.046875 -11.96875 C 7.203125 -12.101562 7.300781 -12.171875 7.34375 -12.171875 Z M 13.71875 -7.375 L 13.703125 -7.28125 C 13.753906 -7.28125 13.785156 -7.3125 13.796875 -7.375 Z M -1.15625 -4.578125 L -0.96875 -4.578125 L -0.96875 -4.359375 L -0.984375 -4.3125 C -0.992188 -4.257812 -1.03125 -4.234375 -1.09375 -4.234375 L -1.3125 -4.234375 C -1.289062 -4.296875 -1.289062 -4.351562 -1.3125 -4.40625 C -1.238281 -4.519531 -1.1875 -4.578125 -1.15625 -4.578125 Z M 12.15625 -2.078125 L 12.375 -2.078125 L 12.375 -1.859375 L 12.359375 -1.78125 L 12.140625 -1.734375 L 12.046875 -1.734375 L 12.046875 -1.953125 L 12.0625 -2 C 12.070312 -2.050781 12.101562 -2.078125 12.15625 -2.078125 Z M 12.625 -1.859375 L 12.765625 -1.859375 C 12.847656 -1.859375 12.878906 -1.804688 12.859375 -1.703125 C 12.847656 -1.648438 12.769531 -1.578125 12.625 -1.484375 C 12.519531 -1.546875 12.460938 -1.601562 12.453125 -1.65625 L 12.46875 -1.734375 C 12.476562 -1.785156 12.53125 -1.828125 12.625 -1.859375 Z M 5.1875 3.421875 L 5.171875 3.5 L 5.21875 3.5 L 5.234375 3.421875 Z M -1.59375 3.96875 L -1.609375 4.0625 L -1.5625 4.0625 L -1.546875 3.96875 Z M 5.34375 7.203125 L 5.3125 7.28125 L 5.40625 7.28125 L 5.421875 7.203125 Z M -1.375 7.625 L -1.390625 7.71875 L -1.359375 7.71875 L -1.328125 7.625 Z M -1.375 7.625"/></g><g id="b"><path d="M 8.0625 -11.46875 L 8.21875 -11.46875 C 8.375 -11.289062 8.535156 -11.203125 8.703125 -11.203125 L 9.09375 -11.203125 C 9.289062 -11.203125 9.601562 -10.96875 10.03125 -10.5 L 10.0625 -10.5 C 10.25 -10.550781 10.375 -10.578125 10.4375 -10.578125 C 10.570312 -10.578125 10.664062 -10.507812 10.71875 -10.375 C 10.695312 -10.320312 10.582031 -10.15625 10.375 -9.875 C 10.625 -9.351562 10.722656 -8.972656 10.671875 -8.734375 L 10.671875 -8.65625 L 10.453125 -8.625 L 10.375 -8.625 C 10.269531 -8.625 10.171875 -8.648438 10.078125 -8.703125 C 9.941406 -8.660156 9.859375 -8.582031 9.828125 -8.46875 C 10.066406 -8.207031 10.265625 -8.078125 10.421875 -8.078125 C 10.453125 -8.179688 10.5 -8.234375 10.5625 -8.234375 L 10.796875 -8.234375 C 11.023438 -8.191406 11.117188 -8.085938 11.078125 -7.921875 C 11.078125 -7.878906 10.976562 -7.757812 10.78125 -7.5625 C 11.238281 -7.164062 11.335938 -6.347656 11.078125 -5.109375 C 11.203125 -4.859375 11.25 -4.660156 11.21875 -4.515625 C 10.9375 -3.890625 10.703125 -3.28125 10.515625 -2.6875 C 10.367188 -2.488281 10.21875 -2.148438 10.0625 -1.671875 L 10.359375 -1.859375 L 10.390625 -1.859375 L 10.375 -1.828125 C 10.238281 -1.148438 9.429688 -0.0546875 7.953125 1.453125 C 6.773438 2.472656 5.878906 3.085938 5.265625 3.296875 C 4.160156 3.828125 3.5 4.125 3.28125 4.1875 C 3.0625 4.1875 2.941406 4.203125 2.921875 4.234375 C 2.265625 4.234375 1.539062 3.957031 0.75 3.40625 C -0.3125 2.40625 -0.632812 0.9375 -0.21875 -1 L -0.1875 -1.203125 C -0.15625 -1.347656 -0.101562 -1.53125 -0.03125 -1.75 L -0.015625 -1.78125 L -0.0625 -1.78125 C -0.332031 -1.238281 -0.492188 -0.96875 -0.546875 -0.96875 L -0.59375 -1.078125 L -0.53125 -1.390625 L 0.125 -3 C 0.300781 -3.625 0.421875 -3.9375 0.484375 -3.9375 L 0.515625 -4.125 C 0.421875 -4.332031 0.367188 -4.4375 0.359375 -4.4375 C 0.753906 -5.238281 0.960938 -5.671875 0.984375 -5.734375 L 0.78125 -5.734375 C 0.726562 -5.734375 0.707031 -5.757812 0.71875 -5.8125 L 0.71875 -5.84375 C 1.164062 -6.550781 1.710938 -7.21875 2.359375 -7.84375 C 2.753906 -8.082031 2.96875 -8.289062 3 -8.46875 L 3 -8.625 C 3.25 -8.945312 3.75 -9.335938 4.5 -9.796875 C 4.71875 -10.023438 5.289062 -10.285156 6.21875 -10.578125 C 6.570312 -10.910156 7.128906 -11.078125 7.890625 -11.078125 L 7.9375 -11.28125 C 7.945312 -11.332031 7.988281 -11.359375 8.0625 -11.359375 L 8.078125 -11.390625 Z M 9.40625 -8.078125 L 9.34375 -8 L 9.65625 -7.609375 L 9.625 -7.453125 C 9.519531 -7.421875 9.460938 -7.40625 9.453125 -7.40625 L 9.4375 -7.375 C 9.53125 -7.257812 9.554688 -7.128906 9.515625 -6.984375 L 9.484375 -6.78125 L 9.328125 -6.78125 C 9.128906 -7.164062 8.925781 -7.503906 8.71875 -7.796875 C 8.382812 -7.742188 8.15625 -7.71875 8.03125 -7.71875 C 7.96875 -7.71875 7.796875 -7.8125 7.515625 -8 C 7.460938 -7.8125 7.007812 -7.273438 6.15625 -6.390625 C 5.863281 -5.953125 5.351562 -5.457031 4.625 -4.90625 C 3.914062 -4.113281 3.488281 -3.382812 3.34375 -2.71875 C 3.082031 -1.707031 2.867188 -1.203125 2.703125 -1.203125 L 2.453125 -0.921875 C 2.472656 -0.828125 2.453125 -0.554688 2.390625 -0.109375 C 2.535156 0.617188 2.785156 0.984375 3.140625 0.984375 C 3.378906 1.117188 3.625 1.1875 3.875 1.1875 C 3.957031 1.1875 4.421875 1.039062 5.265625 0.75 C 5.671875 0.75 5.988281 0.609375 6.21875 0.328125 C 6.539062 0.109375 6.894531 -0.28125 7.28125 -0.84375 C 7.488281 -1.5625 7.6875 -2.019531 7.875 -2.21875 C 8.46875 -3.039062 8.804688 -3.648438 8.890625 -4.046875 C 8.992188 -4.234375 9.175781 -4.414062 9.4375 -4.59375 C 9.59375 -4.8125 9.695312 -5.046875 9.75 -5.296875 C 9.800781 -5.554688 9.851562 -5.988281 9.90625 -6.59375 C 9.945312 -6.632812 9.972656 -6.6875 9.984375 -6.75 L 10.09375 -6.75 C 10.125 -6.75 10.207031 -6.644531 10.34375 -6.4375 L 10.375 -6.4375 C 10.425781 -6.4375 10.460938 -6.460938 10.484375 -6.515625 C 10.398438 -7.078125 10.125 -7.570312 9.65625 -8 C 9.582031 -8 9.5 -8.023438 9.40625 -8.078125 Z M 5.359375 -5.765625 L 5.34375 -5.6875 C 5.394531 -5.6875 5.425781 -5.710938 5.4375 -5.765625 Z M 10.015625 -1.390625 L 10 -1.3125 L 10.046875 -1.3125 L 10.046875 -1.390625 Z M 10.015625 -1.390625"/></g><g id="c"><path d="M 8.0625 -12.234375 L 8.1875 -12.234375 C 8.5625 -12.234375 8.945312 -12.207031 9.34375 -12.15625 L 9.421875 -12.203125 C 10.492188 -12.066406 11.226562 -11.960938 11.625 -11.890625 C 12.675781 -11.597656 13.414062 -11.21875 13.84375 -10.75 C 14.257812 -10.644531 14.457031 -10.539062 14.4375 -10.4375 C 14.894531 -9.625 15.046875 -8.84375 14.890625 -8.09375 L 14.84375 -7.90625 C 14.644531 -6.945312 13.90625 -5.914062 12.625 -4.8125 C 12.300781 -4.550781 11.734375 -4.132812 10.921875 -3.5625 C 10.398438 -2.988281 9.890625 -2.625 9.390625 -2.46875 C 8.753906 -1.976562 8.351562 -1.734375 8.1875 -1.734375 C 8.082031 -1.734375 7.648438 -1.5 6.890625 -1.03125 L 6.859375 -1.03125 L 6.84375 -0.953125 C 7.8125 -0.734375 8.863281 -0.109375 10 0.921875 C 10.132812 1.171875 10.191406 1.316406 10.171875 1.359375 C 10.117188 1.660156 10.535156 1.984375 11.421875 2.328125 C 11.703125 2.328125 11.898438 2.429688 12.015625 2.640625 C 12.535156 3.234375 12.785156 3.585938 12.765625 3.703125 C 12.703125 4.003906 12.878906 4.289062 13.296875 4.5625 C 13.453125 4.757812 13.515625 4.941406 13.484375 5.109375 L 13.453125 5.109375 C 13.421875 5.109375 13.273438 5.054688 13.015625 4.953125 L 13 5.03125 C 13.3125 5.414062 13.648438 6.023438 14.015625 6.859375 C 14.191406 7.015625 14.265625 7.160156 14.234375 7.296875 L 14.21875 7.328125 L 14.109375 7.328125 C 13.828125 7.066406 13.398438 6.5625 12.828125 5.8125 C 12.492188 5.363281 12.070312 5.140625 11.5625 5.140625 C 11.019531 4.597656 10.660156 4.328125 10.484375 4.328125 L 10.46875 4.40625 C 10.457031 4.425781 10.46875 4.4375 10.5 4.4375 C 10.457031 4.519531 10.425781 4.5625 10.40625 4.5625 C 10.21875 4.476562 10.019531 4.304688 9.8125 4.046875 C 8.832031 3.179688 8.164062 2.6875 7.8125 2.5625 L 7.515625 2.640625 C 7.390625 2.640625 6.867188 2.289062 5.953125 1.59375 C 5.617188 1.4375 5.117188 1.148438 4.453125 0.734375 C 4.148438 0.734375 3.878906 0.613281 3.640625 0.375 L 3.59375 0.375 C 3.550781 0.375 3.410156 0.660156 3.171875 1.234375 C 2.941406 1.429688 2.644531 1.914062 2.28125 2.6875 L 1.203125 3.890625 C 0.953125 4.347656 0.785156 4.765625 0.703125 5.140625 L 0.734375 5.53125 L 0.71875 5.609375 C 0.695312 5.691406 0.460938 6.132812 0.015625 6.9375 C -0.0546875 7.28125 -0.3125 7.609375 -0.75 7.921875 L -1.46875 9.328125 L -1.59375 9.328125 C -1.582031 9.066406 -1.570312 8.894531 -1.5625 8.8125 L -1.640625 8.8125 C -2.148438 9.78125 -2.632812 10.523438 -3.09375 11.046875 C -3.132812 11.253906 -3.265625 11.445312 -3.484375 11.625 L -3.5625 11.625 C -3.46875 11.175781 -3.078125 10.382812 -2.390625 9.25 C -2.253906 8.832031 -2.140625 8.414062 -2.046875 8 L -2.046875 7.953125 C -2.023438 7.898438 -2.054688 7.742188 -2.140625 7.484375 C -1.941406 7.148438 -1.726562 6.566406 -1.5 5.734375 L -1.53125 5.734375 C -1.570312 5.734375 -1.617188 5.769531 -1.671875 5.84375 C -1.710938 5.820312 -1.75 5.8125 -1.78125 5.8125 L -1.765625 5.6875 L -0.953125 3.890625 L 0.3125 1.46875 C 0.269531 1.257812 0.238281 1.15625 0.21875 1.15625 C 0.6875 0.1875 1.101562 -0.550781 1.46875 -1.0625 C 1.488281 -1.125 1.515625 -1.175781 1.546875 -1.21875 C 1.210938 -1.375 1.03125 -1.546875 1 -1.734375 L 1.03125 -1.921875 C 1.113281 -1.921875 1.191406 -1.988281 1.265625 -2.125 C 1.304688 -2.289062 1.15625 -2.484375 0.8125 -2.703125 C 0.75 -2.703125 0.707031 -2.753906 0.6875 -2.859375 L 0.71875 -2.984375 L 0.984375 -2.984375 L 1 -3.015625 C 0.988281 -3.234375 0.867188 -3.429688 0.640625 -3.609375 C 0.515625 -3.628906 0.472656 -3.734375 0.515625 -3.921875 L 0.5625 -3.921875 C 0.664062 -3.921875 0.835938 -3.867188 1.078125 -3.765625 L 1.421875 -3.953125 C 1.285156 -4.296875 1.226562 -4.503906 1.25 -4.578125 C 1.257812 -4.628906 1.289062 -4.65625 1.34375 -4.65625 C 1.507812 -4.582031 1.628906 -4.546875 1.703125 -4.546875 L 1.71875 -4.578125 C 1.738281 -4.671875 1.625 -4.921875 1.375 -5.328125 C 1.332031 -5.410156 1.320312 -5.488281 1.34375 -5.5625 L 1.34375 -5.59375 C 1.363281 -5.644531 1.394531 -5.671875 1.4375 -5.671875 L 2.25 -4.859375 C 2.613281 -4.515625 2.875 -4.34375 3.03125 -4.34375 L 3.03125 -4.390625 C 3.082031 -4.617188 3.257812 -4.929688 3.5625 -5.328125 L 3.609375 -5.5625 C 3.765625 -6.3125 4.066406 -6.816406 4.515625 -7.078125 C 4.597656 -7.148438 4.753906 -7.347656 4.984375 -7.671875 C 5.160156 -7.671875 5.421875 -7.957031 5.765625 -8.53125 L 6.46875 -9.109375 C 6.75 -9.035156 6.925781 -9 7 -9 C 7.207031 -9.414062 7.390625 -9.625 7.546875 -9.625 L 7.578125 -9.546875 L 7.46875 -9.078125 C 7.613281 -9.078125 7.8125 -9.320312 8.0625 -9.8125 C 7.226562 -9.863281 6.742188 -9.90625 6.609375 -9.9375 C 6.347656 -9.90625 6.09375 -9.890625 5.84375 -9.890625 L 5.734375 -9.890625 C 5.046875 -10.128906 4.664062 -10.25 4.59375 -10.25 L 4.4375 -10.25 L 2.765625 -10.046875 C 2.710938 -10.046875 2.691406 -10.070312 2.703125 -10.125 C 2.710938 -10.164062 2.914062 -10.269531 3.3125 -10.4375 L 3.328125 -10.515625 C 3.242188 -10.515625 3.179688 -10.53125 3.140625 -10.5625 C 2.859375 -10.457031 2.300781 -10.335938 1.46875 -10.203125 C 0.425781 -9.765625 -0.269531 -9.546875 -0.625 -9.546875 L -0.65625 -9.625 C -0.632812 -9.695312 0.101562 -10.046875 1.5625 -10.671875 C 2.507812 -10.992188 3.269531 -11.203125 3.84375 -11.296875 C 4.070312 -11.296875 4.46875 -11.441406 5.03125 -11.734375 C 5.082031 -11.753906 5.148438 -11.765625 5.234375 -11.765625 L 5.3125 -11.765625 C 5.875 -11.765625 6.671875 -11.832031 7.703125 -11.96875 L 7.703125 -12 C 7.597656 -12 7.546875 -12.050781 7.546875 -12.15625 C 7.671875 -12.207031 7.84375 -12.234375 8.0625 -12.234375 Z M 7.9375 -12.125 L 7.921875 -12.078125 C 7.941406 -12.078125 7.976562 -12.066406 8.03125 -12.046875 L 8.03125 -12.078125 L 7.96875 -12.125 Z M 2.984375 -10.203125 L 2.984375 -10.171875 L 3.09375 -10.171875 L 3.109375 -10.203125 Z M 7.453125 -7.3125 C 7.441406 -7.25 7.378906 -6.898438 7.265625 -6.265625 C 7.046875 -5.660156 6.671875 -5.0625 6.140625 -4.46875 C 6.003906 -4.289062 5.878906 -4.066406 5.765625 -3.796875 C 5.890625 -3.867188 6.300781 -3.945312 7 -4.03125 C 7.820312 -4.351562 8.539062 -4.742188 9.15625 -5.203125 C 9.675781 -5.773438 10.140625 -6.0625 10.546875 -6.0625 C 10.785156 -6.0625 11.15625 -6.320312 11.65625 -6.84375 C 11.96875 -7.21875 12.164062 -7.597656 12.25 -7.984375 L 12.25 -8.015625 C 12.375 -8.609375 12.054688 -9.066406 11.296875 -9.390625 C 10.910156 -9.828125 10.472656 -10.046875 9.984375 -10.046875 L 8.96875 -10.046875 C 8.550781 -10.046875 8.285156 -9.757812 8.171875 -9.1875 C 8.023438 -8.875 7.785156 -8.25 7.453125 -7.3125 Z M 0.65625 -6.03125 L 0.890625 -6.03125 L 0.890625 -5.828125 C 0.847656 -5.753906 0.757812 -5.71875 0.625 -5.71875 C 0.570312 -5.71875 0.554688 -5.753906 0.578125 -5.828125 Z M 6.703125 -5.40625 C 6.691406 -5.375 6.664062 -5.332031 6.625 -5.28125 L 6.671875 -5.28125 L 6.734375 -5.359375 L 6.734375 -5.40625 Z M 0.28125 -4.78125 L 0.546875 -4.78125 C 0.671875 -4.644531 0.71875 -4.515625 0.6875 -4.390625 L 0.6875 -4.3125 C 0.5 -4.257812 0.375 -4.234375 0.3125 -4.234375 L 0.125 -4.234375 C 0.0820312 -4.421875 0.0664062 -4.535156 0.078125 -4.578125 C 0.191406 -4.628906 0.257812 -4.695312 0.28125 -4.78125 Z M -0.265625 -4.109375 L -0.109375 -4.109375 C -0.0664062 -4.109375 -0.0351562 -4.070312 -0.015625 -4 L -0.046875 -3.796875 L -0.25 -3.765625 C -0.238281 -3.816406 -0.273438 -3.84375 -0.359375 -3.84375 L -0.34375 -3.921875 Z M 5.953125 -3.765625 L 5.953125 -3.71875 L 6.0625 -3.71875 C 6.164062 -3.769531 6.25 -3.796875 6.3125 -3.796875 L 6.328125 -3.84375 L 6.25 -3.84375 C 6.15625 -3.789062 6.054688 -3.765625 5.953125 -3.765625 Z M -0.125 -2.90625 C 0.09375 -2.8125 0.179688 -2.679688 0.140625 -2.515625 L 0.140625 -2.46875 C 0.128906 -2.40625 0.0078125 -2.351562 -0.21875 -2.3125 L -0.375 -2.3125 C -0.414062 -2.3125 -0.453125 -2.363281 -0.484375 -2.46875 L -0.453125 -2.671875 C -0.316406 -2.828125 -0.207031 -2.90625 -0.125 -2.90625 Z M 13.296875 4.875 L 13.28125 4.953125 L 13.359375 4.953125 L 13.375 4.875 Z M 13.296875 4.875"/></g><g id="e"><path d="M 13.515625 -12.046875 L 13.578125 -12.046875 L 13.578125 -12.015625 C 13.535156 -11.816406 13.226562 -11.195312 12.65625 -10.15625 C 12.632812 -10.050781 12.554688 -9.804688 12.421875 -9.421875 C 12.453125 -9.421875 12.484375 -9.34375 12.515625 -9.1875 C 12.347656 -8.851562 12.226562 -8.546875 12.15625 -8.265625 L 12.171875 -8.265625 L 12.265625 -8.296875 C 12.304688 -8.273438 12.335938 -8.265625 12.359375 -8.265625 L 12.328125 -8.15625 C 11.691406 -7.03125 11.347656 -6.335938 11.296875 -6.078125 C 11.328125 -6.078125 11.359375 -6.023438 11.390625 -5.921875 L 11.375 -5.84375 C 11.0625 -5.226562 10.867188 -4.75 10.796875 -4.40625 C 10.773438 -4.132812 10.757812 -3.960938 10.75 -3.890625 C 10.601562 -3.523438 10.515625 -3.3125 10.484375 -3.25 C 10.453125 -3 10.421875 -2.800781 10.390625 -2.65625 L 10.34375 -2.4375 C 10.3125 -2.3125 10.066406 -2.0625 9.609375 -1.6875 C 9.484375 -1.125 8.945312 0.125 8 2.0625 C 7.75 2.46875 7.363281 2.945312 6.84375 3.5 C 6.59375 3.695312 6.269531 4.109375 5.875 4.734375 C 5.382812 5.203125 4.597656 5.546875 3.515625 5.765625 L 3.125 5.765625 C 1.539062 5.765625 0.519531 5.195312 0.0625 4.0625 C -0.382812 3.1875 -0.578125 2.296875 -0.515625 1.390625 C -0.421875 0.972656 -0.335938 0.648438 -0.265625 0.421875 C -0.222656 0.109375 -0.203125 -0.0507812 -0.203125 -0.0625 C -0.00390625 -0.882812 0.160156 -1.597656 0.296875 -2.203125 C 0.492188 -3.148438 1.125 -4.242188 2.1875 -5.484375 C 2.4375 -5.835938 2.710938 -6.34375 3.015625 -7 C 3.023438 -7.164062 3.039062 -7.300781 3.0625 -7.40625 L 3.09375 -7.515625 C 3.25 -7.847656 3.34375 -8.082031 3.375 -8.21875 C 3.457031 -8.25 3.507812 -8.328125 3.53125 -8.453125 L 3.625 -8.859375 C 3.6875 -9.160156 3.859375 -9.359375 4.140625 -9.453125 C 4.359375 -9.671875 4.625 -9.832031 4.9375 -9.9375 C 5.25 -10.257812 5.523438 -10.421875 5.765625 -10.421875 C 5.835938 -10.335938 5.960938 -10.273438 6.140625 -10.234375 C 6.234375 -10.367188 6.347656 -10.46875 6.484375 -10.53125 C 6.546875 -10.5 6.566406 -10.421875 6.546875 -10.296875 L 6.53125 -10.203125 L 6.625 -10.203125 C 7.050781 -10.722656 7.332031 -10.984375 7.46875 -10.984375 L 7.46875 -10.9375 C 7.414062 -10.71875 7.195312 -10.304688 6.8125 -9.703125 C 6.707031 -9.441406 6.644531 -9.269531 6.625 -9.1875 C 6.601562 -9.050781 6.597656 -8.90625 6.609375 -8.75 C 6.554688 -8.5625 6.21875 -8.066406 5.59375 -7.265625 C 5.53125 -7.203125 5.425781 -6.890625 5.28125 -6.328125 C 5.125 -6.328125 4.867188 -5.957031 4.515625 -5.21875 C 4.429688 -4.851562 3.898438 -3.703125 2.921875 -1.765625 C 2.910156 -1.691406 2.789062 -1.492188 2.5625 -1.171875 C 2.375 -0.742188 2.175781 -0.148438 1.96875 0.609375 C 1.945312 0.691406 1.957031 1.148438 2 1.984375 L 1.984375 2.171875 C 1.972656 2.210938 1.925781 2.3125 1.84375 2.46875 L 2.03125 2.4375 C 2.113281 2.53125 2.160156 2.578125 2.171875 2.578125 C 2.328125 2.453125 2.453125 2.390625 2.546875 2.390625 L 2.578125 2.390625 C 2.617188 2.398438 2.632812 2.425781 2.625 2.46875 C 2.625 2.488281 2.59375 2.585938 2.53125 2.765625 C 2.46875 3.035156 2.722656 3.171875 3.296875 3.171875 L 3.328125 3.171875 C 3.460938 3.097656 3.597656 2.898438 3.734375 2.578125 C 3.992188 2.191406 4.289062 1.921875 4.625 1.765625 C 4.988281 1.285156 5.179688 1 5.203125 0.90625 L 5.28125 0.5 C 5.457031 0 5.640625 -0.25 5.828125 -0.25 C 5.941406 -0.25 6.101562 -0.617188 6.3125 -1.359375 C 6.4375 -1.546875 6.59375 -1.941406 6.78125 -2.546875 C 6.988281 -2.765625 7.242188 -3.234375 7.546875 -3.953125 C 7.628906 -4.066406 7.832031 -4.253906 8.15625 -4.515625 C 8.382812 -4.953125 8.539062 -5.347656 8.625 -5.703125 L 8.65625 -5.84375 C 8.664062 -5.90625 8.65625 -6.019531 8.625 -6.1875 C 9.039062 -6.832031 9.347656 -7.335938 9.546875 -7.703125 C 9.953125 -7.910156 10.234375 -8.195312 10.390625 -8.5625 C 10.429688 -8.769531 10.582031 -8.976562 10.84375 -9.1875 C 10.894531 -9.394531 11.007812 -9.53125 11.1875 -9.59375 C 11.382812 -9.59375 11.78125 -10.113281 12.375 -11.15625 L 12.484375 -11.15625 L 12.46875 -10.984375 C 12.414062 -10.804688 12.300781 -10.53125 12.125 -10.15625 L 12.109375 -10.125 L 12.15625 -10.125 C 12.375 -10.425781 12.648438 -10.847656 12.984375 -11.390625 C 13.078125 -11.390625 13.195312 -11.570312 13.34375 -11.9375 Z M 7.515625 -11.78125 L 7.6875 -11.78125 L 7.6875 -11.609375 L 7.671875 -11.53125 L 7.46875 -11.5 L 7.40625 -11.5 L 7.40625 -11.71875 C 7.4375 -11.757812 7.472656 -11.78125 7.515625 -11.78125 Z M 6.234375 -11.5 C 6.472656 -11.5 6.570312 -11.398438 6.53125 -11.203125 C 6.488281 -11.003906 6.359375 -10.90625 6.140625 -10.90625 L 6.078125 -10.90625 C 6.046875 -11.09375 6.039062 -11.238281 6.0625 -11.34375 C 6.09375 -11.414062 6.148438 -11.46875 6.234375 -11.5 Z M 6.078125 -8.078125 L 6.0625 -8.015625 L 6.09375 -8.015625 L 6.109375 -8.078125 Z M 2.90625 -2.015625 C 2.894531 -1.960938 2.875 -1.914062 2.84375 -1.875 L 2.921875 -1.875 L 2.953125 -2.015625 Z M 2.90625 -2.015625"/></g><g id="f"><path d="M 8.21875 -11.65625 L 8.53125 -11.65625 C 9.414062 -11.570312 9.847656 -11.46875 9.828125 -11.34375 C 9.960938 -11.21875 10.1875 -11.097656 10.5 -10.984375 C 10.601562 -10.765625 10.875 -10.484375 11.3125 -10.140625 C 11.4375 -9.921875 11.472656 -9.695312 11.421875 -9.46875 C 11.390625 -9.289062 11.347656 -9.015625 11.296875 -8.640625 L 10.890625 -7.515625 C 10.753906 -7.265625 10.59375 -7.140625 10.40625 -7.140625 L 10.140625 -7.140625 C 10.109375 -7.140625 10.003906 -7.015625 9.828125 -6.765625 L 9.796875 -6.765625 C 9.722656 -6.765625 9.691406 -6.847656 9.703125 -7.015625 L 9.65625 -7.015625 C 9.570312 -7.015625 9.429688 -6.765625 9.234375 -6.265625 C 9.097656 -6.140625 9.019531 -6.078125 9 -6.078125 L 8.96875 -6.078125 L 8.96875 -6.265625 C 9 -6.398438 9.050781 -6.59375 9.125 -6.84375 L 8.984375 -6.875 C 9.003906 -6.96875 9.085938 -7.066406 9.234375 -7.171875 C 9.265625 -7.648438 9.21875 -7.890625 9.09375 -7.890625 C 9.101562 -7.929688 9.007812 -8.234375 8.8125 -8.796875 C 8.851562 -8.953125 8.820312 -9.0625 8.71875 -9.125 C 8 -9.070312 7.476562 -8.972656 7.15625 -8.828125 C 6.507812 -8.492188 6.082031 -8.207031 5.875 -7.96875 C 5.5625 -7.539062 5.390625 -7.238281 5.359375 -7.0625 L 5.34375 -7.015625 C 5.351562 -6.847656 5.359375 -6.753906 5.359375 -6.734375 C 5.253906 -6.460938 5.191406 -6.285156 5.171875 -6.203125 C 5.265625 -6.203125 5.273438 -6.039062 5.203125 -5.71875 C 5.390625 -5.476562 5.492188 -5.1875 5.515625 -4.84375 C 5.703125 -4.726562 5.789062 -4.65625 5.78125 -4.625 L 5.765625 -4.578125 L 5.671875 -4.3125 C 5.828125 -4.113281 6.09375 -3.878906 6.46875 -3.609375 C 7.351562 -1.972656 7.78125 -1.070312 7.75 -0.90625 C 7.9375 -0.101562 7.953125 0.660156 7.796875 1.390625 C 7.628906 2.160156 7.238281 2.691406 6.625 2.984375 C 6.488281 3.078125 6.222656 3.425781 5.828125 4.03125 C 5.285156 4.582031 4.695312 4.859375 4.0625 4.859375 C 3.8125 5.015625 3.59375 5.09375 3.40625 5.09375 C 3.195312 5.0625 3.023438 5.046875 2.890625 5.046875 L 2.546875 5.046875 L 1.78125 5.234375 L 1.75 5.234375 C 1.613281 5.085938 1.46875 5.015625 1.3125 5.015625 L 0.75 5.125 C -0.09375 5.050781 -0.484375 4.863281 -0.421875 4.5625 C -0.398438 4.457031 -0.632812 4.316406 -1.125 4.140625 L -1.234375 4.140625 C -1.285156 4.140625 -1.335938 4.15625 -1.390625 4.1875 C -1.671875 4.0625 -1.898438 3.773438 -2.078125 3.328125 L -2 3.0625 L -1.984375 2.984375 C -1.972656 2.953125 -1.984375 2.726562 -2.015625 2.3125 L -2 2.1875 L -1.84375 2.1875 C -1.851562 2.28125 -1.828125 2.328125 -1.765625 2.328125 L -1.6875 2.3125 C -1.59375 1.914062 -1.550781 1.3125 -1.5625 0.5 C -1.519531 0.445312 -1.5 0.40625 -1.5 0.375 L -1.421875 0.375 C -1.390625 0.375 -1.351562 0.566406 -1.3125 0.953125 L -1.28125 0.953125 L -1.28125 0.765625 L -1.21875 0.453125 L -1.140625 0.453125 C -1.023438 0.910156 -0.945312 1.140625 -0.90625 1.140625 L -0.90625 1.09375 C -0.863281 0.445312 -0.828125 0.046875 -0.796875 -0.109375 C -0.660156 -0.722656 -0.285156 -1.585938 0.328125 -2.703125 L 0.453125 -2.703125 L 0.515625 -2.671875 C 0.492188 -2.566406 0.238281 -1.953125 -0.25 -0.828125 C -0.300781 -0.710938 -0.351562 -0.519531 -0.40625 -0.25 C -0.488281 0.132812 -0.359375 0.757812 -0.015625 1.625 C 0.0234375 1.675781 0.210938 1.789062 0.546875 1.96875 C 0.609375 2.164062 0.71875 2.265625 0.875 2.265625 L 1.0625 2.265625 L 1.015625 2.453125 L 0.953125 2.53125 C 1.191406 2.707031 1.453125 2.796875 1.734375 2.796875 L 1.78125 2.796875 L 1.78125 2.75 C 1.632812 2.726562 1.53125 2.628906 1.46875 2.453125 L 1.46875 2.40625 C 1.488281 2.351562 1.523438 2.328125 1.578125 2.328125 C 1.878906 2.484375 2.0625 2.5625 2.125 2.5625 C 2.28125 2.613281 2.550781 2.648438 2.9375 2.671875 L 3.03125 2.640625 C 3.050781 2.640625 3.0625 2.648438 3.0625 2.671875 C 3.8125 2.671875 4.265625 2.550781 4.421875 2.3125 C 4.679688 2.15625 4.847656 1.890625 4.921875 1.515625 L 4.984375 1.21875 C 5.003906 1.09375 5.03125 0.8125 5.0625 0.375 C 5.144531 0.1875 5.210938 0.0859375 5.265625 0.078125 C 5.242188 -0.296875 4.914062 -0.882812 4.28125 -1.6875 C 4.207031 -1.6875 4.171875 -1.695312 4.171875 -1.71875 C 4.054688 -1.71875 3.90625 -1.539062 3.71875 -1.1875 L 3.6875 -1.1875 C 3.632812 -1.34375 3.585938 -1.421875 3.546875 -1.421875 L 3.5 -1.421875 C 3.425781 -1.253906 3.304688 -0.941406 3.140625 -0.484375 L 3 -0.484375 C 2.96875 -0.585938 3 -0.976562 3.09375 -1.65625 C 2.863281 -1.863281 2.765625 -2.035156 2.796875 -2.171875 L 3.0625 -2.359375 C 3.082031 -2.472656 2.941406 -2.695312 2.640625 -3.03125 C 2.554688 -3.9375 2.410156 -4.390625 2.203125 -4.390625 C 2.117188 -4.578125 2.09375 -4.753906 2.125 -4.921875 C 2.175781 -4.921875 2.207031 -4.941406 2.21875 -4.984375 L 2.21875 -5.03125 C 2.207031 -5.21875 2.132812 -5.457031 2 -5.75 C 1.976562 -6.144531 1.988281 -6.429688 2.03125 -6.609375 C 2.34375 -7.609375 2.578125 -8.109375 2.734375 -8.109375 C 2.816406 -8.179688 2.921875 -8.394531 3.046875 -8.75 C 3.191406 -8.914062 3.289062 -9.117188 3.34375 -9.359375 L 3.390625 -9.625 C 4.085938 -10.320312 4.578125 -10.671875 4.859375 -10.671875 C 4.921875 -10.671875 5.195312 -10.796875 5.6875 -11.046875 C 5.820312 -11.046875 5.890625 -11.035156 5.890625 -11.015625 L 5.859375 -10.90625 C 5.816406 -10.90625 5.769531 -10.863281 5.71875 -10.78125 C 5.71875 -10.738281 5.738281 -10.71875 5.78125 -10.71875 L 5.90625 -10.71875 C 6.800781 -11.34375 7.570312 -11.65625 8.21875 -11.65625 Z M 6.546875 -8.609375 L 6.453125 -8.5 L 6.484375 -8.5 L 6.578125 -8.609375 Z M 10.15625 -6.53125 C 10.34375 -6.457031 10.421875 -6.347656 10.390625 -6.203125 C 10.316406 -6.085938 10.253906 -6.019531 10.203125 -6 L 9.9375 -6 L 9.9375 -6.203125 L 9.984375 -6.390625 C 9.984375 -6.410156 10.039062 -6.457031 10.15625 -6.53125 Z M 9.0625 -5.671875 L 9.140625 -5.671875 C 9.171875 -5.671875 9.203125 -5.632812 9.234375 -5.5625 C 9.222656 -5.519531 9.160156 -5.46875 9.046875 -5.40625 L 9.015625 -5.40625 C 8.972656 -5.40625 8.941406 -5.441406 8.921875 -5.515625 L 8.921875 -5.5625 C 8.929688 -5.59375 8.976562 -5.628906 9.0625 -5.671875 Z M 2.78125 -3.03125 L 2.78125 -3 L 2.859375 -3 L 2.859375 -3.03125 Z M 4.203125 -1.125 C 4.410156 -1.125 4.488281 -0.984375 4.4375 -0.703125 C 4.332031 -0.628906 4.238281 -0.59375 4.15625 -0.59375 L 4.09375 -0.59375 C 4.019531 -0.59375 3.988281 -0.707031 4 -0.9375 C 4.007812 -0.96875 4.078125 -1.03125 4.203125 -1.125 Z M 3.265625 -0.140625 C 3.359375 -0.109375 3.40625 -0.0703125 3.40625 -0.03125 L 3.359375 0.125 L 3.09375 0.125 L 3.140625 -0.109375 C 3.171875 -0.109375 3.210938 -0.117188 3.265625 -0.140625 Z M -1.1875 0.828125 L -1.203125 0.90625 L -1.15625 0.90625 L -1.140625 0.828125 Z M -1.265625 1.25 L -1.296875 1.359375 C -1.253906 2.003906 -1.125 2.328125 -0.90625 2.328125 L -0.890625 2.3125 C -1.109375 2 -1.222656 1.644531 -1.234375 1.25 Z M -1.265625 1.25"/></g><g id="g"><path d="M 7.6875 -12.296875 L 7.953125 -12.296875 L 7.953125 -12.140625 C 7.910156 -12.035156 7.8125 -11.984375 7.65625 -11.984375 L 7.625 -12.171875 C 7.65625 -12.222656 7.675781 -12.265625 7.6875 -12.296875 Z M 5.125 -11.859375 C 5.332031 -11.859375 5.597656 -11.753906 5.921875 -11.546875 C 6.242188 -11.523438 6.4375 -11.515625 6.5 -11.515625 L 7.46875 -11.671875 L 7.59375 -11.671875 C 7.5625 -11.554688 7.617188 -11.460938 7.765625 -11.390625 C 8.054688 -11.523438 8.5625 -11.59375 9.28125 -11.59375 L 9.484375 -11.59375 C 9.867188 -11.59375 10.117188 -11.472656 10.234375 -11.234375 C 10.328125 -11.179688 10.410156 -11.15625 10.484375 -11.15625 C 10.953125 -11.15625 11.289062 -11.273438 11.5 -11.515625 C 11.550781 -11.515625 11.578125 -11.523438 11.578125 -11.546875 C 12.316406 -11.546875 12.769531 -11.40625 12.9375 -11.125 C 12.9375 -11.082031 13.238281 -11.03125 13.84375 -10.96875 L 13.875 -10.890625 L 13.859375 -10.84375 C 13.847656 -10.78125 13.726562 -10.71875 13.5 -10.65625 L 13.5 -10.609375 C 13.488281 -10.554688 13.878906 -10.453125 14.671875 -10.296875 C 14.878906 -10.203125 15.234375 -10.140625 15.734375 -10.109375 L 15.78125 -9.984375 C 15.582031 -9.910156 15.351562 -9.875 15.09375 -9.875 L 13.828125 -9.984375 C 13.242188 -9.984375 12.867188 -9.867188 12.703125 -9.640625 C 12.703125 -9.609375 12.6875 -9.59375 12.65625 -9.59375 L 12.109375 -9.59375 C 11.753906 -9.488281 11.5625 -9.4375 11.53125 -9.4375 L 11.53125 -9.25 L 11.515625 -9.203125 C 11.492188 -9.203125 11.390625 -9.191406 11.203125 -9.171875 C 10.078125 -9.191406 9.382812 -9.203125 9.125 -9.203125 C 8.9375 -9.160156 8.832031 -9.082031 8.8125 -8.96875 L 8.6875 -8.96875 C 8.46875 -8.96875 8.117188 -8.984375 7.640625 -9.015625 L 7.546875 -8.734375 C 7.585938 -8.554688 7.601562 -8.453125 7.59375 -8.421875 C 7.195312 -7.359375 6.859375 -6.734375 6.578125 -6.546875 C 6.203125 -6.148438 5.96875 -5.707031 5.875 -5.21875 L 5.640625 -4.484375 C 5.816406 -4.191406 6.144531 -4.046875 6.625 -4.046875 C 6.875 -4.046875 7.09375 -4.148438 7.28125 -4.359375 L 7.40625 -4.359375 C 7.5625 -4.359375 7.757812 -4.320312 8 -4.25 L 8.25 -4.28125 L 8.359375 -4.28125 C 8.503906 -3.96875 8.863281 -3.8125 9.4375 -3.8125 L 9.453125 -3.734375 L 9.4375 -3.625 C 9.320312 -3.625 9.226562 -3.554688 9.15625 -3.421875 C 9.851562 -3.242188 10.59375 -3.113281 11.375 -3.03125 L 11.390625 -2.953125 C 11.378906 -2.890625 11.242188 -2.835938 10.984375 -2.796875 C 10.742188 -2.796875 10.242188 -2.835938 9.484375 -2.921875 C 9.398438 -2.921875 9.285156 -2.878906 9.140625 -2.796875 L 8.796875 -2.796875 C 8.679688 -2.796875 8.53125 -2.707031 8.34375 -2.53125 L 7.953125 -2.53125 C 7.828125 -2.53125 7.597656 -2.488281 7.265625 -2.40625 L 7.25 -2.375 L 7.3125 -2.25 L 7.296875 -2.21875 C 7.285156 -2.164062 7.253906 -2.140625 7.203125 -2.140625 C 6.234375 -2.160156 5.632812 -2.171875 5.40625 -2.171875 C 5.320312 -1.992188 5.109375 -1.90625 4.765625 -1.90625 C 4.753906 -1.875 4.46875 -1.742188 3.90625 -1.515625 L 3.1875 -0.375 C 3.019531 -0.207031 2.8125 -0.0664062 2.5625 0.046875 C 2.320312 0.453125 2.175781 0.753906 2.125 0.953125 L 2.109375 1.0625 L 2.296875 1.109375 L 2.484375 1.109375 C 2.878906 0.867188 3.320312 0.75 3.8125 0.75 C 3.988281 0.90625 4.078125 1 4.078125 1.03125 C 5.453125 0.71875 6.195312 0.5625 6.3125 0.5625 L 6.390625 0.5625 C 6.671875 0.5625 6.890625 0.570312 7.046875 0.59375 C 7.242188 0.570312 7.484375 0.5625 7.765625 0.5625 L 7.953125 0.5625 C 8.078125 0.5625 8.328125 0.675781 8.703125 0.90625 L 8.8125 0.90625 C 9.4375 0.90625 9.941406 0.765625 10.328125 0.484375 L 10.40625 0.484375 C 11.488281 0.484375 12.070312 0.597656 12.15625 0.828125 C 12.132812 0.929688 12.535156 1.007812 13.359375 1.0625 L 13.375 1.140625 L 13.375 1.1875 L 13.015625 1.375 L 12.953125 1.453125 L 13.03125 1.5 C 13.351562 1.5 14.023438 1.601562 15.046875 1.8125 C 15.410156 1.8125 15.582031 1.847656 15.5625 1.921875 L 15.546875 1.96875 C 15.535156 2.039062 15.359375 2.078125 15.015625 2.078125 L 13.96875 2.078125 C 13.757812 2.078125 13.488281 2.066406 13.15625 2.046875 C 13.0625 2.097656 12.976562 2.125 12.90625 2.125 L 12.546875 2.125 C 12.335938 2.125 12.148438 2.210938 11.984375 2.390625 C 11.890625 2.441406 11.804688 2.46875 11.734375 2.46875 C 11.410156 2.445312 11.242188 2.4375 11.234375 2.4375 C 10.835938 2.507812 10.578125 2.570312 10.453125 2.625 C 10.484375 2.707031 10.492188 2.785156 10.484375 2.859375 L 10.109375 2.9375 C 9.941406 2.9375 9.722656 2.925781 9.453125 2.90625 C 7.765625 2.988281 6.914062 3.066406 6.90625 3.140625 C 6.875 3.242188 6.832031 3.296875 6.78125 3.296875 L 4.046875 3.484375 C 3.304688 3.585938 2.921875 3.691406 2.890625 3.796875 C 2.835938 3.835938 2.570312 3.878906 2.09375 3.921875 C 2.007812 3.992188 1.90625 4.03125 1.78125 4.03125 L 1.75 4.03125 C 1.65625 4.03125 1.539062 4.019531 1.40625 4 C 0.800781 4.28125 0.25 4.421875 -0.25 4.421875 C -0.21875 4.265625 -0.289062 4.1875 -0.46875 4.1875 C -0.507812 4.363281 -0.925781 4.910156 -1.71875 5.828125 C -1.9375 6.222656 -2.082031 6.421875 -2.15625 6.421875 L -2.234375 6.421875 L -2.234375 6.375 C -2.160156 6.03125 -1.820312 5.421875 -1.21875 4.546875 C -1.0625 4.203125 -0.972656 3.976562 -0.953125 3.875 C -1.835938 3.625 -2.257812 3.40625 -2.21875 3.21875 L -2.15625 2.90625 L -2.078125 2.703125 C -2.492188 2.597656 -2.691406 2.492188 -2.671875 2.390625 C -2.398438 2.242188 -2.257812 2.15625 -2.25 2.125 L -2.25 2.078125 C -2.445312 2.003906 -2.804688 1.925781 -3.328125 1.84375 L -3.390625 1.734375 L -3.375 1.65625 C -3.125 1.601562 -2.890625 1.5625 -2.671875 1.53125 C -2.546875 1.5625 -2.472656 1.578125 -2.453125 1.578125 C -1.898438 1.578125 -1.128906 1.394531 -0.140625 1.03125 C -0.128906 0.945312 0.09375 0.539062 0.53125 -0.1875 C 0.65625 -0.46875 0.929688 -0.960938 1.359375 -1.671875 L 1.375 -1.703125 C 1.382812 -1.753906 1.367188 -1.875 1.328125 -2.0625 C 1.335938 -2.113281 1.40625 -2.242188 1.53125 -2.453125 C 1.414062 -2.453125 1.328125 -2.710938 1.265625 -3.234375 L 1.0625 -3.234375 C 1.019531 -3.234375 0.992188 -3.269531 0.984375 -3.34375 L 1 -3.46875 C 1.101562 -3.46875 1.175781 -3.546875 1.21875 -3.703125 C 0.9375 -3.753906 0.640625 -3.78125 0.328125 -3.78125 L 0.25 -3.78125 C 0.195312 -3.78125 0.175781 -3.804688 0.1875 -3.859375 L 0.203125 -3.890625 C 0.210938 -3.984375 0.5 -4.050781 1.0625 -4.09375 C 1.632812 -4.257812 1.925781 -4.363281 1.9375 -4.40625 C 1.84375 -4.425781 1.8125 -4.503906 1.84375 -4.640625 L 2.125 -4.671875 C 2.34375 -4.617188 2.503906 -4.59375 2.609375 -4.59375 C 2.816406 -4.59375 3.035156 -5.128906 3.265625 -6.203125 C 3.617188 -6.765625 3.820312 -7.164062 3.875 -7.40625 L 3.984375 -7.953125 C 4.023438 -8.160156 4.203125 -8.382812 4.515625 -8.625 C 4.117188 -8.894531 3.867188 -9.113281 3.765625 -9.28125 C 3.765625 -9.320312 3.546875 -9.46875 3.109375 -9.71875 C 3.054688 -9.8125 3.035156 -9.898438 3.046875 -9.984375 L 3.09375 -10.1875 L 3.1875 -10.453125 C 3.03125 -10.453125 2.910156 -10.546875 2.828125 -10.734375 L 2.828125 -10.8125 C 3.054688 -10.851562 3.175781 -10.90625 3.1875 -10.96875 C 3.082031 -11.070312 2.753906 -11.175781 2.203125 -11.28125 L 2.1875 -11.4375 C 2.300781 -11.488281 2.410156 -11.515625 2.515625 -11.515625 L 3.65625 -11.515625 C 4.539062 -11.742188 5.03125 -11.859375 5.125 -11.859375 Z M 1.421875 -11.28125 L 1.578125 -11.28125 C 1.648438 -11.25 1.664062 -11.171875 1.625 -11.046875 L 1.625 -11 L 1.421875 -10.921875 C 1.316406 -10.953125 1.28125 -11.03125 1.3125 -11.15625 C 1.363281 -11.15625 1.398438 -11.195312 1.421875 -11.28125 Z M 2.109375 -10.34375 C 2.398438 -10.34375 2.519531 -10.238281 2.46875 -10.03125 C 2.3125 -9.84375 2.148438 -9.75 1.984375 -9.75 C 1.867188 -9.789062 1.820312 -9.882812 1.84375 -10.03125 L 1.890625 -10.1875 C 1.890625 -10.226562 1.960938 -10.28125 2.109375 -10.34375 Z M 6.859375 -7.140625 L 6.84375 -7.0625 C 6.894531 -7.0625 6.925781 -7.085938 6.9375 -7.140625 Z M 1.03125 -4.5625 L 1.234375 -4.5625 L 1.265625 -4.359375 C 1.222656 -4.253906 1.132812 -4.203125 1 -4.203125 L 0.921875 -4.359375 L 0.921875 -4.40625 C 0.992188 -4.46875 1.03125 -4.519531 1.03125 -4.5625 Z M -0.4375 -3.65625 C -0.34375 -3.625 -0.300781 -3.585938 -0.3125 -3.546875 L -0.359375 -3.34375 C -0.453125 -3.320312 -0.503906 -3.3125 -0.515625 -3.3125 C -0.617188 -3.351562 -0.660156 -3.390625 -0.640625 -3.421875 L -0.625 -3.546875 C -0.613281 -3.609375 -0.550781 -3.644531 -0.4375 -3.65625 Z M 0.484375 -2.875 C 0.671875 -2.875 0.75 -2.796875 0.71875 -2.640625 L 0.6875 -2.5625 C 0.59375 -2.40625 0.472656 -2.328125 0.328125 -2.328125 L 0.171875 -2.328125 C 0.128906 -2.328125 0.09375 -2.40625 0.0625 -2.5625 C 0.15625 -2.769531 0.296875 -2.875 0.484375 -2.875 Z M -4.203125 1.890625 L -4.046875 1.890625 C -3.972656 1.910156 -3.945312 1.988281 -3.96875 2.125 L -4 2.203125 L -4.203125 2.234375 L -4.234375 2.234375 C -4.273438 2.234375 -4.300781 2.179688 -4.3125 2.078125 C -4.25 1.992188 -4.210938 1.929688 -4.203125 1.890625 Z M -3.421875 2.859375 L -3.3125 2.859375 C -3.050781 2.859375 -2.9375 2.9375 -2.96875 3.09375 C -3.132812 3.351562 -3.304688 3.484375 -3.484375 3.484375 C -3.617188 3.484375 -3.6875 3.367188 -3.6875 3.140625 C -3.613281 2.984375 -3.523438 2.890625 -3.421875 2.859375 Z M -3.421875 2.859375"/></g></defs><path fill="#FFF" d="M-37.5 -37.5H412.5V412.5H-37.5z"/><path fill="#FFF" d="M-37.5 -37.5H412.5V412.5H-37.5z"/><path fill="#FFF" d="M-37.5 -37.5H412.5V412.5H-37.5z"/><g fill="#FF1616"><use x="126.199" y="183.101" xmlns:xlink="http://www.w3.org/1999/xlink" xlink:href="#a" xlink:type="simple" xlink:actuate="onLoad" xlink:show="embed"/></g><g fill="#FF1616"><use x="138.06" y="183.101" xmlns:xlink="http://www.w3.org/1999/xlink" xlink:href="#b" xlink:type="simple" xlink:actuate="onLoad" xlink:show="embed"/></g><g fill="#FF1616"><use x="147.314" y="183.101" xmlns:xlink="http://www.w3.org/1999/xlink" xlink:href="#c" xlink:type="simple" xlink:actuate="onLoad" xlink:show="embed"/></g><g fill="#FF1616"><use x="159.438" y="183.101" xmlns:xlink="http://www.w3.org/1999/xlink" xlink:href="#c" xlink:type="simple" xlink:actuate="onLoad" xlink:show="embed"/></g><g fill="#FF1616"><use x="171.562" y="183.101" xmlns:xlink="http://www.w3.org/1999/xlink" xlink:href="#b" xlink:type="simple" xlink:actuate="onLoad" xlink:show="embed"/></g><g fill="#FF1616"><use x="180.817" y="183.101" xmlns:xlink="http://www.w3.org/1999/xlink" xlink:href="#c" xlink:type="simple" xlink:actuate="onLoad" xlink:show="embed"/></g><g fill="#FF1616"><use x="192.941" y="183.101" xmlns:xlink="http://www.w3.org/1999/xlink" xlink:href="#d" xlink:type="simple" xlink:actuate="onLoad" xlink:show="embed"/></g><g fill="#FF1616"><use x="198.72" y="183.101" xmlns:xlink="http://www.w3.org/1999/xlink" xlink:href="#a" xlink:type="simple" xlink:actuate="onLoad" xlink:show="embed"/></g><g fill="#FF1616"><use x="210.58" y="183.101" xmlns:xlink="http://www.w3.org/1999/xlink" xlink:href="#b" xlink:type="simple" xlink:actuate="onLoad" xlink:show="embed"/></g><g fill="#FF1616"><use x="219.834" y="183.101" xmlns:xlink="http://www.w3.org/1999/xlink" xlink:href="#e" xlink:type="simple" xlink:actuate="onLoad" xlink:show="embed"/></g><g fill="#FF1616"><use x="230.075" y="183.101" xmlns:xlink="http://www.w3.org/1999/xlink" xlink:href="#f" xlink:type="simple" xlink:actuate="onLoad" xlink:show="embed"/></g><g fill="#FF1616"><use x="238.177" y="183.101" xmlns:xlink="http://www.w3.org/1999/xlink" xlink:href="#g" xlink:type="simple" xlink:actuate="onLoad" xlink:show="embed"/></g></svg>