<?xml version="1.0" standalone="no"?>
<!DOCTYPE svg PUBLIC "-//W3C//DTD SVG 20010904//EN"
 "http://www.w3.org/TR/2001/REC-SVG-20010904/DTD/svg10.dtd">
<svg version="1.0" xmlns="http://www.w3.org/2000/svg"
 width="500.000000pt" height="500.000000pt" viewBox="0 0 500.000000 500.000000"
 preserveAspectRatio="xMidYMid meet">

<g transform="translate(0.000000,500.000000) scale(0.100000,-0.100000)"
fill="#000000" stroke="none">
<path d="M1504 2726 c-32 -14 -51 -48 -84 -151 -14 -46 -19 -50 -53 -56 -42
-7 -45 1 -19 39 16 23 42 85 42 99 0 2 -9 1 -20 -2 -29 -9 -64 -44 -85 -85
-21 -41 -34 -51 -57 -44 -12 4 -15 0 -11 -16 4 -16 2 -19 -13 -14 -16 6 -16 4
3 -15 23 -22 22 -37 -9 -94 -20 -37 -38 -126 -24 -121 14 5 56 66 56 82 0 6
14 32 32 57 27 38 37 45 65 45 37 0 40 -9 18 -44 -9 -13 -24 -54 -34 -91 l-19
-67 39 42 c22 23 42 54 46 68 8 35 51 92 69 92 9 0 14 -12 14 -32 0 -39 7 -51
38 -67 31 -17 96 13 144 67 21 23 40 42 43 42 2 0 -11 -34 -30 -75 -37 -83
-53 -145 -37 -145 6 0 22 24 36 53 35 71 69 126 79 127 9 0 104 -54 131 -75
17 -13 18 -20 9 -62 -6 -27 -10 -50 -8 -51 2 -2 16 15 30 37 15 22 31 38 35
36 5 -3 6 3 3 13 -5 20 44 102 61 102 6 0 22 -9 36 -20 14 -11 29 -20 34 -20
4 0 36 -20 70 -43 58 -40 62 -42 58 -21 -2 13 -14 34 -27 46 -43 43 -85 78
-95 78 -19 0 -10 21 13 29 13 5 38 21 55 36 39 32 46 29 31 -12 -18 -53 -8
-113 23 -136 27 -20 28 -20 68 -2 22 10 59 38 82 61 23 24 44 42 45 40 2 -2
-8 -30 -23 -62 -27 -61 -56 -155 -50 -162 5 -5 56 70 56 81 0 16 63 107 74
107 6 0 22 -9 36 -20 14 -11 29 -20 34 -20 4 0 36 -20 70 -43 58 -40 62 -42
58 -21 -2 13 -14 34 -27 46 -43 43 -85 78 -95 78 -22 0 -8 20 24 35 18 9 54
36 80 60 52 51 60 89 25 121 -28 25 -137 31 -204 11 -28 -9 -41 -16 -30 -17
11 -1 25 -3 30 -5 6 -1 39 -3 75 -4 115 -3 131 -46 36 -101 -30 -16 -58 -30
-63 -30 -6 0 -2 17 7 38 26 53 33 82 21 82 -19 0 -79 -60 -85 -85 -4 -14 -11
-25 -17 -25 -10 0 -13 7 -23 53 -8 35 -20 35 -23 -1 -2 -28 -55 -133 -76 -150
-12 -10 -40 -16 -63 -13 -54 5 46 184 104 187 53 3 68 46 21 63 -29 10 -90
-12 -122 -43 -16 -16 -17 -16 -17 2 0 10 -9 27 -21 38 -18 16 -35 19 -110 17
-146 -4 -161 -4 -224 3 -36 4 -81 1 -115 -7 l-55 -13 40 -8 c22 -4 65 -8 95
-8 97 -2 108 -41 28 -95 -70 -47 -93 -48 -64 -2 22 35 29 77 13 77 -16 0 -59
-45 -77 -79 -9 -17 -15 -20 -23 -12 -7 7 -12 17 -13 24 0 7 -2 20 -2 30 -3 28
-17 19 -19 -13 -1 -16 -13 -46 -26 -67 -13 -21 -26 -46 -30 -56 -4 -10 -23
-25 -43 -33 -33 -14 -39 -14 -52 0 -13 13 -13 19 2 58 24 59 93 130 116 118
16 -9 23 -1 47 52 2 3 -10 11 -26 16 -23 8 -38 6 -78 -13 -28 -12 -53 -31 -57
-40 -14 -37 -15 -6 -2 41 30 105 30 102 -20 80z m571 -85 c110 -3 124 -47 31
-101 -30 -16 -58 -30 -63 -30 -6 0 -2 17 7 38 26 53 33 82 21 82 -15 0 -81
-60 -81 -74 0 -6 -4 -17 -9 -25 -8 -12 -12 -12 -24 -3 -12 10 -16 8 -21 -11
-3 -13 -4 -33 -1 -45 10 -52 -45 -120 -61 -77 -3 8 -22 24 -41 36 l-36 22 29
16 c100 56 138 96 138 147 0 29 3 32 26 29 14 -1 52 -3 85 -4z m-605 -137 c0
-8 -5 -12 -10 -9 -6 4 -8 11 -5 16 9 14 15 11 15 -7z m-10 -35 c0 -6 -4 -7
-10 -4 -5 3 -10 11 -10 16 0 6 5 7 10 4 6 -3 10 -11 10 -16z"/>
<path d="M3024 2724 c-22 -11 -35 -27 -43 -55 -6 -21 -16 -39 -21 -39 -6 0
-10 -8 -10 -19 0 -10 -7 -34 -15 -54 -12 -29 -20 -35 -50 -39 -40 -5 -41 -2
-19 31 9 12 24 45 34 72 l18 49 -26 -14 c-33 -17 -65 -51 -85 -92 -16 -32 -37
-46 -59 -40 -7 1 -10 1 -5 -1 4 -3 7 -11 7 -20 0 -10 -7 -13 -22 -9 -13 3 -17
3 -10 0 31 -14 33 -43 8 -96 -32 -68 -44 -132 -25 -126 8 3 25 27 39 54 57
110 69 124 106 124 40 0 41 -7 14 -60 -11 -22 -18 -40 -16 -40 2 0 -4 -23 -15
-52 -10 -28 -16 -54 -14 -57 3 -2 5 0 5 5 0 6 18 29 40 53 22 23 40 50 40 59
0 22 50 92 66 92 8 0 14 -15 16 -37 2 -25 11 -42 30 -56 26 -20 28 -20 66 -3
22 10 50 28 64 41 l26 24 6 -39 c11 -69 71 -90 126 -44 47 40 139 237 139 299
0 34 -54 -38 -106 -140 -54 -107 -80 -140 -100 -124 -24 20 -13 62 42 169 30
57 53 106 51 107 -1 2 -16 -2 -33 -8 -24 -8 -35 -21 -49 -57 l-18 -47 -8 33
c-10 39 -22 42 -25 4 -2 -28 -55 -133 -76 -150 -12 -10 -40 -16 -63 -13 -54 5
46 184 104 187 53 3 68 46 21 63 -31 11 -94 -13 -128 -50 l-21 -23 14 50 c32
114 32 114 -20 88z m-31 -219 c-3 -9 -8 -14 -10 -11 -3 3 -2 9 2 15 9 16 15
13 8 -4z m-13 -35 c0 -5 -2 -10 -4 -10 -3 0 -8 5 -11 10 -3 6 -1 10 4 10 6 0
11 -4 11 -10z"/>
<path d="M3648 2673 c-10 -2 -18 -9 -18 -14 0 -6 -7 -6 -19 1 -25 13 -46 13
-94 -1 -28 -8 -42 -19 -57 -49 -23 -45 -24 -59 -8 -112 7 -24 16 -37 24 -34
25 10 34 -54 11 -82 -18 -22 -89 -4 -98 25 -5 17 -25 3 -33 -24 -5 -17 -1 -26
19 -39 32 -21 110 -22 133 -1 17 15 46 12 37 -3 -3 -4 17 -2 44 5 27 7 82 16
122 20 40 4 89 13 108 20 l36 13 -25 10 c-14 5 -69 8 -122 6 -54 -2 -98 0 -98
4 0 23 52 54 109 64 61 12 62 12 36 25 -14 8 -34 11 -45 8 -30 -9 -33 11 -8
57 13 24 23 44 24 46 1 1 19 4 40 6 21 2 54 8 73 12 32 7 33 7 12 19 -13 6
-52 12 -89 13 -37 1 -73 4 -82 6 -8 2 -23 1 -32 -1z m6 -52 c9 -14 -28 -91
-47 -97 -13 -4 -17 -12 -14 -27 3 -12 -2 -37 -12 -56 l-18 -34 -6 32 c-4 18
-17 46 -29 63 -26 38 -28 86 -3 104 27 20 56 17 62 -6 7 -28 31 -25 39 5 6 25
18 32 28 16z"/>
</g>
</svg>
