<?xml version="1.0" standalone="no"?>
<!DOCTYPE svg PUBLIC "-//W3C//DTD SVG 20010904//EN"
 "http://www.w3.org/TR/2001/REC-SVG-20010904/DTD/svg10.dtd">
<svg version="1.0" xmlns="http://www.w3.org/2000/svg"
 width="500.000000pt" height="500.000000pt" viewBox="0 0 500.000000 500.000000"
 preserveAspectRatio="xMidYMid meet">

<g transform="translate(0.000000,500.000000) scale(0.100000,-0.100000)"
fill="#000000" stroke="none">
<path d="M1903 2603 c-8 -21 -19 -48 -24 -60 -5 -14 -17 -23 -30 -23 -20 0
-21 1 -5 25 9 13 16 31 16 40 0 24 -39 0 -50 -31 -5 -13 -17 -27 -25 -30 -8
-4 -15 -16 -15 -29 0 -12 -7 -39 -15 -58 -30 -73 -8 -74 26 -1 16 34 27 44 45
44 28 0 28 2 9 -43 -30 -73 -8 -74 26 -1 23 47 44 58 46 22 4 -47 47 -45 102
6 l33 31 -19 -40 c-20 -41 -37 -95 -29 -95 2 0 18 25 35 55 l31 55 43 -26 c39
-24 43 -30 39 -58 l-5 -31 20 25 c10 14 24 37 31 53 6 15 16 27 21 27 11 0 78
-36 100 -54 12 -9 14 -8 9 5 -5 12 1 16 24 16 23 0 40 9 65 36 39 43 40 41 12
-23 -12 -27 -19 -55 -16 -62 2 -8 10 -1 18 17 7 17 20 40 29 52 l16 21 55 -33
c29 -19 56 -31 59 -29 3 3 -12 21 -33 40 -20 19 -37 36 -37 38 0 2 18 15 39
29 48 32 61 65 35 84 -21 15 -110 18 -119 3 -4 -6 13 -10 44 -10 62 0 74 -16
35 -47 -37 -29 -59 -31 -44 -4 20 38 9 46 -20 14 -32 -35 -34 -34 -45 15 -7
36 -36 43 -70 18 -17 -12 -21 -12 -33 5 -10 15 -25 19 -67 19 -71 0 -81 -18
-13 -22 65 -4 77 -28 28 -53 -38 -20 -44 -16 -31 19 14 35 -3 34 -30 -4 -12
-16 -26 -27 -31 -24 -4 3 -8 2 -9 -3 0 -4 -2 -20 -3 -35 -3 -45 -20 -53 -50
-25 -26 24 -26 26 -8 32 54 16 93 95 56 109 -24 9 -97 7 -114 -4 -11 -7 -1
-10 36 -10 68 0 86 -20 45 -49 -40 -29 -53 -27 -41 5 12 32 12 34 0 34 -6 0
-19 -14 -29 -31 -20 -33 -25 -31 -36 19 -8 39 -38 43 -79 11 l-26 -21 10 27
c24 63 -11 80 -37 18z m127 -53 c0 -17 -43 -81 -60 -90 -25 -13 -42 7 -28 34
18 36 60 75 74 69 8 -3 14 -9 14 -13z m400 0 c0 -17 -43 -81 -60 -90 -25 -13
-42 7 -28 34 18 36 60 75 74 69 8 -3 14 -9 14 -13z m-122 -70 c-1 -22 -4 -40
-6 -40 -3 0 -16 10 -28 21 l-23 22 22 18 c32 27 37 24 35 -21z"/>
<path d="M2773 2603 c-8 -21 -19 -48 -24 -60 -5 -14 -17 -23 -30 -23 -20 0
-21 1 -5 25 9 13 16 31 16 40 0 24 -39 0 -50 -31 -5 -13 -17 -27 -25 -30 -8
-4 -15 -16 -15 -29 0 -12 -7 -39 -15 -58 -30 -73 -8 -74 26 -1 16 34 27 44 45
44 28 0 28 2 9 -43 -30 -73 -8 -74 26 -1 23 47 44 58 46 22 3 -40 46 -45 85
-11 14 13 17 12 23 -9 15 -45 44 -49 80 -11 19 21 25 24 25 11 0 -21 33 -32
68 -22 15 4 30 7 35 6 16 -4 152 21 161 29 6 5 -20 9 -60 9 l-69 1 24 19 c13
11 32 20 42 20 10 0 19 5 19 10 0 6 -9 10 -20 10 -20 0 -20 1 -5 30 10 20 23
30 38 30 26 0 53 15 41 23 -15 8 -158 5 -184 -5 -13 -5 -28 -15 -32 -21 -13
-20 -9 -65 7 -81 8 -8 15 -24 15 -35 0 -16 -6 -21 -25 -21 -45 0 -54 18 -35
70 10 25 21 56 24 70 l7 25 -20 -25 c-12 -14 -33 -47 -47 -75 -14 -27 -32 -56
-40 -64 -11 -13 -14 -12 -20 3 -5 12 5 42 24 82 25 50 28 64 17 64 -9 0 -21
-12 -27 -27 l-11 -28 -10 33 c-12 38 -41 43 -81 11 l-26 -21 10 27 c24 63 -11
80 -37 18z m347 -40 c1 -16 2 -16 15 1 8 11 17 17 20 14 8 -8 -13 -58 -24 -58
-6 0 -8 -6 -5 -13 2 -7 -2 -21 -10 -32 -13 -17 -15 -18 -16 -3 0 9 -8 30 -17
46 -14 25 -15 32 -4 46 18 21 41 20 41 -1z m-220 -13 c0 -17 -43 -81 -60 -90
-25 -13 -42 7 -28 34 18 36 60 75 74 69 8 -3 14 -9 14 -13z"/>
</g>
</svg>
